G04*
G04 #@! TF.GenerationSoftware,Altium Limited,Altium Designer,22.7.1 (60)*
G04*
G04 Layer_Physical_Order=2*
G04 Layer_Color=16711680*
%FSLAX25Y25*%
%MOIN*%
G70*
G04*
G04 #@! TF.SameCoordinates,08797D1C-2854-47D2-879A-D974AA26C4BC*
G04*
G04*
G04 #@! TF.FilePolarity,Positive*
G04*
G01*
G75*
%ADD13R,0.11024X0.02165*%
%ADD19C,0.01000*%
%ADD20C,0.01001*%
%ADD21C,0.01968*%
%ADD22C,0.02500*%
%ADD23C,0.06653*%
%ADD24C,0.18740*%
%ADD25R,0.06653X0.06653*%
%ADD26C,0.01968*%
G36*
X549386Y391431D02*
X550476Y390980D01*
X551458Y390324D01*
X552292Y389489D01*
X552948Y388508D01*
X553400Y387417D01*
X553630Y386260D01*
Y385669D01*
Y8032D01*
Y7441D01*
X553400Y6284D01*
X552948Y5193D01*
X552292Y4212D01*
X551458Y3377D01*
X550476Y2721D01*
X549386Y2269D01*
X548228Y2039D01*
X8100D01*
X8087Y2037D01*
X8074Y2039D01*
X7487Y2032D01*
X6333Y2246D01*
X5242Y2682D01*
X4258Y3322D01*
X3417Y4142D01*
X2753Y5110D01*
X2290Y6190D01*
X2046Y7338D01*
X2039Y7913D01*
Y115437D01*
X1884Y116217D01*
X1442Y116879D01*
X780Y117321D01*
X-0Y117476D01*
X-23933D01*
X-23983Y117466D01*
X-24033Y117474D01*
X-24419Y117455D01*
X-24566Y117418D01*
X-24717D01*
X-25474Y117267D01*
X-25659Y117191D01*
X-25856Y117151D01*
X-26569Y116856D01*
X-26736Y116744D01*
X-26922Y116668D01*
X-27564Y116239D01*
X-27706Y116097D01*
X-27873Y115985D01*
X-28418Y115439D01*
X-28530Y115272D01*
X-28672Y115130D01*
X-29101Y114489D01*
X-29177Y114303D01*
X-29289Y114136D01*
X-29585Y113423D01*
X-29624Y113226D01*
X-29700Y113041D01*
X-29851Y112284D01*
Y112133D01*
X-29888Y111986D01*
X-29907Y111600D01*
X-29899Y111550D01*
X-29909Y111500D01*
Y109602D01*
X-32838D01*
Y121343D01*
X-32848Y121392D01*
X-32841Y121443D01*
X-32860Y121828D01*
X-32896Y121975D01*
Y122126D01*
X-33047Y122883D01*
X-33124Y123069D01*
X-33163Y123266D01*
X-33458Y123979D01*
X-33570Y124146D01*
X-33647Y124331D01*
X-34076Y124973D01*
X-34218Y125115D01*
X-34329Y125282D01*
X-34875Y125828D01*
X-35042Y125939D01*
X-35184Y126081D01*
X-35826Y126510D01*
X-36011Y126587D01*
X-36178Y126699D01*
X-36891Y126994D01*
X-37088Y127033D01*
X-37274Y127110D01*
X-38031Y127260D01*
X-38182D01*
X-38328Y127297D01*
X-38714Y127316D01*
X-38765Y127309D01*
X-38814Y127319D01*
X-42701D01*
Y127821D01*
X-26028D01*
X-24772Y126565D01*
Y126297D01*
X-24502Y125646D01*
X-24004Y125147D01*
X-23352Y124878D01*
X-22648D01*
X-21996Y125147D01*
X-21498Y125646D01*
X-21228Y126297D01*
Y127002D01*
X-21498Y127653D01*
X-21996Y128151D01*
X-22648Y128421D01*
X-22915D01*
X-24556Y130062D01*
X-24982Y130347D01*
X-25485Y130447D01*
X-42701D01*
Y130971D01*
X-9067D01*
X-8878Y130781D01*
X-8226Y130512D01*
X-7522D01*
X-6870Y130781D01*
X-6372Y131280D01*
X-6102Y131931D01*
Y132636D01*
X-6372Y133287D01*
X-6870Y133785D01*
X-7522Y134055D01*
X-8226D01*
X-8878Y133785D01*
X-9067Y133596D01*
X-42701D01*
Y134153D01*
X-55299D01*
Y130413D01*
Y127319D01*
X-56461D01*
Y183969D01*
X-38028D01*
X-37961Y183982D01*
X-37894Y183973D01*
X-37278Y184013D01*
X-37084Y184065D01*
X-36883Y184079D01*
X-35692Y184398D01*
X-35453Y184516D01*
X-35200Y184602D01*
X-34132Y185218D01*
X-33931Y185394D01*
X-33710Y185542D01*
X-32838Y186414D01*
X-32689Y186636D01*
X-32513Y186837D01*
X-31897Y187905D01*
X-31811Y188157D01*
X-31693Y188397D01*
X-31374Y189588D01*
X-31356Y189854D01*
X-31304Y190116D01*
Y191349D01*
X-31356Y191611D01*
X-31374Y191877D01*
X-31693Y193068D01*
X-31811Y193307D01*
X-31897Y193560D01*
X-32513Y194628D01*
X-32689Y194828D01*
X-32838Y195050D01*
X-33710Y195922D01*
X-33931Y196071D01*
X-34132Y196246D01*
X-35200Y196863D01*
X-35453Y196949D01*
X-35692Y197067D01*
X-36883Y197386D01*
X-36922Y197436D01*
X-36676Y197936D01*
X3393D01*
X17219Y184111D01*
X17219Y184111D01*
X17645Y183826D01*
X18147Y183726D01*
X18147Y183726D01*
X19118D01*
Y183469D01*
X19387Y182818D01*
X19886Y182319D01*
X20537Y182050D01*
X21242D01*
X21893Y182319D01*
X22391Y182818D01*
X22661Y183469D01*
Y184174D01*
X22391Y184825D01*
X21893Y185323D01*
X21407Y185525D01*
Y186055D01*
X21893Y186256D01*
X22391Y186755D01*
X22661Y187406D01*
Y188111D01*
X22391Y188762D01*
X21893Y189260D01*
X21242Y189530D01*
X20537D01*
X19886Y189260D01*
X19387Y188762D01*
X19307Y188567D01*
X18717Y188449D01*
X5487Y201679D01*
X5061Y201964D01*
X4559Y202063D01*
X-42134D01*
X-42347Y202206D01*
X-42701Y202276D01*
Y203445D01*
X-55299D01*
Y199705D01*
Y197496D01*
X-56461D01*
Y266744D01*
X-38814D01*
X-38765Y266754D01*
X-38714Y266747D01*
X-38328Y266766D01*
X-38182Y266803D01*
X-38031D01*
X-37274Y266953D01*
X-37088Y267030D01*
X-36891Y267069D01*
X-36178Y267364D01*
X-36011Y267476D01*
X-35826Y267553D01*
X-35184Y267982D01*
X-35042Y268124D01*
X-34875Y268235D01*
X-34329Y268781D01*
X-34218Y268948D01*
X-34076Y269090D01*
X-33647Y269732D01*
X-33570Y269917D01*
X-33458Y270084D01*
X-33163Y270797D01*
X-33124Y270994D01*
X-33047Y271180D01*
X-32896Y271937D01*
Y272088D01*
X-32860Y272235D01*
X-32841Y272620D01*
X-32848Y272671D01*
X-32838Y272721D01*
Y284461D01*
X-29909D01*
Y282563D01*
X-29899Y282513D01*
X-29907Y282463D01*
X-29888Y282077D01*
X-29851Y281930D01*
Y281779D01*
X-29700Y281022D01*
X-29624Y280837D01*
X-29585Y280640D01*
X-29289Y279927D01*
X-29178Y279760D01*
X-29101Y279574D01*
X-28672Y278932D01*
X-28530Y278790D01*
X-28418Y278624D01*
X-27873Y278078D01*
X-27706Y277966D01*
X-27564Y277824D01*
X-26922Y277395D01*
X-26736Y277319D01*
X-26569Y277207D01*
X-25856Y276912D01*
X-25659Y276872D01*
X-25474Y276796D01*
X-24717Y276645D01*
X-24566D01*
X-24419Y276608D01*
X-24033Y276589D01*
X-23983Y276597D01*
X-23933Y276587D01*
X-0D01*
X780Y276742D01*
X1442Y277184D01*
X1884Y277846D01*
X2039Y278626D01*
Y385700D01*
Y386287D01*
X2268Y387439D01*
X2718Y388524D01*
X3370Y389500D01*
X4200Y390331D01*
X5177Y390983D01*
X6262Y391432D01*
X7414Y391662D01*
X548228D01*
X549386Y391431D01*
D02*
G37*
%LPC*%
G36*
X518967Y287925D02*
X517884D01*
X516837Y287645D01*
X515899Y287103D01*
X515133Y286337D01*
X514591Y285399D01*
X514311Y284353D01*
Y283269D01*
X514591Y282223D01*
X515133Y281285D01*
X515899Y280519D01*
X516837Y279977D01*
X517884Y279697D01*
X518967D01*
X520013Y279977D01*
X520951Y280519D01*
X521717Y281285D01*
X522259Y282223D01*
X522539Y283269D01*
Y284353D01*
X522259Y285399D01*
X521717Y286337D01*
X520951Y287103D01*
X520013Y287645D01*
X518967Y287925D01*
D02*
G37*
G36*
X507786Y282490D02*
X506703D01*
X505656Y282210D01*
X504718Y281668D01*
X503952Y280902D01*
X503410Y279964D01*
X503130Y278918D01*
Y277834D01*
X503410Y276788D01*
X503952Y275850D01*
X504718Y275084D01*
X505656Y274542D01*
X506703Y274262D01*
X507786D01*
X508832Y274542D01*
X509770Y275084D01*
X510536Y275850D01*
X511078Y276788D01*
X511358Y277834D01*
Y278918D01*
X511078Y279964D01*
X510536Y280902D01*
X509770Y281668D01*
X508832Y282210D01*
X507786Y282490D01*
D02*
G37*
G36*
X518967Y277055D02*
X517884D01*
X516837Y276775D01*
X515899Y276233D01*
X515133Y275467D01*
X514591Y274529D01*
X514311Y273483D01*
Y272399D01*
X514591Y271353D01*
X515133Y270415D01*
X515899Y269649D01*
X516837Y269107D01*
X517884Y268827D01*
X518967D01*
X520013Y269107D01*
X520951Y269649D01*
X521717Y270415D01*
X522259Y271353D01*
X522539Y272399D01*
Y273483D01*
X522259Y274529D01*
X521717Y275467D01*
X520951Y276233D01*
X520013Y276775D01*
X518967Y277055D01*
D02*
G37*
G36*
X39722Y270276D02*
X39018D01*
X38366Y270006D01*
X37868Y269508D01*
X37598Y268856D01*
Y268599D01*
X25006D01*
X24503Y268499D01*
X24077Y268214D01*
X24077Y268214D01*
X-4278Y239859D01*
X-42134D01*
X-42347Y240001D01*
X-42701Y240071D01*
Y241240D01*
X-55299D01*
Y237500D01*
Y234350D01*
X-42701D01*
Y235519D01*
X-42347Y235590D01*
X-42134Y235732D01*
X-3113D01*
X-2610Y235832D01*
X-2184Y236116D01*
X26171Y264472D01*
X37598D01*
Y264214D01*
X37868Y263563D01*
X38366Y263065D01*
X39018Y262795D01*
X39722D01*
X40374Y263065D01*
X40872Y263563D01*
X41142Y264214D01*
Y264919D01*
X40872Y265570D01*
X40374Y266069D01*
X39887Y266270D01*
Y266800D01*
X40374Y267002D01*
X40872Y267500D01*
X41142Y268151D01*
Y268856D01*
X40872Y269508D01*
X40374Y270006D01*
X39722Y270276D01*
D02*
G37*
G36*
X518967Y266185D02*
X517884D01*
X516837Y265905D01*
X515899Y265363D01*
X515133Y264597D01*
X514591Y263659D01*
X514311Y262613D01*
Y261529D01*
X514591Y260483D01*
X515133Y259545D01*
X515899Y258779D01*
X516837Y258237D01*
X517884Y257957D01*
X518967D01*
X520013Y258237D01*
X520951Y258779D01*
X521717Y259545D01*
X522259Y260483D01*
X522539Y261529D01*
Y262613D01*
X522259Y263659D01*
X521717Y264597D01*
X520951Y265363D01*
X520013Y265905D01*
X518967Y266185D01*
D02*
G37*
G36*
X496605D02*
X495521D01*
X494475Y265905D01*
X493537Y265363D01*
X492771Y264597D01*
X492229Y263659D01*
X491949Y262613D01*
Y261529D01*
X492229Y260483D01*
X492771Y259545D01*
X493537Y258779D01*
X494475Y258237D01*
X495521Y257957D01*
X496605D01*
X497651Y258237D01*
X498589Y258779D01*
X499355Y259545D01*
X499897Y260483D01*
X500177Y261529D01*
Y262613D01*
X499897Y263659D01*
X499355Y264597D01*
X498589Y265363D01*
X497651Y265905D01*
X496605Y266185D01*
D02*
G37*
G36*
X-9859Y260345D02*
X-49000D01*
X-49795Y260187D01*
X-49869Y260138D01*
X-55299D01*
Y256398D01*
X-49869D01*
X-49795Y256348D01*
X-49000Y256190D01*
X-9859D01*
X-9064Y256348D01*
X-8390Y256799D01*
X-7940Y257473D01*
X-7782Y258268D01*
X-7940Y259063D01*
X-8390Y259737D01*
X-9064Y260187D01*
X-9859Y260345D01*
D02*
G37*
G36*
X-42701Y253839D02*
X-55299D01*
Y250098D01*
X-42701D01*
Y250162D01*
X-6566D01*
X-6391Y250197D01*
X-6213D01*
X-6049Y250265D01*
X-5875Y250300D01*
X-5727Y250398D01*
X-5562Y250467D01*
X-5437Y250592D01*
X-5289Y250691D01*
X-5190Y250839D01*
X-5064Y250965D01*
X-4996Y251129D01*
X-4897Y251277D01*
X-4862Y251452D01*
X-4794Y251616D01*
Y251794D01*
X-4760Y251969D01*
X-4794Y252143D01*
Y252321D01*
X-4862Y252485D01*
X-4897Y252660D01*
X-4996Y252808D01*
X-5064Y252972D01*
X-5190Y253098D01*
X-5289Y253246D01*
X-5437Y253345D01*
X-5562Y253470D01*
X-5727Y253538D01*
X-5875Y253637D01*
X-6049Y253672D01*
X-6213Y253740D01*
X-6391D01*
X-6566Y253775D01*
X-42701D01*
Y253839D01*
D02*
G37*
G36*
X518967Y255315D02*
X517884D01*
X516837Y255035D01*
X515899Y254493D01*
X515133Y253727D01*
X514591Y252789D01*
X514311Y251742D01*
Y250659D01*
X514591Y249613D01*
X515133Y248675D01*
X515899Y247909D01*
X516837Y247367D01*
X517884Y247087D01*
X518967D01*
X520013Y247367D01*
X520951Y247909D01*
X521717Y248675D01*
X522259Y249613D01*
X522539Y250659D01*
Y251742D01*
X522259Y252789D01*
X521717Y253727D01*
X520951Y254493D01*
X520013Y255035D01*
X518967Y255315D01*
D02*
G37*
G36*
X496605D02*
X495521D01*
X494475Y255035D01*
X493537Y254493D01*
X492771Y253727D01*
X492229Y252789D01*
X491949Y251742D01*
Y250659D01*
X492229Y249613D01*
X492771Y248675D01*
X493537Y247909D01*
X494475Y247367D01*
X495521Y247087D01*
X496605D01*
X497651Y247367D01*
X498589Y247909D01*
X499355Y248675D01*
X499897Y249613D01*
X500177Y250659D01*
Y251742D01*
X499897Y252789D01*
X499355Y253727D01*
X498589Y254493D01*
X497651Y255035D01*
X496605Y255315D01*
D02*
G37*
G36*
X-42701Y247539D02*
X-55299D01*
Y243799D01*
X-42701D01*
Y243863D01*
X-3631D01*
X-3457Y243898D01*
X-3279D01*
X-3115Y243966D01*
X-2940Y244000D01*
X-2792Y244099D01*
X-2628Y244167D01*
X-2502Y244293D01*
X-2354Y244392D01*
X-2255Y244540D01*
X-2129Y244666D01*
X-2061Y244830D01*
X-1963Y244978D01*
X-1928Y245152D01*
X-1860Y245317D01*
Y245495D01*
X-1825Y245669D01*
X-1860Y245844D01*
Y246022D01*
X-1928Y246186D01*
X-1963Y246361D01*
X-2061Y246509D01*
X-2129Y246673D01*
X-2255Y246799D01*
X-2354Y246947D01*
X-2502Y247045D01*
X-2628Y247171D01*
X-2792Y247239D01*
X-2940Y247338D01*
X-3115Y247373D01*
X-3279Y247441D01*
X-3457D01*
X-3631Y247476D01*
X-42701D01*
Y247539D01*
D02*
G37*
G36*
X20037Y249803D02*
X19333D01*
X18681Y249533D01*
X18183Y249035D01*
X17913Y248384D01*
Y248127D01*
X15008D01*
X14505Y248027D01*
X14079Y247742D01*
X-3253Y230410D01*
X-42134D01*
X-42347Y230552D01*
X-42701Y230623D01*
Y231791D01*
X-55299D01*
Y228051D01*
Y224902D01*
X-42701D01*
Y226070D01*
X-42347Y226141D01*
X-42134Y226283D01*
X-2087D01*
X-1585Y226383D01*
X-1159Y226667D01*
X16173Y244000D01*
X17913D01*
Y243742D01*
X18183Y243091D01*
X18681Y242593D01*
X19333Y242323D01*
X20037D01*
X20689Y242593D01*
X21187Y243091D01*
X21457Y243742D01*
Y244447D01*
X21187Y245098D01*
X20689Y245596D01*
X20202Y245798D01*
Y246328D01*
X20689Y246530D01*
X21187Y247028D01*
X21457Y247679D01*
Y248384D01*
X21187Y249035D01*
X20689Y249533D01*
X20037Y249803D01*
D02*
G37*
G36*
X518967Y244445D02*
X517884D01*
X516837Y244164D01*
X515899Y243623D01*
X515133Y242857D01*
X514591Y241919D01*
X514311Y240872D01*
Y239789D01*
X514591Y238743D01*
X515133Y237805D01*
X515899Y237038D01*
X516837Y236497D01*
X517884Y236216D01*
X518967D01*
X520013Y236497D01*
X520951Y237038D01*
X521717Y237805D01*
X522259Y238743D01*
X522539Y239789D01*
Y240872D01*
X522259Y241919D01*
X521717Y242857D01*
X520951Y243623D01*
X520013Y244164D01*
X518967Y244445D01*
D02*
G37*
G36*
X496605D02*
X495521D01*
X494475Y244164D01*
X493537Y243623D01*
X492771Y242857D01*
X492229Y241919D01*
X491949Y240872D01*
Y239789D01*
X492229Y238743D01*
X492771Y237805D01*
X493537Y237038D01*
X494475Y236497D01*
X495521Y236216D01*
X496605D01*
X497651Y236497D01*
X498589Y237038D01*
X499355Y237805D01*
X499897Y238743D01*
X500177Y239789D01*
Y240872D01*
X499897Y241919D01*
X499355Y242857D01*
X498589Y243623D01*
X497651Y244164D01*
X496605Y244445D01*
D02*
G37*
G36*
X518967Y233575D02*
X517884D01*
X516837Y233294D01*
X515899Y232753D01*
X515133Y231987D01*
X514591Y231049D01*
X514311Y230002D01*
Y228919D01*
X514591Y227873D01*
X515133Y226935D01*
X515899Y226168D01*
X516837Y225627D01*
X517884Y225346D01*
X518967D01*
X520013Y225627D01*
X520951Y226168D01*
X521717Y226935D01*
X522259Y227873D01*
X522539Y228919D01*
Y230002D01*
X522259Y231049D01*
X521717Y231987D01*
X520951Y232753D01*
X520013Y233294D01*
X518967Y233575D01*
D02*
G37*
G36*
X496605D02*
X495521D01*
X494475Y233294D01*
X493537Y232753D01*
X492771Y231987D01*
X492229Y231049D01*
X491949Y230002D01*
Y228919D01*
X492229Y227873D01*
X492771Y226935D01*
X493537Y226168D01*
X494475Y225627D01*
X495521Y225346D01*
X496605D01*
X497651Y225627D01*
X498589Y226168D01*
X499355Y226935D01*
X499897Y227873D01*
X500177Y228919D01*
Y230002D01*
X499897Y231049D01*
X499355Y231987D01*
X498589Y232753D01*
X497651Y233294D01*
X496605Y233575D01*
D02*
G37*
G36*
X20038Y230118D02*
X19333D01*
X18681Y229848D01*
X18183Y229350D01*
X17913Y228699D01*
Y228442D01*
X13443D01*
X12941Y228342D01*
X12515Y228057D01*
X12515Y228057D01*
X5419Y220961D01*
X-42134D01*
X-42347Y221103D01*
X-42701Y221174D01*
Y222342D01*
X-55299D01*
Y218602D01*
Y215453D01*
X-42701D01*
Y216622D01*
X-42347Y216692D01*
X-42134Y216834D01*
X6585D01*
X7087Y216934D01*
X7513Y217219D01*
X14609Y224314D01*
X17913D01*
Y224057D01*
X18183Y223406D01*
X18681Y222907D01*
X19333Y222638D01*
X20038D01*
X20689Y222907D01*
X21187Y223406D01*
X21457Y224057D01*
Y224762D01*
X21187Y225413D01*
X20689Y225911D01*
X20202Y226113D01*
Y226643D01*
X20689Y226845D01*
X21187Y227343D01*
X21457Y227994D01*
Y228699D01*
X21187Y229350D01*
X20689Y229848D01*
X20038Y230118D01*
D02*
G37*
G36*
X518967Y222705D02*
X517884D01*
X516837Y222424D01*
X515899Y221883D01*
X515133Y221117D01*
X514591Y220179D01*
X514311Y219132D01*
Y218049D01*
X514591Y217003D01*
X515133Y216064D01*
X515899Y215298D01*
X516837Y214757D01*
X517884Y214476D01*
X518967D01*
X520013Y214757D01*
X520951Y215298D01*
X521717Y216064D01*
X522259Y217003D01*
X522539Y218049D01*
Y219132D01*
X522259Y220179D01*
X521717Y221117D01*
X520951Y221883D01*
X520013Y222424D01*
X518967Y222705D01*
D02*
G37*
G36*
X496605D02*
X495521D01*
X494475Y222424D01*
X493537Y221883D01*
X492771Y221117D01*
X492229Y220179D01*
X491949Y219132D01*
Y218049D01*
X492229Y217003D01*
X492771Y216064D01*
X493537Y215298D01*
X494475Y214757D01*
X495521Y214476D01*
X496605D01*
X497651Y214757D01*
X498589Y215298D01*
X499355Y216064D01*
X499897Y217003D01*
X500177Y218049D01*
Y219132D01*
X499897Y220179D01*
X499355Y221117D01*
X498589Y221883D01*
X497651Y222424D01*
X496605Y222705D01*
D02*
G37*
G36*
X20038Y213189D02*
X19333D01*
X18681Y212919D01*
X18183Y212421D01*
X17913Y211770D01*
Y211512D01*
X-11332D01*
X-11332Y211512D01*
X-42134D01*
X-42347Y211654D01*
X-42701Y211725D01*
Y212894D01*
X-55299D01*
Y209154D01*
Y206004D01*
X-42701D01*
Y207173D01*
X-42347Y207243D01*
X-42134Y207385D01*
X-10711D01*
X-10711Y207385D01*
X17913D01*
Y207128D01*
X18183Y206477D01*
X18681Y205978D01*
X19333Y205709D01*
X20038D01*
X20689Y205978D01*
X21187Y206477D01*
X21457Y207128D01*
Y207833D01*
X21187Y208484D01*
X20689Y208982D01*
X20202Y209184D01*
Y209714D01*
X20689Y209915D01*
X21187Y210414D01*
X21457Y211065D01*
Y211770D01*
X21187Y212421D01*
X20689Y212919D01*
X20038Y213189D01*
D02*
G37*
G36*
X518967Y211835D02*
X517884D01*
X516837Y211554D01*
X515899Y211013D01*
X515133Y210247D01*
X514591Y209309D01*
X514311Y208262D01*
Y207179D01*
X514591Y206133D01*
X515133Y205194D01*
X515899Y204428D01*
X516837Y203887D01*
X517884Y203606D01*
X518967D01*
X520013Y203887D01*
X520951Y204428D01*
X521717Y205194D01*
X522259Y206133D01*
X522539Y207179D01*
Y208262D01*
X522259Y209309D01*
X521717Y210247D01*
X520951Y211013D01*
X520013Y211554D01*
X518967Y211835D01*
D02*
G37*
G36*
X496605D02*
X495521D01*
X494475Y211554D01*
X493537Y211013D01*
X492771Y210247D01*
X492229Y209309D01*
X491949Y208262D01*
Y207179D01*
X492229Y206133D01*
X492771Y205194D01*
X493537Y204428D01*
X494475Y203887D01*
X495521Y203606D01*
X496605D01*
X497651Y203887D01*
X498589Y204428D01*
X499355Y205194D01*
X499897Y206133D01*
X500177Y207179D01*
Y208262D01*
X499897Y209309D01*
X499355Y210247D01*
X498589Y211013D01*
X497651Y211554D01*
X496605Y211835D01*
D02*
G37*
G36*
X518967Y200965D02*
X517884D01*
X516837Y200684D01*
X515899Y200143D01*
X515133Y199376D01*
X514591Y198438D01*
X514311Y197392D01*
Y196309D01*
X514591Y195262D01*
X515133Y194324D01*
X515899Y193558D01*
X516837Y193017D01*
X517884Y192736D01*
X518967D01*
X520013Y193017D01*
X520951Y193558D01*
X521717Y194324D01*
X522259Y195262D01*
X522539Y196309D01*
Y197392D01*
X522259Y198438D01*
X521717Y199376D01*
X520951Y200143D01*
X520013Y200684D01*
X518967Y200965D01*
D02*
G37*
G36*
X496605D02*
X495521D01*
X494475Y200684D01*
X493537Y200143D01*
X492771Y199376D01*
X492229Y198438D01*
X491949Y197392D01*
Y196309D01*
X492229Y195262D01*
X492771Y194324D01*
X493537Y193558D01*
X494475Y193017D01*
X495521Y192736D01*
X496605D01*
X497651Y193017D01*
X498589Y193558D01*
X499355Y194324D01*
X499897Y195262D01*
X500177Y196309D01*
Y197392D01*
X499897Y198438D01*
X499355Y199376D01*
X498589Y200143D01*
X497651Y200684D01*
X496605Y200965D01*
D02*
G37*
G36*
X518967Y190094D02*
X517884D01*
X516837Y189814D01*
X515899Y189272D01*
X515133Y188506D01*
X514591Y187568D01*
X514311Y186522D01*
Y185439D01*
X514591Y184392D01*
X515133Y183454D01*
X515899Y182688D01*
X516837Y182147D01*
X517884Y181866D01*
X518967D01*
X520013Y182147D01*
X520951Y182688D01*
X521717Y183454D01*
X522259Y184392D01*
X522539Y185439D01*
Y186522D01*
X522259Y187568D01*
X521717Y188506D01*
X520951Y189272D01*
X520013Y189814D01*
X518967Y190094D01*
D02*
G37*
G36*
X496605D02*
X495521D01*
X494475Y189814D01*
X493537Y189272D01*
X492771Y188506D01*
X492229Y187568D01*
X491949Y186522D01*
Y185439D01*
X492229Y184392D01*
X492771Y183454D01*
X493537Y182688D01*
X494475Y182147D01*
X495521Y181866D01*
X496605D01*
X497651Y182147D01*
X498589Y182688D01*
X499355Y183454D01*
X499897Y184392D01*
X500177Y185439D01*
Y186522D01*
X499897Y187568D01*
X499355Y188506D01*
X498589Y189272D01*
X497651Y189814D01*
X496605Y190094D01*
D02*
G37*
G36*
X-42701Y181398D02*
X-55299D01*
Y177657D01*
Y174508D01*
X-42701D01*
Y175065D01*
X-18922D01*
X-17772Y173915D01*
Y173648D01*
X-17502Y172996D01*
X-17004Y172498D01*
X-16352Y172228D01*
X-15648D01*
X-14996Y172498D01*
X-14498Y172996D01*
X-14228Y173648D01*
Y174352D01*
X-14498Y175004D01*
X-14996Y175502D01*
X-15648Y175772D01*
X-15915D01*
X-17450Y177306D01*
X-17876Y177591D01*
X-18378Y177691D01*
X-42701D01*
Y178215D01*
X-9067D01*
X-8878Y178026D01*
X-8226Y177756D01*
X-7522D01*
X-6870Y178026D01*
X-6372Y178524D01*
X-6102Y179175D01*
Y179880D01*
X-6372Y180531D01*
X-6870Y181029D01*
X-7522Y181299D01*
X-8226D01*
X-8878Y181029D01*
X-9067Y180840D01*
X-42701D01*
Y181398D01*
D02*
G37*
G36*
X518967Y179224D02*
X517884D01*
X516837Y178944D01*
X515899Y178402D01*
X515133Y177636D01*
X514591Y176698D01*
X514311Y175652D01*
Y174569D01*
X514591Y173522D01*
X515133Y172584D01*
X515899Y171818D01*
X516837Y171276D01*
X517884Y170996D01*
X518967D01*
X520013Y171276D01*
X520951Y171818D01*
X521717Y172584D01*
X522259Y173522D01*
X522539Y174569D01*
Y175652D01*
X522259Y176698D01*
X521717Y177636D01*
X520951Y178402D01*
X520013Y178944D01*
X518967Y179224D01*
D02*
G37*
G36*
X496605D02*
X495521D01*
X494475Y178944D01*
X493537Y178402D01*
X492771Y177636D01*
X492229Y176698D01*
X491949Y175652D01*
Y174569D01*
X492229Y173522D01*
X492771Y172584D01*
X493537Y171818D01*
X494475Y171276D01*
X495521Y170996D01*
X496605D01*
X497651Y171276D01*
X498589Y171818D01*
X499355Y172584D01*
X499897Y173522D01*
X500177Y174569D01*
Y175652D01*
X499897Y176698D01*
X499355Y177636D01*
X498589Y178402D01*
X497651Y178944D01*
X496605Y179224D01*
D02*
G37*
G36*
X-42701Y171949D02*
X-55299D01*
Y168209D01*
Y165059D01*
X-42701D01*
Y165652D01*
X-34157D01*
X-34004Y165498D01*
X-33352Y165228D01*
X-32648D01*
X-31996Y165498D01*
X-31498Y165996D01*
X-31228Y166648D01*
Y167352D01*
X-31498Y168004D01*
X-31721Y168227D01*
X-31514Y168727D01*
X-26232D01*
X-26004Y168498D01*
X-25352Y168228D01*
X-24648D01*
X-23996Y168498D01*
X-23498Y168996D01*
X-23228Y169648D01*
Y170352D01*
X-23498Y171004D01*
X-23996Y171502D01*
X-24648Y171772D01*
X-25352D01*
X-26004Y171502D01*
X-26153Y171352D01*
X-42701D01*
Y171949D01*
D02*
G37*
G36*
X518967Y168354D02*
X517884D01*
X516837Y168074D01*
X515899Y167532D01*
X515133Y166766D01*
X514591Y165828D01*
X514311Y164782D01*
Y163698D01*
X514591Y162652D01*
X515133Y161714D01*
X515899Y160948D01*
X516837Y160406D01*
X517884Y160126D01*
X518967D01*
X520013Y160406D01*
X520951Y160948D01*
X521717Y161714D01*
X522259Y162652D01*
X522539Y163698D01*
Y164782D01*
X522259Y165828D01*
X521717Y166766D01*
X520951Y167532D01*
X520013Y168074D01*
X518967Y168354D01*
D02*
G37*
G36*
X496605Y168354D02*
X495521D01*
X494475Y168074D01*
X493537Y167532D01*
X492771Y166766D01*
X492229Y165828D01*
X491949Y164782D01*
Y163698D01*
X492229Y162652D01*
X492771Y161714D01*
X493537Y160948D01*
X493771Y160813D01*
X493637Y160313D01*
X491000D01*
X490497Y160213D01*
X490071Y159929D01*
X487456Y157313D01*
X469192D01*
X469004Y157502D01*
X468352Y157772D01*
X467648D01*
X466996Y157502D01*
X466498Y157004D01*
X466228Y156352D01*
Y155648D01*
X466498Y154996D01*
X466996Y154498D01*
X467648Y154228D01*
X468352D01*
X469004Y154498D01*
X469192Y154687D01*
X488000D01*
X488503Y154787D01*
X488929Y155071D01*
X491544Y157687D01*
X494346D01*
X494475Y157204D01*
X493537Y156662D01*
X492771Y155896D01*
X492229Y154958D01*
X491949Y153912D01*
Y152828D01*
X492229Y151782D01*
X492771Y150844D01*
X493537Y150078D01*
X493996Y149813D01*
X493862Y149313D01*
X491000D01*
X490497Y149213D01*
X490071Y148928D01*
X489456Y148313D01*
X469192D01*
X469004Y148502D01*
X468352Y148772D01*
X467648D01*
X466996Y148502D01*
X466498Y148004D01*
X466228Y147352D01*
Y146648D01*
X466498Y145996D01*
X466996Y145498D01*
X467648Y145228D01*
X468352D01*
X469004Y145498D01*
X469192Y145687D01*
X490000D01*
X490503Y145787D01*
X490929Y146072D01*
X491544Y146687D01*
X494087D01*
X494221Y146187D01*
X493537Y145792D01*
X492771Y145026D01*
X492229Y144088D01*
X491949Y143042D01*
Y141958D01*
X492229Y140912D01*
X492771Y139974D01*
X493537Y139208D01*
X494475Y138666D01*
X495521Y138386D01*
X496605D01*
X497651Y138666D01*
X498589Y139208D01*
X499355Y139974D01*
X499897Y140912D01*
X500177Y141958D01*
Y143042D01*
X499897Y144088D01*
X499355Y145026D01*
X498589Y145792D01*
X497905Y146187D01*
X498039Y146687D01*
X498607D01*
X503722Y141571D01*
X503722Y141571D01*
X504148Y141287D01*
X504651Y141187D01*
X505155D01*
X505289Y140687D01*
X504718Y140357D01*
X503952Y139591D01*
X503410Y138653D01*
X503130Y137607D01*
Y136523D01*
X503410Y135477D01*
X503952Y134539D01*
X504718Y133773D01*
X505656Y133231D01*
X506703Y132951D01*
X507786D01*
X508832Y133231D01*
X509770Y133773D01*
X510536Y134539D01*
X511078Y135477D01*
X511358Y136523D01*
Y137607D01*
X511078Y138653D01*
X510536Y139591D01*
X509770Y140357D01*
X509199Y140687D01*
X509333Y141187D01*
X514518D01*
X514591Y140912D01*
X515133Y139974D01*
X515899Y139208D01*
X516837Y138666D01*
X517884Y138386D01*
X518967D01*
X520013Y138666D01*
X520951Y139208D01*
X521717Y139974D01*
X522259Y140912D01*
X522539Y141958D01*
Y143042D01*
X522259Y144088D01*
X521717Y145026D01*
X520951Y145792D01*
X520013Y146334D01*
X518967Y146614D01*
X517884D01*
X516837Y146334D01*
X515899Y145792D01*
X515133Y145026D01*
X514591Y144088D01*
X514518Y143813D01*
X509333D01*
X509199Y144313D01*
X509770Y144643D01*
X510536Y145409D01*
X511078Y146347D01*
X511358Y147393D01*
Y148477D01*
X511078Y149523D01*
X510536Y150461D01*
X509770Y151227D01*
X509199Y151557D01*
X509333Y152057D01*
X514518D01*
X514591Y151782D01*
X515133Y150844D01*
X515899Y150078D01*
X516837Y149536D01*
X517884Y149256D01*
X518967D01*
X520013Y149536D01*
X520951Y150078D01*
X521717Y150844D01*
X522259Y151782D01*
X522539Y152828D01*
Y153912D01*
X522259Y154958D01*
X521717Y155896D01*
X520951Y156662D01*
X520013Y157204D01*
X518967Y157484D01*
X517884D01*
X516837Y157204D01*
X515899Y156662D01*
X515133Y155896D01*
X514591Y154958D01*
X514518Y154683D01*
X509333D01*
X509199Y155183D01*
X509770Y155513D01*
X510536Y156279D01*
X511078Y157217D01*
X511358Y158264D01*
Y159347D01*
X511078Y160393D01*
X510536Y161331D01*
X509770Y162097D01*
X508832Y162639D01*
X507786Y162919D01*
X506703D01*
X505656Y162639D01*
X504718Y162097D01*
X503952Y161331D01*
X503410Y160393D01*
X503130Y159347D01*
Y158264D01*
X503410Y157217D01*
X503952Y156279D01*
X504718Y155513D01*
X505289Y155183D01*
X505155Y154683D01*
X504417D01*
X499172Y159929D01*
X498746Y160213D01*
X498426Y160277D01*
X498338Y160803D01*
X498589Y160948D01*
X499355Y161714D01*
X499897Y162652D01*
X500177Y163698D01*
Y164782D01*
X499897Y165828D01*
X499355Y166766D01*
X498589Y167532D01*
X497651Y168074D01*
X496605Y168354D01*
D02*
G37*
G36*
X-42701Y162500D02*
X-55299D01*
Y158760D01*
Y155610D01*
X-42701D01*
Y158760D01*
Y162500D01*
D02*
G37*
G36*
Y153051D02*
X-55299D01*
Y149311D01*
Y146161D01*
X-42701D01*
Y149311D01*
Y153051D01*
D02*
G37*
G36*
X496605Y135744D02*
X495521D01*
X494475Y135464D01*
X493537Y134922D01*
X492771Y134156D01*
X492229Y133218D01*
X491949Y132172D01*
Y131088D01*
X492229Y130042D01*
X492771Y129104D01*
X493046Y128828D01*
X492839Y128328D01*
X485119D01*
X485119Y128328D01*
X484617Y128228D01*
X484191Y127944D01*
X484191Y127944D01*
X474275Y118028D01*
X466339D01*
Y118286D01*
X466069Y118937D01*
X465570Y119435D01*
X464919Y119705D01*
X464215D01*
X463563Y119435D01*
X463065Y118937D01*
X462795Y118286D01*
Y117581D01*
X463065Y116929D01*
X463563Y116431D01*
X464050Y116230D01*
Y115700D01*
X463563Y115498D01*
X463065Y115000D01*
X462795Y114348D01*
Y113644D01*
X463065Y112993D01*
X463563Y112494D01*
X464215Y112224D01*
X464919D01*
X465570Y112494D01*
X466069Y112993D01*
X466339Y113644D01*
Y113901D01*
X475441D01*
X475943Y114001D01*
X476369Y114286D01*
X486285Y124201D01*
X492979D01*
X493186Y123701D01*
X492771Y123286D01*
X492229Y122348D01*
X491949Y121301D01*
Y120218D01*
X492229Y119172D01*
X492771Y118234D01*
X493537Y117468D01*
X494475Y116926D01*
X495521Y116646D01*
X496605D01*
X497651Y116926D01*
X498589Y117468D01*
X499355Y118234D01*
X499897Y119172D01*
X500177Y120218D01*
Y121301D01*
X499897Y122348D01*
X499355Y123286D01*
X498589Y124052D01*
X497651Y124594D01*
X496890Y124798D01*
X496737Y125308D01*
X497013Y125702D01*
X503130D01*
Y125653D01*
X503410Y124607D01*
X503952Y123669D01*
X504718Y122903D01*
X505656Y122361D01*
X506703Y122081D01*
X507786D01*
X508832Y122361D01*
X509770Y122903D01*
X510536Y123669D01*
X511078Y124607D01*
X511358Y125653D01*
Y126736D01*
X511078Y127783D01*
X510536Y128721D01*
X509770Y129487D01*
X508832Y130029D01*
X507786Y130309D01*
X506703D01*
X505656Y130029D01*
X504718Y129487D01*
X503952Y128721D01*
X503725Y128328D01*
X499287D01*
X499080Y128828D01*
X499355Y129104D01*
X499897Y130042D01*
X500177Y131088D01*
Y132172D01*
X499897Y133218D01*
X499355Y134156D01*
X498589Y134922D01*
X497651Y135464D01*
X496605Y135744D01*
D02*
G37*
G36*
X518967D02*
X517884D01*
X516837Y135464D01*
X515899Y134922D01*
X515133Y134156D01*
X514591Y133218D01*
X514311Y132172D01*
Y131088D01*
X514591Y130042D01*
X515133Y129104D01*
X515899Y128338D01*
X516837Y127796D01*
X517884Y127516D01*
X518967D01*
X520013Y127796D01*
X520951Y128338D01*
X521717Y129104D01*
X522259Y130042D01*
X522539Y131088D01*
Y132172D01*
X522259Y133218D01*
X521717Y134156D01*
X520951Y134922D01*
X520013Y135464D01*
X518967Y135744D01*
D02*
G37*
G36*
Y124874D02*
X517884D01*
X516837Y124594D01*
X515899Y124052D01*
X515133Y123286D01*
X514591Y122348D01*
X514311Y121301D01*
Y120218D01*
X514591Y119172D01*
X515133Y118234D01*
X515899Y117468D01*
X516837Y116926D01*
X517884Y116646D01*
X518967D01*
X520013Y116926D01*
X520951Y117468D01*
X521717Y118234D01*
X522259Y119172D01*
X522539Y120218D01*
Y121301D01*
X522259Y122348D01*
X521717Y123286D01*
X520951Y124052D01*
X520013Y124594D01*
X518967Y124874D01*
D02*
G37*
G36*
X-42701Y143602D02*
X-55299D01*
Y139862D01*
Y136713D01*
X-42701D01*
Y137881D01*
X-42347Y137952D01*
X-42134Y138094D01*
X9927D01*
X29621Y118400D01*
X30047Y118115D01*
X30549Y118015D01*
X49409D01*
Y117758D01*
X49679Y117107D01*
X50178Y116608D01*
X50829Y116339D01*
X51534D01*
X52185Y116608D01*
X52683Y117107D01*
X52953Y117758D01*
Y118463D01*
X52683Y119114D01*
X52185Y119612D01*
X51698Y119814D01*
Y120344D01*
X52185Y120545D01*
X52683Y121044D01*
X52953Y121695D01*
Y122400D01*
X52683Y123051D01*
X52185Y123549D01*
X51534Y123819D01*
X50829D01*
X50178Y123549D01*
X49679Y123051D01*
X49409Y122400D01*
Y122142D01*
X31715D01*
X12021Y141836D01*
X11595Y142121D01*
X11092Y142221D01*
X-42134D01*
X-42347Y142363D01*
X-42701Y142434D01*
Y143602D01*
D02*
G37*
G36*
X507786Y119439D02*
X506703D01*
X505656Y119159D01*
X504718Y118617D01*
X503952Y117851D01*
X503410Y116913D01*
X503130Y115866D01*
Y114783D01*
X503410Y113737D01*
X503952Y112799D01*
X504718Y112033D01*
X505656Y111491D01*
X506703Y111211D01*
X507786D01*
X508832Y111491D01*
X509770Y112033D01*
X510536Y112799D01*
X511078Y113737D01*
X511358Y114783D01*
Y115866D01*
X511078Y116913D01*
X510536Y117851D01*
X509770Y118617D01*
X508832Y119159D01*
X507786Y119439D01*
D02*
G37*
G36*
X518967Y114004D02*
X517884D01*
X516837Y113724D01*
X515899Y113182D01*
X515133Y112416D01*
X514591Y111478D01*
X514311Y110431D01*
Y109348D01*
X514591Y108302D01*
X515133Y107364D01*
X515899Y106598D01*
X516837Y106056D01*
X517884Y105776D01*
X518967D01*
X520013Y106056D01*
X520951Y106598D01*
X521717Y107364D01*
X522259Y108302D01*
X522539Y109348D01*
Y110431D01*
X522259Y111478D01*
X521717Y112416D01*
X520951Y113182D01*
X520013Y113724D01*
X518967Y114004D01*
D02*
G37*
G36*
X500177D02*
X491949D01*
Y105776D01*
X500177D01*
Y114004D01*
D02*
G37*
%LPD*%
D13*
X-49000Y264567D02*
D03*
Y261417D02*
D03*
Y258268D02*
D03*
Y255118D02*
D03*
Y251969D02*
D03*
Y248819D02*
D03*
Y245669D02*
D03*
Y242520D02*
D03*
Y233071D02*
D03*
Y229921D02*
D03*
Y226772D02*
D03*
Y223622D02*
D03*
Y220472D02*
D03*
Y217323D02*
D03*
Y214173D02*
D03*
Y211024D02*
D03*
Y207874D02*
D03*
Y204724D02*
D03*
Y201575D02*
D03*
Y198425D02*
D03*
Y182677D02*
D03*
Y179528D02*
D03*
Y176378D02*
D03*
Y173228D02*
D03*
Y170079D02*
D03*
Y166929D02*
D03*
Y163779D02*
D03*
Y160630D02*
D03*
Y157480D02*
D03*
Y154331D02*
D03*
Y151181D02*
D03*
Y148031D02*
D03*
Y144882D02*
D03*
Y141732D02*
D03*
Y138583D02*
D03*
Y135433D02*
D03*
Y132283D02*
D03*
Y129134D02*
D03*
Y239370D02*
D03*
Y236221D02*
D03*
D19*
Y129134D02*
X-25485D01*
X-23000Y126649D01*
X-49000Y170079D02*
X-48961Y170039D01*
X-25039D01*
X-25000Y170000D01*
X-48965Y166965D02*
X-33035D01*
X-33000Y167000D01*
X-49000Y166929D02*
X-48965Y166965D01*
X-18378Y176378D02*
X-16000Y174000D01*
X-49000Y176378D02*
X-18378D01*
X-49000Y132283D02*
X-7874D01*
X-49000Y179528D02*
X-7874D01*
D20*
X495405Y121418D02*
Y124928D01*
X494819Y125514D02*
X495405Y124928D01*
X485741Y125514D02*
X494819D01*
X495405Y121418D02*
X496063Y120760D01*
X30549Y119328D02*
X49963D01*
X-42608Y139407D02*
X10470D01*
X30549Y119328D01*
X11092Y140908D02*
X31171Y120829D01*
X49963D01*
X-42608Y140908D02*
X11092D01*
X468000Y147000D02*
X490000D01*
X491000Y148000D01*
X499151D01*
X488000Y156000D02*
X491000Y159000D01*
X468000Y156000D02*
X488000D01*
X491000Y159000D02*
X498243D01*
X499151Y148000D02*
X504651Y142500D01*
X518425D01*
X498243Y159000D02*
X503873Y153370D01*
X518425D01*
X485119Y127015D02*
X506424D01*
X507244Y126195D01*
X465785Y115214D02*
X475441D01*
X485741Y125514D01*
X464567Y117933D02*
X465785Y116715D01*
X474819D01*
X485119Y127015D01*
X464567Y113996D02*
X465785Y115214D01*
X49963Y120829D02*
X51181Y122047D01*
X49963Y119328D02*
X51181Y118110D01*
X-42850Y139165D02*
X-42608Y139407D01*
X-48418Y139165D02*
X-42850D01*
X-49000Y138583D02*
X-48418Y139165D01*
Y141150D02*
X-42850D01*
X-49000Y141732D02*
X-48418Y141150D01*
X-42850D02*
X-42608Y140908D01*
X-42608Y237045D02*
X-3113D01*
X-42608Y238546D02*
X-3734D01*
X25006Y267286D01*
X25627Y265785D02*
X38152D01*
X-3113Y237045D02*
X25627Y265785D01*
X25006Y267286D02*
X38152D01*
X15630Y245312D02*
X18467D01*
X-2709Y229097D02*
X15008Y246813D01*
X18467D01*
X-42608Y227596D02*
X-2087D01*
X15630Y245312D01*
X-42608Y229097D02*
X-2709D01*
X-42608Y219648D02*
X5963D01*
X13443Y227128D01*
X18467D01*
X14065Y225627D02*
X18467D01*
X6585Y218147D02*
X14065Y225627D01*
X-42608Y218147D02*
X6585D01*
X19685Y185039D02*
X20889Y183835D01*
Y187745D02*
Y187758D01*
X19685Y186540D02*
X20889Y187745D01*
Y183821D02*
Y183835D01*
X4559Y200750D02*
X18769Y186540D01*
X19685D01*
X3937Y199249D02*
X18147Y185039D01*
X19685D01*
X-42608Y200750D02*
X4559D01*
X-42608Y199249D02*
X3937D01*
X-48418Y200993D02*
X-42850D01*
X-42608Y200750D01*
X-48418Y199007D02*
X-42850D01*
X-49000Y201575D02*
X-48418Y200993D01*
X-49000Y198425D02*
X-48418Y199007D01*
X-42850D02*
X-42608Y199249D01*
X-10711Y208698D02*
X18467D01*
X-10711Y208698D02*
X-10711Y208698D01*
X-42850Y208456D02*
X-42608Y208698D01*
X-10711D01*
X18467Y208698D02*
X19685Y207480D01*
X-42850Y210441D02*
X-42608Y210199D01*
X18467Y210199D02*
X19685Y211417D01*
X-49000Y207874D02*
X-48418Y208456D01*
X-49000Y211024D02*
X-48418Y210441D01*
X-42608Y210199D02*
X-11332D01*
X-11332Y210199D01*
X18467D01*
X-48418Y210441D02*
X-42850D01*
X-48418Y208456D02*
X-42850D01*
X18467Y227128D02*
X19685Y228346D01*
X18467Y225627D02*
X19685Y224410D01*
X-42850Y219890D02*
X-42608Y219648D01*
X-49000Y217323D02*
X-48418Y217905D01*
X-42850D02*
X-42608Y218147D01*
X-49000Y220472D02*
X-48418Y219890D01*
X-42850D01*
X-48418Y217905D02*
X-42850D01*
X18467Y245312D02*
X19685Y244094D01*
X18467Y246813D02*
X19685Y248031D01*
X38152Y267286D02*
X39370Y268504D01*
X38152Y265785D02*
X39370Y264567D01*
X-48418Y227354D02*
X-42850D01*
X-42608Y227596D01*
X-49000Y229921D02*
X-48418Y229339D01*
X-42850D02*
X-42608Y229097D01*
X-48418Y229339D02*
X-42850D01*
X-49000Y226772D02*
X-48418Y227354D01*
Y238788D02*
X-42850D01*
X-49000Y239370D02*
X-48418Y238788D01*
X-49000Y236221D02*
X-48418Y236803D01*
X-42850D02*
X-42608Y237045D01*
X-48418Y236803D02*
X-42850D01*
Y238788D02*
X-42608Y238546D01*
D21*
X-49000Y245669D02*
X-3631D01*
X-49000Y251969D02*
X-6566D01*
D22*
X-49000Y258268D02*
X-9859D01*
D23*
X518425Y283811D02*
D03*
Y272941D02*
D03*
Y262071D02*
D03*
Y251201D02*
D03*
Y240331D02*
D03*
Y229461D02*
D03*
Y218590D02*
D03*
Y207720D02*
D03*
Y196850D02*
D03*
Y185980D02*
D03*
Y175110D02*
D03*
Y164240D02*
D03*
Y153370D02*
D03*
Y142500D02*
D03*
Y131630D02*
D03*
Y120760D02*
D03*
Y109890D02*
D03*
X507244Y278376D02*
D03*
Y267506D02*
D03*
Y256636D02*
D03*
Y245766D02*
D03*
Y234896D02*
D03*
Y224026D02*
D03*
Y213156D02*
D03*
Y202285D02*
D03*
Y191415D02*
D03*
Y180545D02*
D03*
Y169675D02*
D03*
Y158805D02*
D03*
Y147935D02*
D03*
Y137065D02*
D03*
Y126195D02*
D03*
Y115325D02*
D03*
X496063Y283811D02*
D03*
Y272941D02*
D03*
Y262071D02*
D03*
Y251201D02*
D03*
Y240331D02*
D03*
Y120760D02*
D03*
Y131630D02*
D03*
Y142500D02*
D03*
Y153370D02*
D03*
Y164240D02*
D03*
Y175110D02*
D03*
Y185980D02*
D03*
Y196850D02*
D03*
Y207720D02*
D03*
Y218590D02*
D03*
Y229461D02*
D03*
D24*
X507244Y317146D02*
D03*
Y76555D02*
D03*
D25*
X496063Y109890D02*
D03*
D26*
X-35000Y135433D02*
D03*
Y144882D02*
D03*
Y154331D02*
D03*
X-37000Y163779D02*
D03*
X-35000Y173228D02*
D03*
Y182677D02*
D03*
Y204724D02*
D03*
Y214173D02*
D03*
Y223622D02*
D03*
Y233071D02*
D03*
Y242520D02*
D03*
Y248819D02*
D03*
Y255000D02*
D03*
Y264567D02*
D03*
X-23000Y126649D02*
D03*
X468000Y147000D02*
D03*
X-25000Y170000D02*
D03*
X-33000Y167000D02*
D03*
X-16000Y174000D02*
D03*
X468000Y156000D02*
D03*
X464567Y117933D02*
D03*
Y113996D02*
D03*
X51181Y118110D02*
D03*
Y122047D02*
D03*
X-7874Y132283D02*
D03*
Y179528D02*
D03*
X-3631Y245669D02*
D03*
X-6566Y251969D02*
D03*
X-9859Y258268D02*
D03*
X20889Y187758D02*
D03*
Y183821D02*
D03*
X19685Y211417D02*
D03*
Y207480D02*
D03*
Y228346D02*
D03*
Y224410D02*
D03*
X19685Y248031D02*
D03*
Y244094D02*
D03*
X39370Y264567D02*
D03*
Y268504D02*
D03*
M02*
