G04*
G04 #@! TF.GenerationSoftware,Altium Limited,Altium Designer,22.7.1 (60)*
G04*
G04 Layer_Physical_Order=1*
G04 Layer_Color=255*
%FSLAX25Y25*%
%MOIN*%
G70*
G04*
G04 #@! TF.SameCoordinates,08797D1C-2854-47D2-879A-D974AA26C4BC*
G04*
G04*
G04 #@! TF.FilePolarity,Positive*
G04*
G01*
G75*
%ADD13R,0.11024X0.02165*%
%ADD19C,0.01000*%
%ADD20C,0.01001*%
%ADD21C,0.01968*%
%ADD22C,0.02500*%
%ADD23C,0.06653*%
%ADD24C,0.18740*%
%ADD25R,0.06653X0.06653*%
%ADD26C,0.01968*%
G36*
X549386Y391431D02*
X550476Y390980D01*
X551458Y390324D01*
X552292Y389489D01*
X552948Y388508D01*
X553400Y387417D01*
X553630Y386260D01*
Y385669D01*
Y8032D01*
Y7441D01*
X553400Y6284D01*
X552948Y5193D01*
X552292Y4212D01*
X551458Y3377D01*
X550476Y2721D01*
X549386Y2269D01*
X548228Y2039D01*
X8100D01*
X8087Y2037D01*
X8074Y2039D01*
X7487Y2032D01*
X6333Y2246D01*
X5242Y2682D01*
X4258Y3322D01*
X3417Y4142D01*
X2753Y5110D01*
X2290Y6190D01*
X2046Y7338D01*
X2039Y7913D01*
Y115437D01*
X1884Y116217D01*
X1442Y116879D01*
X780Y117321D01*
X-0Y117476D01*
X-23933D01*
X-23983Y117466D01*
X-24033Y117474D01*
X-24419Y117455D01*
X-24566Y117418D01*
X-24717D01*
X-25474Y117267D01*
X-25659Y117191D01*
X-25856Y117151D01*
X-26569Y116856D01*
X-26736Y116744D01*
X-26922Y116668D01*
X-27564Y116239D01*
X-27706Y116097D01*
X-27873Y115985D01*
X-28418Y115439D01*
X-28530Y115272D01*
X-28672Y115130D01*
X-29101Y114489D01*
X-29177Y114303D01*
X-29289Y114136D01*
X-29585Y113423D01*
X-29624Y113226D01*
X-29700Y113041D01*
X-29851Y112284D01*
Y112133D01*
X-29888Y111986D01*
X-29907Y111600D01*
X-29899Y111550D01*
X-29909Y111500D01*
Y109602D01*
X-32838D01*
Y121343D01*
X-32848Y121392D01*
X-32841Y121443D01*
X-32860Y121828D01*
X-32896Y121975D01*
Y122126D01*
X-33047Y122883D01*
X-33124Y123069D01*
X-33163Y123266D01*
X-33458Y123979D01*
X-33570Y124146D01*
X-33647Y124331D01*
X-34076Y124973D01*
X-34218Y125115D01*
X-34329Y125282D01*
X-34875Y125828D01*
X-35042Y125939D01*
X-35184Y126081D01*
X-35826Y126510D01*
X-36011Y126587D01*
X-36178Y126699D01*
X-36891Y126994D01*
X-37088Y127033D01*
X-37274Y127110D01*
X-38031Y127260D01*
X-38182D01*
X-38328Y127297D01*
X-38714Y127316D01*
X-38765Y127309D01*
X-38814Y127319D01*
X-42701D01*
Y127821D01*
X-24973D01*
X-24639Y127321D01*
X-24772Y127002D01*
Y126297D01*
X-24502Y125646D01*
X-24004Y125147D01*
X-23352Y124878D01*
X-22648D01*
X-21996Y125147D01*
X-21807Y125337D01*
X-1193D01*
X16072Y108072D01*
X16498Y107787D01*
X17000Y107687D01*
X450799D01*
X454415Y104072D01*
X454841Y103787D01*
X455343Y103687D01*
X513535D01*
X514038Y103787D01*
X514464Y104072D01*
X516590Y106199D01*
X516837Y106056D01*
X517884Y105776D01*
X518967D01*
X520013Y106056D01*
X520951Y106598D01*
X521717Y107364D01*
X522259Y108302D01*
X522539Y109348D01*
Y110431D01*
X522259Y111478D01*
X521717Y112416D01*
X520951Y113182D01*
X520013Y113724D01*
X518967Y114004D01*
X517884D01*
X516837Y113724D01*
X515899Y113182D01*
X515133Y112416D01*
X514591Y111478D01*
X514311Y110431D01*
Y109348D01*
X514591Y108302D01*
X514734Y108055D01*
X512992Y106313D01*
X500177D01*
Y114004D01*
X500674Y114012D01*
X503336D01*
X503410Y113737D01*
X503952Y112799D01*
X504718Y112033D01*
X505656Y111491D01*
X506703Y111211D01*
X507786D01*
X508832Y111491D01*
X509770Y112033D01*
X510536Y112799D01*
X511078Y113737D01*
X511358Y114783D01*
Y115866D01*
X511078Y116913D01*
X510536Y117851D01*
X509770Y118617D01*
X508832Y119159D01*
X507786Y119439D01*
X506703D01*
X505656Y119159D01*
X504718Y118617D01*
X503952Y117851D01*
X503410Y116913D01*
X503336Y116637D01*
X498151D01*
X498017Y117137D01*
X498589Y117468D01*
X499355Y118234D01*
X499897Y119172D01*
X500177Y120218D01*
Y121301D01*
X499897Y122348D01*
X499355Y123286D01*
X498937Y123704D01*
X498936Y123807D01*
X499111Y124237D01*
X499433Y124301D01*
X499859Y124586D01*
X502833Y127560D01*
X503281Y127302D01*
X503130Y126736D01*
Y125653D01*
X503410Y124607D01*
X503952Y123669D01*
X504718Y122903D01*
X505656Y122361D01*
X506703Y122081D01*
X507786D01*
X508832Y122361D01*
X509770Y122903D01*
X510536Y123669D01*
X511078Y124607D01*
X511358Y125653D01*
Y126183D01*
X511858Y126390D01*
X513733Y124516D01*
X514159Y124231D01*
X514661Y124131D01*
X515385D01*
Y124016D01*
X515465Y123617D01*
X515133Y123286D01*
X514591Y122348D01*
X514311Y121301D01*
Y120218D01*
X514591Y119172D01*
X515133Y118234D01*
X515899Y117468D01*
X516837Y116926D01*
X517884Y116646D01*
X518967D01*
X520013Y116926D01*
X520951Y117468D01*
X521717Y118234D01*
X522259Y119172D01*
X522539Y120218D01*
Y121301D01*
X522259Y122348D01*
X521717Y123286D01*
X520951Y124052D01*
X520013Y124594D01*
X518967Y124874D01*
X518008D01*
X517911Y125361D01*
X517627Y125787D01*
X517218Y126195D01*
X517627Y126603D01*
X517911Y127029D01*
X518008Y127516D01*
X518967D01*
X520013Y127796D01*
X520951Y128338D01*
X521717Y129104D01*
X522259Y130042D01*
X522539Y131088D01*
Y132172D01*
X522259Y133218D01*
X521717Y134156D01*
X520951Y134922D01*
X520013Y135464D01*
X518967Y135744D01*
X517884D01*
X516837Y135464D01*
X515899Y134922D01*
X515133Y134156D01*
X514591Y133218D01*
X514311Y132172D01*
Y131088D01*
X514533Y130259D01*
X514085Y130000D01*
X510706Y133379D01*
X510333Y133628D01*
X510264Y133759D01*
X510189Y134192D01*
X510536Y134539D01*
X511078Y135477D01*
X511358Y136523D01*
Y137607D01*
X511078Y138653D01*
X510536Y139591D01*
X509770Y140357D01*
X508832Y140899D01*
X507786Y141179D01*
X506703D01*
X505656Y140899D01*
X504718Y140357D01*
X503952Y139591D01*
X503410Y138653D01*
X503173Y137766D01*
X497457D01*
X497172Y138099D01*
X497309Y138575D01*
X497651Y138666D01*
X498589Y139208D01*
X499355Y139974D01*
X499897Y140912D01*
X500177Y141958D01*
Y143042D01*
X499897Y144088D01*
X499355Y145026D01*
X498589Y145792D01*
X498018Y146122D01*
X498152Y146622D01*
X503337D01*
X503410Y146347D01*
X503952Y145409D01*
X504718Y144643D01*
X505656Y144101D01*
X506703Y143821D01*
X507786D01*
X508832Y144101D01*
X509770Y144643D01*
X510536Y145409D01*
X511078Y146347D01*
X511358Y147393D01*
Y148477D01*
X511078Y149523D01*
X510536Y150461D01*
X509770Y151227D01*
X508832Y151769D01*
X507786Y152049D01*
X506703D01*
X505656Y151769D01*
X504718Y151227D01*
X503952Y150461D01*
X503410Y149523D01*
X503337Y149248D01*
X498152D01*
X498018Y149748D01*
X498589Y150078D01*
X499355Y150844D01*
X499897Y151782D01*
X500177Y152828D01*
Y153912D01*
X499897Y154958D01*
X499355Y155896D01*
X498589Y156662D01*
X498017Y156992D01*
X498151Y157492D01*
X503336D01*
X503410Y157217D01*
X503952Y156279D01*
X504718Y155513D01*
X505656Y154971D01*
X506703Y154691D01*
X507786D01*
X508832Y154971D01*
X509770Y155513D01*
X510536Y156279D01*
X511078Y157217D01*
X511358Y158264D01*
Y159347D01*
X511078Y160393D01*
X510536Y161331D01*
X509770Y162097D01*
X508832Y162639D01*
X507786Y162919D01*
X506703D01*
X505656Y162639D01*
X504718Y162097D01*
X503952Y161331D01*
X503410Y160393D01*
X503336Y160118D01*
X498151D01*
X498017Y160618D01*
X498589Y160948D01*
X499355Y161714D01*
X499897Y162652D01*
X500177Y163698D01*
Y164782D01*
X499897Y165828D01*
X499355Y166766D01*
X498589Y167532D01*
X497651Y168074D01*
X496605Y168354D01*
X495521D01*
X494475Y168074D01*
X494229Y167932D01*
X492485Y169675D01*
X494229Y171419D01*
X494475Y171276D01*
X495521Y170996D01*
X496605D01*
X497651Y171276D01*
X498589Y171818D01*
X499355Y172584D01*
X499897Y173522D01*
X500177Y174569D01*
Y175138D01*
X500677Y175345D01*
X502661Y173361D01*
X503087Y173077D01*
X503589Y172977D01*
X508612D01*
X511039Y170550D01*
X515019Y166569D01*
X514591Y165828D01*
X514311Y164782D01*
Y163698D01*
X514591Y162652D01*
X515133Y161714D01*
X515899Y160948D01*
X516837Y160406D01*
X517884Y160126D01*
X518967D01*
X520013Y160406D01*
X520951Y160948D01*
X521717Y161714D01*
X522259Y162652D01*
X522539Y163698D01*
Y164782D01*
X522259Y165828D01*
X521717Y166766D01*
X520951Y167532D01*
X520013Y168074D01*
X518967Y168354D01*
X517884D01*
X517146Y168157D01*
X514542Y170760D01*
X514707Y171302D01*
X514827Y171326D01*
X515253Y171611D01*
X515680Y172037D01*
X515899Y171818D01*
X516837Y171276D01*
X517884Y170996D01*
X518967D01*
X520013Y171276D01*
X520951Y171818D01*
X521717Y172584D01*
X522259Y173522D01*
X522539Y174569D01*
Y175652D01*
X522259Y176698D01*
X521717Y177636D01*
X520951Y178402D01*
X520013Y178944D01*
X518967Y179224D01*
X517884D01*
X516837Y178944D01*
X515899Y178402D01*
X515133Y177636D01*
X514591Y176698D01*
X514311Y175652D01*
Y174569D01*
X514350Y174422D01*
X513781Y173853D01*
X513572D01*
X510706Y176719D01*
X510280Y177004D01*
X509777Y177104D01*
X504755D01*
X499705Y182154D01*
X499279Y182439D01*
X499085Y182477D01*
X498921Y183020D01*
X499355Y183454D01*
X499897Y184392D01*
X500177Y185439D01*
Y186522D01*
X499897Y187568D01*
X499355Y188506D01*
X498589Y189272D01*
X497651Y189814D01*
X496605Y190094D01*
X495521D01*
X494475Y189814D01*
X494229Y189672D01*
X492485Y191415D01*
X494229Y193159D01*
X494475Y193017D01*
X495521Y192736D01*
X496605D01*
X497651Y193017D01*
X498589Y193558D01*
X499355Y194324D01*
X499897Y195262D01*
X500177Y196309D01*
Y196878D01*
X500677Y197085D01*
X502661Y195101D01*
X503087Y194817D01*
X503589Y194717D01*
X508738D01*
X512100Y191354D01*
X512100Y191354D01*
X513718Y189736D01*
X513718Y189736D01*
X514144Y189452D01*
X514646Y189352D01*
X514647Y189352D01*
X515271D01*
X515478Y188852D01*
X515133Y188506D01*
X514591Y187568D01*
X514311Y186522D01*
Y185439D01*
X514591Y184392D01*
X515133Y183454D01*
X515899Y182688D01*
X516837Y182147D01*
X517884Y181866D01*
X518967D01*
X520013Y182147D01*
X520951Y182688D01*
X521717Y183454D01*
X522259Y184392D01*
X522539Y185439D01*
Y186522D01*
X522259Y187568D01*
X521717Y188506D01*
X520951Y189272D01*
X520013Y189814D01*
X518967Y190094D01*
X518586D01*
X518557Y190244D01*
X518272Y190670D01*
X517526Y191415D01*
X518272Y192161D01*
X518557Y192587D01*
X518586Y192736D01*
X518967D01*
X520013Y193017D01*
X520951Y193558D01*
X521717Y194324D01*
X522259Y195262D01*
X522539Y196309D01*
Y197392D01*
X522259Y198438D01*
X521717Y199376D01*
X520951Y200143D01*
X520013Y200684D01*
X518967Y200965D01*
X517884D01*
X516837Y200684D01*
X515899Y200143D01*
X515133Y199376D01*
X514591Y198438D01*
X514311Y197392D01*
Y196309D01*
X514539Y195459D01*
X514090Y195201D01*
X510832Y198459D01*
X510406Y198744D01*
X509903Y198844D01*
X504755D01*
X499705Y203894D01*
X499279Y204179D01*
X499085Y204218D01*
X498921Y204760D01*
X499355Y205194D01*
X499897Y206133D01*
X500177Y207179D01*
Y208262D01*
X499897Y209309D01*
X499355Y210247D01*
X498589Y211013D01*
X497651Y211554D01*
X496605Y211835D01*
X495521D01*
X494475Y211554D01*
X494229Y211412D01*
X492485Y213156D01*
X494229Y214899D01*
X494475Y214757D01*
X495521Y214476D01*
X496605D01*
X497651Y214757D01*
X498589Y215298D01*
X499355Y216064D01*
X499897Y217003D01*
X500177Y218049D01*
Y218438D01*
X500677Y218645D01*
X502481Y216842D01*
X502907Y216557D01*
X503409Y216457D01*
X508971D01*
X510883Y214546D01*
X510883Y214546D01*
X515157Y210271D01*
X515133Y210247D01*
X514591Y209309D01*
X514311Y208262D01*
Y207179D01*
X514591Y206133D01*
X515133Y205194D01*
X515899Y204428D01*
X516837Y203887D01*
X517884Y203606D01*
X518967D01*
X520013Y203887D01*
X520951Y204428D01*
X521717Y205194D01*
X522259Y206133D01*
X522539Y207179D01*
Y208262D01*
X522259Y209309D01*
X521717Y210247D01*
X520951Y211013D01*
X520013Y211554D01*
X518967Y211835D01*
X517884D01*
X517429Y211713D01*
X514382Y214760D01*
X514573Y215222D01*
X514841D01*
X515343Y215322D01*
X515662Y215535D01*
X515899Y215298D01*
X516837Y214757D01*
X517884Y214476D01*
X518967D01*
X520013Y214757D01*
X520951Y215298D01*
X521717Y216064D01*
X522259Y217003D01*
X522539Y218049D01*
Y219132D01*
X522259Y220179D01*
X521717Y221117D01*
X520951Y221883D01*
X520013Y222424D01*
X518967Y222705D01*
X517884D01*
X516837Y222424D01*
X515899Y221883D01*
X515133Y221117D01*
X514591Y220179D01*
X514311Y219132D01*
Y218049D01*
X513847Y217848D01*
X513416D01*
X511065Y220199D01*
X510639Y220484D01*
X510137Y220584D01*
X504575D01*
X503698Y221462D01*
X503698Y221462D01*
X502343Y222816D01*
X502343Y222816D01*
X499525Y225635D01*
X499099Y225919D01*
X499056Y225928D01*
X498891Y226470D01*
X499355Y226935D01*
X499897Y227873D01*
X500177Y228919D01*
Y230002D01*
X499897Y231049D01*
X499355Y231987D01*
X498589Y232753D01*
X497651Y233294D01*
X496605Y233575D01*
X495521D01*
X494475Y233294D01*
X494229Y233152D01*
X492485Y234896D01*
X494229Y236639D01*
X494475Y236497D01*
X495521Y236216D01*
X496605D01*
X497651Y236497D01*
X498589Y237038D01*
X499355Y237805D01*
X499897Y238743D01*
X500177Y239789D01*
Y240872D01*
X499953Y241710D01*
X500401Y241968D01*
X503648Y238722D01*
X504074Y238437D01*
X504576Y238337D01*
X504576Y238337D01*
X508472D01*
X513592Y233217D01*
X514018Y232932D01*
X514521Y232832D01*
X515271D01*
X515478Y232332D01*
X515133Y231987D01*
X514591Y231049D01*
X514311Y230002D01*
Y228919D01*
X514591Y227873D01*
X515133Y226935D01*
X515899Y226168D01*
X516837Y225627D01*
X517884Y225346D01*
X518967D01*
X520013Y225627D01*
X520951Y226168D01*
X521717Y226935D01*
X522259Y227873D01*
X522539Y228919D01*
Y230002D01*
X522259Y231049D01*
X521717Y231987D01*
X520951Y232753D01*
X520013Y233294D01*
X519009Y233563D01*
X518910Y234061D01*
X518626Y234487D01*
X518218Y234896D01*
X518626Y235304D01*
X518910Y235730D01*
X519009Y236228D01*
X520013Y236497D01*
X520951Y237038D01*
X521717Y237805D01*
X522259Y238743D01*
X522539Y239789D01*
Y240872D01*
X522259Y241919D01*
X521717Y242857D01*
X520951Y243623D01*
X520013Y244164D01*
X518967Y244445D01*
X517884D01*
X516837Y244164D01*
X515899Y243623D01*
X515133Y242857D01*
X514591Y241919D01*
X514311Y240872D01*
Y239789D01*
X514591Y238743D01*
X514166Y238479D01*
X510566Y242080D01*
X510140Y242364D01*
X509637Y242464D01*
X505742D01*
X500692Y247515D01*
X500266Y247799D01*
X499763Y247899D01*
X499287D01*
X499080Y248399D01*
X499355Y248675D01*
X499897Y249613D01*
X500177Y250659D01*
Y251742D01*
X499897Y252789D01*
X499355Y253727D01*
X498589Y254493D01*
X497651Y255035D01*
X496605Y255315D01*
X495521D01*
X494475Y255035D01*
X494229Y254892D01*
X492485Y256636D01*
X494229Y258379D01*
X494475Y258237D01*
X495521Y257957D01*
X496605D01*
X497651Y258237D01*
X498589Y258779D01*
X499355Y259545D01*
X499897Y260483D01*
X500177Y261529D01*
Y262613D01*
X499897Y263659D01*
X500322Y263922D01*
X503922Y260322D01*
X504348Y260037D01*
X504851Y259937D01*
X504851Y259937D01*
X508612D01*
X513592Y254957D01*
X513592Y254957D01*
X514018Y254672D01*
X514521Y254572D01*
X515250D01*
X515345Y254095D01*
X515407Y254001D01*
X515133Y253727D01*
X514591Y252789D01*
X514311Y251742D01*
Y250659D01*
X514591Y249613D01*
X515133Y248675D01*
X515899Y247909D01*
X516837Y247367D01*
X517884Y247087D01*
X518967D01*
X520013Y247367D01*
X520951Y247909D01*
X521717Y248675D01*
X522259Y249613D01*
X522539Y250659D01*
Y251742D01*
X522259Y252789D01*
X521717Y253727D01*
X520951Y254493D01*
X520013Y255035D01*
X518967Y255315D01*
X517884D01*
X517865Y255326D01*
X517771Y255802D01*
X517486Y256227D01*
X517078Y256636D01*
X517486Y257044D01*
X517771Y257470D01*
X517865Y257945D01*
X517884Y257957D01*
X518967D01*
X520013Y258237D01*
X520951Y258779D01*
X521717Y259545D01*
X522259Y260483D01*
X522539Y261529D01*
Y262613D01*
X522259Y263659D01*
X521717Y264597D01*
X520951Y265363D01*
X520013Y265905D01*
X518967Y266185D01*
X517884D01*
X516837Y265905D01*
X515899Y265363D01*
X515133Y264597D01*
X514591Y263659D01*
X514311Y262613D01*
Y261529D01*
X514591Y260483D01*
X514166Y260219D01*
X510706Y263680D01*
X510280Y263965D01*
X509777Y264064D01*
X506016D01*
X500966Y269115D01*
X500540Y269399D01*
X500038Y269499D01*
X46622D01*
X46120Y269399D01*
X45694Y269115D01*
X45178Y268599D01*
X41142D01*
Y268856D01*
X40872Y269508D01*
X40374Y270006D01*
X39722Y270276D01*
X39018D01*
X38366Y270006D01*
X37868Y269508D01*
X37598Y268856D01*
Y268151D01*
X37868Y267500D01*
X38366Y267002D01*
X38853Y266800D01*
Y266270D01*
X38366Y266069D01*
X37868Y265570D01*
X37598Y264919D01*
Y264214D01*
X37868Y263563D01*
X38366Y263065D01*
X39018Y262795D01*
X39722D01*
X40374Y263065D01*
X40872Y263563D01*
X41142Y264214D01*
Y264472D01*
X46344D01*
X46846Y264572D01*
X47272Y264857D01*
X47788Y265372D01*
X492839D01*
X493046Y264872D01*
X492771Y264597D01*
X492229Y263659D01*
X491949Y262613D01*
Y261529D01*
X492229Y260483D01*
X492372Y260236D01*
X490835Y258699D01*
X19888D01*
X19386Y258599D01*
X18960Y258315D01*
X504Y239859D01*
X-42134D01*
X-42347Y240001D01*
X-42701Y240071D01*
Y241240D01*
X-55299D01*
Y237500D01*
Y234350D01*
X-42701D01*
Y235519D01*
X-42347Y235590D01*
X-42134Y235732D01*
X1669D01*
X2172Y235832D01*
X2598Y236116D01*
X21054Y254572D01*
X490835D01*
X492372Y253035D01*
X492229Y252789D01*
X491949Y251742D01*
Y250659D01*
X492229Y249613D01*
X492771Y248675D01*
X493046Y248399D01*
X492839Y247899D01*
X26046D01*
X26046Y247899D01*
X24195D01*
X24005Y248027D01*
X23502Y248127D01*
X21457D01*
Y248384D01*
X21187Y249035D01*
X20689Y249533D01*
X20037Y249803D01*
X19333D01*
X18681Y249533D01*
X18183Y249035D01*
X17913Y248384D01*
Y247679D01*
X18183Y247028D01*
X18681Y246530D01*
X19168Y246328D01*
Y245798D01*
X18681Y245596D01*
X18183Y245098D01*
X17913Y244447D01*
Y243742D01*
X18183Y243091D01*
X18681Y242593D01*
X19333Y242323D01*
X20037D01*
X20689Y242593D01*
X21187Y243091D01*
X21457Y243742D01*
Y244000D01*
X22415D01*
X22605Y243872D01*
X23108Y243772D01*
X23108Y243772D01*
X492979D01*
X493186Y243272D01*
X492771Y242857D01*
X492229Y241919D01*
X491949Y240872D01*
Y239789D01*
X492229Y238743D01*
X492372Y238496D01*
X490835Y236959D01*
X15995D01*
X15493Y236859D01*
X15067Y236575D01*
X8902Y230410D01*
X-42134D01*
X-42347Y230552D01*
X-42701Y230623D01*
Y231791D01*
X-55299D01*
Y228051D01*
Y224902D01*
X-42701D01*
Y226070D01*
X-42347Y226141D01*
X-42134Y226283D01*
X10068D01*
X10571Y226383D01*
X10996Y226667D01*
X17161Y232832D01*
X490835D01*
X492372Y231295D01*
X492229Y231049D01*
X491949Y230002D01*
Y228919D01*
X492229Y227873D01*
X492771Y226935D01*
X493186Y226519D01*
X492979Y226019D01*
X23869D01*
X21457Y228432D01*
Y228699D01*
X21187Y229350D01*
X20689Y229848D01*
X20038Y230118D01*
X19333D01*
X18681Y229848D01*
X18183Y229350D01*
X17913Y228699D01*
Y227994D01*
X18183Y227343D01*
X18681Y226845D01*
X19168Y226643D01*
Y226113D01*
X18681Y225911D01*
X18183Y225413D01*
X17913Y224762D01*
Y224057D01*
X18183Y223406D01*
X18681Y222907D01*
X19333Y222638D01*
X19600D01*
X19961Y222277D01*
X20387Y221992D01*
X20889Y221892D01*
X492839D01*
X493046Y221392D01*
X492771Y221117D01*
X492229Y220179D01*
X491949Y219132D01*
Y218049D01*
X492229Y217003D01*
X492372Y216756D01*
X490835Y215219D01*
X35217D01*
X29860Y220577D01*
X29434Y220861D01*
X28931Y220961D01*
X-42134D01*
X-42347Y221103D01*
X-42701Y221174D01*
Y222342D01*
X-55299D01*
Y218602D01*
Y215453D01*
X-42701D01*
Y216622D01*
X-42347Y216692D01*
X-42134Y216834D01*
X27766D01*
X33123Y211477D01*
X33549Y211192D01*
X34052Y211092D01*
X490835D01*
X492372Y209555D01*
X492229Y209309D01*
X491949Y208262D01*
Y207179D01*
X492229Y206133D01*
X492771Y205194D01*
X493186Y204779D01*
X492979Y204279D01*
X31362D01*
X24514Y211128D01*
X24088Y211412D01*
X23585Y211512D01*
X21457D01*
Y211770D01*
X21187Y212421D01*
X20689Y212919D01*
X20038Y213189D01*
X19333D01*
X18681Y212919D01*
X18183Y212421D01*
X17913Y211770D01*
Y211065D01*
X18183Y210414D01*
X18681Y209915D01*
X19168Y209714D01*
Y209184D01*
X18681Y208982D01*
X18183Y208484D01*
X17913Y207833D01*
Y207128D01*
X18183Y206477D01*
X18681Y205978D01*
X19333Y205709D01*
X20038D01*
X20689Y205978D01*
X21187Y206477D01*
X21457Y207128D01*
Y207385D01*
X22420D01*
X29268Y200537D01*
X29268Y200536D01*
X29694Y200252D01*
X30197Y200152D01*
X30197Y200152D01*
X492839D01*
X493046Y199652D01*
X492771Y199376D01*
X492229Y198438D01*
X491949Y197392D01*
Y196309D01*
X492229Y195262D01*
X492372Y195016D01*
X490835Y193479D01*
X28109D01*
X10460Y211128D01*
X10034Y211412D01*
X9532Y211512D01*
X-42134D01*
X-42347Y211654D01*
X-42701Y211725D01*
Y212894D01*
X-55299D01*
Y209154D01*
Y206004D01*
X-42701D01*
Y207173D01*
X-42347Y207243D01*
X-42134Y207385D01*
X8366D01*
X26015Y189736D01*
X26441Y189452D01*
X26943Y189352D01*
X490835D01*
X492372Y187815D01*
X492229Y187568D01*
X491949Y186522D01*
Y186133D01*
X491449Y185925D01*
X489906Y187469D01*
X489479Y187753D01*
X488977Y187853D01*
X22661D01*
Y188111D01*
X22391Y188762D01*
X21893Y189260D01*
X21242Y189530D01*
X20537D01*
X19886Y189260D01*
X19387Y188762D01*
X19118Y188111D01*
Y187406D01*
X19387Y186755D01*
X19886Y186256D01*
X20372Y186055D01*
Y185525D01*
X19886Y185323D01*
X19387Y184825D01*
X19118Y184174D01*
Y183469D01*
X19387Y182818D01*
X19886Y182319D01*
X20537Y182050D01*
X21242D01*
X21893Y182319D01*
X22391Y182818D01*
X22661Y183469D01*
Y183726D01*
X487811D01*
X492741Y178796D01*
X493031Y178603D01*
X493148Y178140D01*
X493142Y178007D01*
X492771Y177636D01*
X492229Y176698D01*
X491949Y175652D01*
Y174569D01*
X492229Y173522D01*
X492372Y173276D01*
X490835Y171739D01*
X27442D01*
X-2498Y201679D01*
X-2924Y201964D01*
X-3427Y202063D01*
X-42134D01*
X-42347Y202206D01*
X-42701Y202276D01*
Y203445D01*
X-55299D01*
Y199705D01*
Y197496D01*
X-56461D01*
Y266744D01*
X-38814D01*
X-38765Y266754D01*
X-38714Y266747D01*
X-38328Y266766D01*
X-38182Y266803D01*
X-38031D01*
X-37274Y266953D01*
X-37088Y267030D01*
X-36891Y267069D01*
X-36178Y267364D01*
X-36011Y267476D01*
X-35826Y267553D01*
X-35184Y267982D01*
X-35042Y268124D01*
X-34875Y268235D01*
X-34329Y268781D01*
X-34218Y268948D01*
X-34076Y269090D01*
X-33647Y269732D01*
X-33570Y269917D01*
X-33458Y270084D01*
X-33163Y270797D01*
X-33124Y270994D01*
X-33047Y271180D01*
X-32896Y271937D01*
Y272088D01*
X-32860Y272235D01*
X-32841Y272620D01*
X-32848Y272671D01*
X-32838Y272721D01*
Y284461D01*
X-29909D01*
Y282563D01*
X-29899Y282513D01*
X-29907Y282463D01*
X-29888Y282077D01*
X-29851Y281930D01*
Y281779D01*
X-29700Y281022D01*
X-29624Y280837D01*
X-29585Y280640D01*
X-29289Y279927D01*
X-29178Y279760D01*
X-29101Y279574D01*
X-28672Y278932D01*
X-28530Y278790D01*
X-28418Y278624D01*
X-27873Y278078D01*
X-27706Y277966D01*
X-27564Y277824D01*
X-26922Y277395D01*
X-26736Y277319D01*
X-26569Y277207D01*
X-25856Y276912D01*
X-25659Y276872D01*
X-25474Y276796D01*
X-24717Y276645D01*
X-24566D01*
X-24419Y276608D01*
X-24033Y276589D01*
X-23983Y276597D01*
X-23933Y276587D01*
X-0D01*
X780Y276742D01*
X1442Y277184D01*
X1884Y277846D01*
X2039Y278626D01*
Y385700D01*
Y386287D01*
X2268Y387439D01*
X2718Y388524D01*
X3370Y389500D01*
X4200Y390331D01*
X5177Y390983D01*
X6262Y391432D01*
X7414Y391662D01*
X548228D01*
X549386Y391431D01*
D02*
G37*
G36*
X25348Y167996D02*
X25774Y167712D01*
X26276Y167612D01*
X490835D01*
X492372Y166075D01*
X492229Y165828D01*
X491949Y164782D01*
Y163698D01*
X492008Y163476D01*
X491574Y163165D01*
X491502Y163213D01*
X491000Y163313D01*
X25544Y163313D01*
X8401Y180456D01*
X7975Y180740D01*
X7472Y180840D01*
X-6681D01*
X-6870Y181029D01*
X-7522Y181299D01*
X-8226D01*
X-8878Y181029D01*
X-9376Y180531D01*
X-9646Y179880D01*
Y179175D01*
X-9376Y178524D01*
X-8878Y178026D01*
X-8364Y177813D01*
X-8464Y177313D01*
X-9456D01*
X-12599Y180456D01*
X-13025Y180741D01*
X-13528Y180841D01*
X-42701D01*
Y181398D01*
X-55299D01*
Y177657D01*
Y174508D01*
X-42701D01*
Y175065D01*
X-29533D01*
X-29031Y175165D01*
X-29020Y175172D01*
X-17974D01*
X-17639Y174672D01*
X-17772Y174352D01*
Y173648D01*
X-17502Y172996D01*
X-17004Y172498D01*
X-16352Y172228D01*
X-16085D01*
X-12928Y169071D01*
X-12928Y169071D01*
X-12797Y168393D01*
X-12851Y168313D01*
X-21456D01*
X-23228Y170085D01*
Y170352D01*
X-23498Y171004D01*
X-23996Y171502D01*
X-24648Y171772D01*
X-25352D01*
X-26004Y171502D01*
X-26153Y171352D01*
X-42701D01*
Y171949D01*
X-55299D01*
Y168209D01*
Y165059D01*
X-42701D01*
Y168727D01*
X-34486D01*
X-34279Y168227D01*
X-34502Y168004D01*
X-34772Y167352D01*
Y166648D01*
X-34502Y165996D01*
X-34004Y165498D01*
X-33352Y165228D01*
X-33085D01*
X-31929Y164072D01*
X-31503Y163787D01*
X-31000Y163687D01*
X-31000Y163687D01*
X-1544D01*
X16071Y146072D01*
X16498Y145787D01*
X17000Y145687D01*
X57000D01*
X466808Y145687D01*
X466996Y145498D01*
X467648Y145228D01*
X468352D01*
X469004Y145498D01*
X469502Y145996D01*
X469772Y146648D01*
Y147352D01*
X469502Y148004D01*
X469319Y148187D01*
X469526Y148687D01*
X483456D01*
X490571Y141571D01*
X490998Y141287D01*
X491500Y141187D01*
X492156D01*
X492229Y140912D01*
X492771Y139974D01*
X493046Y139699D01*
X492839Y139199D01*
X20659D01*
X8572Y151285D01*
X8146Y151570D01*
X7643Y151670D01*
X-42134D01*
X-42347Y151812D01*
X-42701Y151882D01*
Y153051D01*
X-55299D01*
Y149311D01*
Y146161D01*
X-42701D01*
Y147330D01*
X-42347Y147401D01*
X-42134Y147543D01*
X6478D01*
X18564Y135456D01*
X18990Y135171D01*
X19493Y135071D01*
X19493Y135071D01*
X492979D01*
X493186Y134571D01*
X492771Y134156D01*
X492229Y133218D01*
X491949Y132172D01*
Y131088D01*
X492229Y130042D01*
X492771Y129104D01*
X493046Y128828D01*
X492839Y128328D01*
X16651D01*
X3143Y141836D01*
X2717Y142121D01*
X2215Y142221D01*
X-42134D01*
X-42347Y142363D01*
X-42701Y142434D01*
Y143602D01*
X-55299D01*
Y139862D01*
Y136713D01*
X-42701D01*
Y137881D01*
X-42347Y137952D01*
X-42134Y138094D01*
X1049D01*
X14557Y124586D01*
X14557Y124586D01*
X14983Y124301D01*
X15486Y124201D01*
X15486Y124201D01*
X50445D01*
X50545Y123701D01*
X50178Y123549D01*
X49679Y123051D01*
X49409Y122400D01*
Y121695D01*
X49679Y121044D01*
X50178Y120545D01*
X50664Y120344D01*
Y119814D01*
X50178Y119612D01*
X49679Y119114D01*
X49409Y118463D01*
Y117758D01*
X49679Y117107D01*
X50178Y116608D01*
X50829Y116339D01*
X51534D01*
X52185Y116608D01*
X52683Y117107D01*
X52953Y117758D01*
Y118015D01*
X452212D01*
X455942Y114286D01*
X455942Y114286D01*
X456368Y114001D01*
X456870Y113901D01*
X456870Y113901D01*
X462795D01*
Y113644D01*
X463065Y112993D01*
X463245Y112813D01*
X463038Y112313D01*
X455544D01*
X453928Y113928D01*
X453502Y114213D01*
X453000Y114313D01*
X21544D01*
X2645Y133212D01*
X2219Y133496D01*
X1716Y133596D01*
X-6681D01*
X-6870Y133785D01*
X-7522Y134055D01*
X-8226D01*
X-8878Y133785D01*
X-9376Y133287D01*
X-9646Y132636D01*
Y131931D01*
X-9376Y131280D01*
X-9043Y130947D01*
X-9250Y130447D01*
X-42701D01*
Y134153D01*
X-55299D01*
Y130413D01*
Y127319D01*
X-56461D01*
Y183969D01*
X-38028D01*
X-37961Y183982D01*
X-37894Y183973D01*
X-37278Y184013D01*
X-37084Y184065D01*
X-36883Y184079D01*
X-35692Y184398D01*
X-35453Y184516D01*
X-35200Y184602D01*
X-34132Y185218D01*
X-33931Y185394D01*
X-33710Y185542D01*
X-32838Y186414D01*
X-32689Y186636D01*
X-32513Y186837D01*
X-31897Y187905D01*
X-31811Y188157D01*
X-31693Y188397D01*
X-31374Y189588D01*
X-31356Y189854D01*
X-31304Y190116D01*
Y191349D01*
X-31356Y191611D01*
X-31374Y191877D01*
X-31693Y193068D01*
X-31811Y193307D01*
X-31897Y193560D01*
X-32513Y194628D01*
X-32689Y194828D01*
X-32838Y195050D01*
X-33710Y195922D01*
X-33931Y196071D01*
X-34132Y196246D01*
X-35200Y196863D01*
X-35453Y196949D01*
X-35692Y197067D01*
X-36883Y197386D01*
X-36922Y197436D01*
X-36676Y197936D01*
X-4592D01*
X25348Y167996D01*
D02*
G37*
%LPC*%
G36*
X484252Y301290D02*
X483457Y301132D01*
X482783Y300681D01*
X482783Y300681D01*
X475518Y293416D01*
X23212D01*
X22417Y293258D01*
X21743Y292808D01*
X-10720Y260345D01*
X-49000D01*
X-49795Y260187D01*
X-49869Y260138D01*
X-55299D01*
Y256398D01*
X-49869D01*
X-49795Y256348D01*
X-49000Y256190D01*
X-9859D01*
X-9064Y256348D01*
X-8390Y256799D01*
X24072Y289261D01*
X476378D01*
X477173Y289419D01*
X477847Y289870D01*
X485112Y297135D01*
X502163D01*
X514445Y284853D01*
X514311Y284353D01*
Y283269D01*
X514591Y282223D01*
X515133Y281285D01*
X515899Y280519D01*
X516837Y279977D01*
X517884Y279697D01*
X518967D01*
X520013Y279977D01*
X520951Y280519D01*
X521717Y281285D01*
X522259Y282223D01*
X522539Y283269D01*
Y284353D01*
X522259Y285399D01*
X521717Y286337D01*
X520951Y287103D01*
X520013Y287645D01*
X518967Y287925D01*
X517884D01*
X517383Y287791D01*
X504493Y300681D01*
X503819Y301132D01*
X503024Y301290D01*
X484252D01*
X484252Y301290D01*
D02*
G37*
G36*
X501261Y293145D02*
X488189D01*
X487498Y293007D01*
X486912Y292616D01*
X478484Y284188D01*
X23847D01*
X23156Y284051D01*
X22570Y283659D01*
X-7314Y253775D01*
X-42701D01*
Y253839D01*
X-55299D01*
Y250098D01*
X-42701D01*
Y250162D01*
X-6566D01*
X-6391Y250197D01*
X-6213D01*
X-6049Y250265D01*
X-5875Y250300D01*
X-5727Y250398D01*
X-5562Y250467D01*
X-5437Y250592D01*
X-5289Y250691D01*
X24596Y280575D01*
X479232D01*
X479924Y280713D01*
X480510Y281105D01*
X488937Y289532D01*
X500513D01*
X505438Y284607D01*
Y282084D01*
X504718Y281668D01*
X503952Y280902D01*
X503410Y279964D01*
X503130Y278918D01*
Y277834D01*
X503385Y276882D01*
X503150Y276670D01*
X502971Y276589D01*
X499907Y279653D01*
X499321Y280045D01*
X498630Y280182D01*
X490266D01*
X489574Y280045D01*
X488988Y279653D01*
X486732Y277397D01*
X26290D01*
X25599Y277259D01*
X25013Y276868D01*
X-4380Y247476D01*
X-42701D01*
Y247539D01*
X-55299D01*
Y243799D01*
X-42701D01*
Y243863D01*
X-3631D01*
X-3457Y243898D01*
X-3279D01*
X-3115Y243966D01*
X-2940Y244000D01*
X-2792Y244099D01*
X-2628Y244167D01*
X-2502Y244293D01*
X-2354Y244392D01*
X27038Y273784D01*
X487480D01*
X488172Y273922D01*
X488758Y274313D01*
X491014Y276570D01*
X497881D01*
X502787Y271664D01*
X503373Y271272D01*
X504065Y271135D01*
X514717D01*
X515133Y270415D01*
X515899Y269649D01*
X516837Y269107D01*
X517884Y268827D01*
X518967D01*
X520013Y269107D01*
X520951Y269649D01*
X521717Y270415D01*
X522259Y271353D01*
X522539Y272399D01*
Y273483D01*
X522259Y274529D01*
X521717Y275467D01*
X520951Y276233D01*
X520013Y276775D01*
X518967Y277055D01*
X517884D01*
X516837Y276775D01*
X515899Y276233D01*
X515133Y275467D01*
X514717Y274747D01*
X510141D01*
X509934Y275247D01*
X510536Y275850D01*
X511078Y276788D01*
X511358Y277834D01*
Y278918D01*
X511078Y279964D01*
X510536Y280902D01*
X509770Y281668D01*
X509051Y282084D01*
Y285355D01*
X508913Y286047D01*
X508521Y286633D01*
X502538Y292616D01*
X501952Y293007D01*
X501261Y293145D01*
D02*
G37*
G36*
X518967Y157484D02*
X517884D01*
X516837Y157204D01*
X515899Y156662D01*
X515133Y155896D01*
X514591Y154958D01*
X514311Y153912D01*
Y152828D01*
X514591Y151782D01*
X515133Y150844D01*
X515899Y150078D01*
X516837Y149536D01*
X517884Y149256D01*
X518967D01*
X520013Y149536D01*
X520951Y150078D01*
X521717Y150844D01*
X522259Y151782D01*
X522539Y152828D01*
Y153912D01*
X522259Y154958D01*
X521717Y155896D01*
X520951Y156662D01*
X520013Y157204D01*
X518967Y157484D01*
D02*
G37*
G36*
Y146614D02*
X517884D01*
X516837Y146334D01*
X515899Y145792D01*
X515133Y145026D01*
X514591Y144088D01*
X514311Y143042D01*
Y141958D01*
X514591Y140912D01*
X515133Y139974D01*
X515899Y139208D01*
X516837Y138666D01*
X517884Y138386D01*
X518967D01*
X520013Y138666D01*
X520951Y139208D01*
X521717Y139974D01*
X522259Y140912D01*
X522539Y141958D01*
Y143042D01*
X522259Y144088D01*
X521717Y145026D01*
X520951Y145792D01*
X520013Y146334D01*
X518967Y146614D01*
D02*
G37*
G36*
X-42701Y162500D02*
X-55299D01*
Y158760D01*
Y155610D01*
X-42701D01*
Y158760D01*
Y162500D01*
D02*
G37*
%LPD*%
D13*
X-49000Y264567D02*
D03*
Y261417D02*
D03*
Y258268D02*
D03*
Y255118D02*
D03*
Y251969D02*
D03*
Y248819D02*
D03*
Y245669D02*
D03*
Y242520D02*
D03*
Y239370D02*
D03*
Y236221D02*
D03*
Y233071D02*
D03*
Y229921D02*
D03*
Y226772D02*
D03*
Y223622D02*
D03*
Y220472D02*
D03*
Y217323D02*
D03*
Y214173D02*
D03*
Y211024D02*
D03*
Y207874D02*
D03*
Y204724D02*
D03*
Y201575D02*
D03*
Y198425D02*
D03*
Y182677D02*
D03*
Y179528D02*
D03*
Y176378D02*
D03*
Y173228D02*
D03*
Y170079D02*
D03*
Y166929D02*
D03*
Y163779D02*
D03*
Y160630D02*
D03*
Y157480D02*
D03*
Y154331D02*
D03*
Y151181D02*
D03*
Y148031D02*
D03*
Y144882D02*
D03*
Y141732D02*
D03*
Y138583D02*
D03*
Y135433D02*
D03*
Y132283D02*
D03*
Y129134D02*
D03*
D19*
Y135433D02*
X-35000D01*
X-49000Y144882D02*
X-35000D01*
X-49000Y154331D02*
X-35000D01*
X-49000Y163779D02*
X-37000D01*
X-49000Y173228D02*
X-35000D01*
X-49000Y182677D02*
X-35000D01*
X-49000Y204724D02*
X-35000D01*
X-49000Y214173D02*
X-35000D01*
X-49000Y223622D02*
X-35000D01*
X-49000Y233071D02*
X-35000D01*
X-49000Y242520D02*
X-35000D01*
X-49000Y248819D02*
X-35000D01*
X-49000Y255000D02*
X-35000D01*
X-49000Y264567D02*
X-35000D01*
X451343Y109000D02*
X455343Y105000D01*
X513535D01*
X17000Y109000D02*
X451343D01*
X453000Y113000D02*
X455000Y111000D01*
X485000D01*
X489325Y115325D01*
X513535Y105000D02*
X518425Y109890D01*
X489325Y115325D02*
X507244D01*
X-23000Y126649D02*
X-649D01*
X17000Y109000D01*
X1716Y132283D02*
X21000Y113000D01*
X453000D01*
X-7874Y132283D02*
X1716D01*
X-25039Y170039D02*
X-25000Y170000D01*
X-49000Y170079D02*
X-48961Y170039D01*
X-25039D01*
X25000Y162000D02*
X491000Y162000D01*
X494195Y158805D02*
X507244D01*
X491000Y162000D02*
X494195Y158805D01*
X-7874Y179528D02*
X7472D01*
X25000Y162000D01*
D20*
X484621Y108500D02*
X486012Y109890D01*
X454672Y108500D02*
X484621D01*
X486012Y109890D02*
X496063D01*
X452172Y111000D02*
X454672Y108500D01*
X19000Y111000D02*
X452172D01*
X-49000Y129134D02*
X866D01*
X19000Y111000D01*
X7643Y150357D02*
X20115Y137885D01*
X19493Y136384D02*
X494819D01*
X-42608Y148856D02*
X7022D01*
X20115Y137885D02*
X495440D01*
X-42608Y150357D02*
X7643D01*
X7022Y148856D02*
X19493Y136384D01*
X-42608Y140908D02*
X2215D01*
X1593Y139407D02*
X15486Y125514D01*
X2215Y140908D02*
X16107Y127015D01*
X498308D01*
X15486Y125514D02*
X498930D01*
X-42608Y139407D02*
X1593D01*
X-33000Y167000D02*
X-31000Y165000D01*
X-1000D01*
X17000Y147000D01*
X57000D01*
X-25000Y170000D02*
X-22000Y167000D01*
X1000D01*
X18000Y150000D01*
X57000D01*
X468000Y150000D02*
X484000D01*
X491500Y142500D01*
X-16000Y174000D02*
X-12000Y170000D01*
X2000D01*
X19000Y153000D01*
X57000D01*
X-29426Y176485D02*
X-14485D01*
X-29533Y176378D02*
X-29426Y176485D01*
X-14485D02*
X-11000Y173000D01*
X-49000Y176378D02*
X-29533D01*
X5000Y173000D02*
X22000Y156000D01*
X57000D01*
X-11000Y173000D02*
X5000D01*
X24000Y159000D02*
X57000D01*
X-10000Y176000D02*
X7000D01*
X24000Y159000D01*
X-49000Y179528D02*
X-13528D01*
X-10000Y176000D01*
X468000Y159000D02*
X490433D01*
X496063Y153370D01*
X491500Y142500D02*
X496063D01*
X57000Y147000D02*
X468000Y147000D01*
X57000Y150000D02*
X468000Y150000D01*
X57000Y153000D02*
X487000Y153000D01*
X492065Y147935D01*
X507244D01*
X57000Y156000D02*
X468000Y156000D01*
X57000Y159000D02*
X468000Y159000D01*
X463349Y115214D02*
X464567Y113996D01*
X463349Y116715D02*
X464567Y117933D01*
X456870Y115214D02*
X463349D01*
X457492Y116715D02*
X463349D01*
X452756Y119328D02*
X456870Y115214D01*
X453378Y120829D02*
X457492Y116715D01*
X52399Y120829D02*
X453378D01*
X52399Y119328D02*
X452756D01*
X51181Y118110D02*
X52399Y119328D01*
X51181Y122047D02*
X52399Y120829D01*
X515283Y126945D02*
X516112D01*
X516698Y128374D02*
X518425Y130100D01*
X516112Y126945D02*
X516698Y127532D01*
Y128374D01*
X509778Y132450D02*
X515283Y126945D01*
X518425Y120760D02*
Y122289D01*
X516112Y125444D02*
X516698Y124858D01*
X509156Y130949D02*
X514661Y125444D01*
X516112D01*
X516698Y124016D02*
Y124858D01*
X518425Y130100D02*
Y131630D01*
X516698Y124016D02*
X518425Y122289D01*
X504365Y130949D02*
X509156D01*
X498308Y127015D02*
X503743Y132450D01*
X509778D01*
X498930Y125514D02*
X504365Y130949D01*
X-42850Y141150D02*
X-42608Y140908D01*
X-42850Y139165D02*
X-42608Y139407D01*
X-48418Y139165D02*
X-42850D01*
X-49000Y138583D02*
X-48418Y139165D01*
Y141150D02*
X-42850D01*
X-49000Y141732D02*
X-48418Y141150D01*
X495405Y132288D02*
X496063Y131630D01*
X495405Y132288D02*
Y135798D01*
X494819Y136384D02*
X495405Y135798D01*
X495440Y137885D02*
X496873Y136453D01*
X506632D02*
X507244Y137065D01*
X496873Y136453D02*
X506632D01*
X-48418Y150599D02*
X-42850D01*
X-49000Y148031D02*
X-48418Y148614D01*
X-42850D01*
X-42608Y148856D01*
X-49000Y151181D02*
X-48418Y150599D01*
X-42850D02*
X-42608Y150357D01*
Y238546D02*
X1048D01*
X19888Y257386D01*
X20510Y255885D02*
X491378D01*
X1669Y237045D02*
X20510Y255885D01*
X-42608Y237045D02*
X1669D01*
X19888Y257386D02*
X491378D01*
X-42608Y227596D02*
X10068D01*
X15995Y235646D02*
X491378D01*
X16617Y234145D02*
X491378D01*
X10068Y227596D02*
X16617Y234145D01*
X-42608Y229097D02*
X9446D01*
X15995Y235646D01*
X-3427Y200750D02*
X26898Y170426D01*
X491378D01*
X-42608Y199249D02*
X-4048D01*
X26276Y168925D01*
X-42608Y200750D02*
X-3427D01*
X26276Y168925D02*
X491378D01*
X516896Y175110D02*
X518425D01*
Y164240D02*
Y165020D01*
X511967Y171478D02*
X518425Y165020D01*
X509156Y174290D02*
X511967Y171478D01*
X514325Y172539D02*
X516896Y175110D01*
X513028Y172539D02*
X514325D01*
X509777Y175791D02*
X513028Y172539D01*
X504211Y175791D02*
X509777D01*
X502769Y175110D02*
X503589Y174290D01*
X498154Y179725D02*
X502769Y175110D01*
X503589Y174290D02*
X509156D01*
X493670Y179725D02*
X498154D01*
X488355Y185039D02*
X493670Y179725D01*
X22107Y185039D02*
X488355D01*
X494291Y181226D02*
X498776D01*
X504211Y175791D01*
X22107Y186540D02*
X488977D01*
X494291Y181226D01*
X20889Y183821D02*
X22107Y185039D01*
X20889Y187758D02*
X22107Y186540D01*
X8910Y208698D02*
X26943Y190665D01*
X491378D01*
X-42608Y208698D02*
X8910D01*
X27565Y192166D02*
X491378D01*
X9532Y210199D02*
X27565Y192166D01*
X-42608Y210199D02*
X9532D01*
X23585Y210199D02*
X30819Y202966D01*
X30197Y201465D02*
X498154D01*
X22963Y208698D02*
X30197Y201465D01*
X30819Y202966D02*
X498776D01*
X517344Y186121D02*
X518425Y185039D01*
X514646Y190665D02*
X516420D01*
X517344Y193089D02*
Y195769D01*
Y186121D02*
Y189741D01*
X509281Y196030D02*
X513028Y192283D01*
X517344Y195769D02*
X518425Y196850D01*
X509903Y197531D02*
X515268Y192166D01*
X516420D02*
X517344Y193089D01*
X515268Y192166D02*
X516420D01*
X513028Y192283D02*
X514646Y190665D01*
X516420D02*
X517344Y189741D01*
X502769Y196850D02*
X503589Y196030D01*
X509281D01*
X504211Y197531D02*
X509903D01*
X498154Y201465D02*
X502769Y196850D01*
X498776Y202966D02*
X504211Y197531D01*
X20903Y210199D02*
X23585D01*
X19685Y207480D02*
X20903Y208698D01*
X22963D01*
X19685Y211417D02*
X20903Y210199D01*
X23325Y224706D02*
X498596D01*
X19685Y224410D02*
X20889Y223205D01*
X497974D01*
X19685Y228346D02*
X23325Y224706D01*
X516896Y218590D02*
X518425D01*
X511811Y215474D02*
X518425Y208860D01*
X509515Y217770D02*
X511811Y215474D01*
X514841Y216535D02*
X516896Y218590D01*
X512872Y216535D02*
X514841D01*
X518425Y207720D02*
Y208860D01*
X503409Y217770D02*
X509515D01*
X500354Y220826D02*
Y220826D01*
X510137Y219271D02*
X512872Y216535D01*
X501415Y221887D02*
X502769Y220533D01*
Y220533D02*
X504031Y219271D01*
X500354Y220826D02*
X503409Y217770D01*
X501415Y221887D02*
X501415D01*
X504031Y219271D02*
X510137D01*
X498596Y224706D02*
X501415Y221887D01*
X502769Y220533D02*
Y220533D01*
X497974Y223205D02*
X500354Y220826D01*
X-42608Y219648D02*
X28931D01*
X34673Y213906D01*
X28310Y218147D02*
X34052Y212405D01*
X491378D01*
X-42608Y218147D02*
X28310D01*
X34673Y213906D02*
X491378D01*
X499763Y246586D02*
X505198Y241151D01*
X23730Y246586D02*
X26046D01*
X23502Y246813D02*
X23730Y246586D01*
X26046Y246586D02*
X499763D01*
X20903Y246813D02*
X23502D01*
X20903Y245313D02*
X22881D01*
X19685Y248031D02*
X20903Y246813D01*
X22881Y245313D02*
X23108Y245085D01*
X499141D01*
X19685Y244094D02*
X20903Y245313D01*
X47244Y266686D02*
X499416D01*
X45722Y267286D02*
X46622Y268186D01*
X40588Y265785D02*
X46344D01*
X40588Y267286D02*
X45722D01*
X39370Y268504D02*
X40588Y267286D01*
X46622Y268186D02*
X500038D01*
X46344Y265785D02*
X47244Y266686D01*
X39370Y264567D02*
X40588Y265785D01*
X504576Y239650D02*
X509016D01*
X514521Y234145D01*
X509637Y241151D02*
X515142Y235646D01*
X514521Y234145D02*
X517111D01*
X499141Y245085D02*
X504576Y239650D01*
X505198Y241151D02*
X509637D01*
X517697Y236232D02*
Y239603D01*
X515142Y235646D02*
X517111D01*
X517697Y236232D01*
Y230189D02*
X518425Y229461D01*
X517697Y239603D02*
X518425Y240331D01*
X517111Y234145D02*
X517697Y233559D01*
Y230189D02*
Y233559D01*
X500038Y268186D02*
X505473Y262751D01*
X499416Y266686D02*
X504851Y261250D01*
X509156D01*
X514521Y255885D02*
X515972D01*
X505473Y262751D02*
X509777D01*
X518425Y251201D02*
Y252730D01*
X515972Y255885D02*
X516558Y255299D01*
X515972Y257386D02*
X516558Y257973D01*
X518425Y260541D02*
Y262071D01*
X516558Y257973D02*
Y258674D01*
X515142Y257386D02*
X515972D01*
X516558Y254598D02*
X518425Y252730D01*
X509777Y262751D02*
X515142Y257386D01*
X509156Y261250D02*
X514521Y255885D01*
X516558Y254598D02*
Y255299D01*
Y258674D02*
X518425Y260541D01*
X491378Y168925D02*
X496063Y164240D01*
X491378Y170426D02*
X496063Y175110D01*
X-48418Y200993D02*
X-42850D01*
X-42608Y200750D01*
X-48418Y199007D02*
X-42850D01*
X-49000Y198425D02*
X-48418Y199007D01*
X-42850D02*
X-42608Y199249D01*
X-49000Y201575D02*
X-48418Y200993D01*
X491378Y190665D02*
X496063Y185980D01*
X491378Y192166D02*
X496063Y196850D01*
X-49000Y207874D02*
X-48418Y208456D01*
X-42850D01*
X-49000Y211024D02*
X-48418Y210441D01*
X-42850D02*
X-42608Y210199D01*
X-42850Y208456D02*
X-42608Y208698D01*
X-48418Y210441D02*
X-42850D01*
X491378Y213906D02*
X496063Y218590D01*
X491378Y212405D02*
X496063Y207720D01*
X-49000Y220472D02*
X-48418Y219890D01*
X-42850D01*
X-42608Y219648D01*
X-49000Y217323D02*
X-48418Y217905D01*
X-42850D01*
X-42608Y218147D01*
X491378Y235646D02*
X496063Y240331D01*
X491378Y234145D02*
X496063Y229461D01*
X-48418Y229339D02*
X-42850D01*
X-42608Y229097D01*
X-49000Y229921D02*
X-48418Y229339D01*
X-49000Y226772D02*
X-48418Y227354D01*
X-42850D01*
X-42608Y227596D01*
X491378Y255885D02*
X496063Y251201D01*
X491378Y257386D02*
X496063Y262071D01*
X-49000Y236221D02*
X-48418Y236803D01*
X-42850D01*
X-42608Y237045D01*
X-48418Y238788D02*
X-42850D01*
X-42608Y238546D01*
X-49000Y239370D02*
X-48418Y238788D01*
D21*
X487480Y275590D02*
X490266Y278376D01*
X26290Y275590D02*
X487480D01*
X490266Y278376D02*
X498630D01*
X507244D02*
Y285355D01*
X501261Y291339D02*
X507244Y285355D01*
X488189Y291339D02*
X501261D01*
X479232Y282382D02*
X488189Y291339D01*
X504065Y272941D02*
X518425D01*
X498630Y278376D02*
X504065Y272941D01*
X23847Y282382D02*
X479232D01*
X-49000Y251969D02*
X-6566D01*
X23847Y282382D01*
X-3631Y245669D02*
X26290Y275590D01*
X-49000Y245669D02*
X-3631D01*
D22*
X503024Y299213D02*
X518425Y283811D01*
X484252Y299213D02*
X503024D01*
X476378Y291339D02*
X484252Y299213D01*
X23212Y291339D02*
X476378D01*
X-9859Y258268D02*
X23212Y291339D01*
X-49000Y258268D02*
X-9859D01*
D23*
X518425Y283811D02*
D03*
Y272941D02*
D03*
Y262071D02*
D03*
Y251201D02*
D03*
Y240331D02*
D03*
Y229461D02*
D03*
Y218590D02*
D03*
Y207720D02*
D03*
Y196850D02*
D03*
Y185980D02*
D03*
Y175110D02*
D03*
Y164240D02*
D03*
Y153370D02*
D03*
Y142500D02*
D03*
Y131630D02*
D03*
Y120760D02*
D03*
Y109890D02*
D03*
X507244Y278376D02*
D03*
Y267506D02*
D03*
Y256636D02*
D03*
Y245766D02*
D03*
Y234896D02*
D03*
Y224026D02*
D03*
Y213156D02*
D03*
Y202285D02*
D03*
Y191415D02*
D03*
Y180545D02*
D03*
Y169675D02*
D03*
Y158805D02*
D03*
Y147935D02*
D03*
Y137065D02*
D03*
Y126195D02*
D03*
Y115325D02*
D03*
X496063Y283811D02*
D03*
Y272941D02*
D03*
Y262071D02*
D03*
Y251201D02*
D03*
Y240331D02*
D03*
Y120760D02*
D03*
Y131630D02*
D03*
Y142500D02*
D03*
Y153370D02*
D03*
Y164240D02*
D03*
Y175110D02*
D03*
Y185980D02*
D03*
Y196850D02*
D03*
Y207720D02*
D03*
Y218590D02*
D03*
Y229461D02*
D03*
D24*
X507244Y317146D02*
D03*
Y76555D02*
D03*
D25*
X496063Y109890D02*
D03*
D26*
X-35000Y135433D02*
D03*
Y144882D02*
D03*
Y154331D02*
D03*
X-37000Y163779D02*
D03*
X-35000Y173228D02*
D03*
Y182677D02*
D03*
Y204724D02*
D03*
Y214173D02*
D03*
Y223622D02*
D03*
Y233071D02*
D03*
Y242520D02*
D03*
Y248819D02*
D03*
Y255000D02*
D03*
Y264567D02*
D03*
X-23000Y126649D02*
D03*
X468000Y147000D02*
D03*
X-25000Y170000D02*
D03*
X-33000Y167000D02*
D03*
X-16000Y174000D02*
D03*
X468000Y156000D02*
D03*
X464567Y117933D02*
D03*
Y113996D02*
D03*
X51181Y118110D02*
D03*
Y122047D02*
D03*
X-7874Y132283D02*
D03*
Y179528D02*
D03*
X-3631Y245669D02*
D03*
X-6566Y251969D02*
D03*
X-9859Y258268D02*
D03*
X20889Y187758D02*
D03*
Y183821D02*
D03*
X19685Y211417D02*
D03*
Y207480D02*
D03*
Y228346D02*
D03*
Y224410D02*
D03*
X19685Y248031D02*
D03*
Y244094D02*
D03*
X39370Y264567D02*
D03*
Y268504D02*
D03*
M02*
