G04*
G04 #@! TF.GenerationSoftware,Altium Limited,Altium Designer,22.7.1 (60)*
G04*
G04 Layer_Color=65535*
%FSLAX25Y25*%
%MOIN*%
G70*
G04*
G04 #@! TF.SameCoordinates,08797D1C-2854-47D2-879A-D974AA26C4BC*
G04*
G04*
G04 #@! TF.FilePolarity,Positive*
G04*
G01*
G75*
%ADD10C,0.00787*%
%ADD11C,0.00020*%
%ADD12C,0.00800*%
G36*
X405419Y167389D02*
X405974Y167159D01*
X406450Y166794D01*
X406451Y166793D01*
X406451Y166793D01*
X406817Y166317D01*
X407047Y165762D01*
X407099Y165361D01*
X407125Y165166D01*
Y164966D01*
Y133610D01*
X407108Y133415D01*
X407108Y133415D01*
X407177Y133069D01*
X407373Y132776D01*
X407375Y132774D01*
X407666Y132580D01*
X408012Y132511D01*
X408017Y132512D01*
X408212Y132527D01*
X417102D01*
X417105Y132524D01*
Y132524D01*
X417105Y132524D01*
X417433Y132459D01*
X417714Y132271D01*
X417903Y131989D01*
X417931Y131845D01*
X417965Y131657D01*
X417967Y131649D01*
X417935Y131470D01*
X417903Y131308D01*
X417720Y131036D01*
X417564Y130926D01*
X417433Y130839D01*
X417105Y130773D01*
X417105D01*
X417102Y130770D01*
X407689D01*
Y130770D01*
X407097Y130848D01*
X406541Y131079D01*
X406063Y131445D01*
X405697Y131923D01*
X405466Y132479D01*
X405414Y132880D01*
X405388Y133075D01*
X405388Y133276D01*
Y164843D01*
X405405Y164843D01*
X405336Y165191D01*
X405139Y165486D01*
X404844Y165683D01*
X404500Y165751D01*
X404500Y165735D01*
X404500Y165735D01*
X378544D01*
X378544Y165735D01*
X378544Y165751D01*
X378201Y165683D01*
X377906Y165486D01*
X377709Y165191D01*
X377640Y164843D01*
X377640Y164843D01*
X377656Y164648D01*
Y133096D01*
X377656Y133096D01*
X377654Y133096D01*
X377657Y133075D01*
X377578Y132479D01*
X377348Y131922D01*
X376990Y131457D01*
X376839Y131336D01*
X376504Y131079D01*
X375948Y130848D01*
X375359Y130771D01*
X375359Y130770D01*
X352965D01*
Y130773D01*
X352634Y130839D01*
X352510Y130921D01*
X352352Y131027D01*
X352164Y131308D01*
X352098Y131640D01*
X352164Y131972D01*
X352247Y132096D01*
X352352Y132254D01*
X352634Y132442D01*
X352965Y132508D01*
Y132511D01*
X374833D01*
X375028Y132495D01*
X375032Y132494D01*
X375378Y132563D01*
X375672Y132759D01*
X375868Y133052D01*
X375937Y133398D01*
X375920D01*
Y164966D01*
X375920Y165166D01*
X375945Y165358D01*
X375998Y165762D01*
X376228Y166317D01*
X376593Y166793D01*
X376594Y166793D01*
X376594Y166794D01*
X377070Y167159D01*
X377625Y167389D01*
X378220Y167467D01*
X378221Y167467D01*
X404823D01*
X404824Y167467D01*
X405419Y167389D01*
D02*
G37*
G36*
X343512Y167467D02*
X368268D01*
X368270Y167450D01*
X368339Y167460D01*
X368625Y167422D01*
X368891Y167312D01*
X369120Y167136D01*
X369295Y166908D01*
X369405Y166642D01*
X369443Y166356D01*
X369405Y166070D01*
X369295Y165804D01*
X369178Y165651D01*
X369191Y165639D01*
X369191Y165638D01*
X344056Y131620D01*
X344029Y131616D01*
X344029D01*
X343848Y131381D01*
X343416Y131049D01*
X342913Y130841D01*
X342462Y130781D01*
X342462D01*
X342451Y130770D01*
X316779D01*
Y130770D01*
X316187Y130848D01*
X315631Y131079D01*
X315153Y131445D01*
X314787Y131923D01*
X314557Y132479D01*
X314504Y132880D01*
X314478Y133075D01*
X314478D01*
Y133276D01*
Y166425D01*
X314481D01*
X314547Y166757D01*
X314735Y167039D01*
X314893Y167144D01*
X315017Y167227D01*
X315155Y167254D01*
X315349Y167292D01*
Y167292D01*
X315676Y167227D01*
X315958Y167039D01*
X316146Y166757D01*
X316212Y166425D01*
X316215Y166425D01*
Y133614D01*
X316198Y133420D01*
Y133420D01*
X316267Y133073D01*
X316463Y132780D01*
X316465Y132779D01*
X316465D01*
X316757Y132584D01*
X317103Y132515D01*
X317107Y132516D01*
X317302Y132532D01*
X342463D01*
X342466Y132532D01*
X342531Y132545D01*
X342656Y132629D01*
X342656Y132629D01*
X342656Y132633D01*
X366690Y165201D01*
X366814Y165357D01*
X366875Y165504D01*
X366876Y165506D01*
X366799Y165690D01*
X366615Y165767D01*
X366613Y165766D01*
X366610Y165765D01*
X366415Y165748D01*
X343839D01*
Y165764D01*
X343492Y165695D01*
X343197Y165498D01*
X343000Y165203D01*
X342931Y164856D01*
X342947Y164839D01*
Y142248D01*
X342947Y142248D01*
X342944Y142248D01*
X342945Y142244D01*
X342879Y141913D01*
X342692Y141633D01*
X342412Y141446D01*
X342081Y141380D01*
Y141380D01*
X341891Y141418D01*
X341749Y141446D01*
X341468Y141634D01*
X341362Y141792D01*
X341280Y141916D01*
X341214Y142248D01*
X341211D01*
Y165166D01*
X341211Y165167D01*
X341289Y165762D01*
X341519Y166317D01*
X341884Y166793D01*
X341885Y166793D01*
X341885Y166794D01*
X342361Y167159D01*
X342916Y167389D01*
X343511Y167467D01*
X343512Y167467D01*
D02*
G37*
G36*
X346559Y120069D02*
X347764Y119864D01*
X348657Y119607D01*
X348673Y119615D01*
X349516Y119265D01*
X350315Y118775D01*
X350907Y118270D01*
X351048Y118130D01*
X351525Y117572D01*
X351994Y116806D01*
X352338Y115975D01*
X352384Y115785D01*
X352378Y115784D01*
X352544Y115210D01*
X352747Y114016D01*
X352815Y112806D01*
X352807Y112679D01*
X352816Y112679D01*
X352816Y112679D01*
Y99607D01*
X350740D01*
Y101772D01*
Y101958D01*
X350740Y102181D01*
X350737Y102188D01*
X350710Y102202D01*
X350539Y102047D01*
X350401Y101922D01*
X350325Y101854D01*
X349212Y101028D01*
X348616Y100671D01*
X348616D01*
X348444Y100564D01*
X347666Y100134D01*
X346818Y99783D01*
X346628Y99714D01*
X346443Y99651D01*
X345859Y99453D01*
X344892Y99261D01*
X344691Y99239D01*
X344173Y99162D01*
X342940Y99101D01*
X342740Y99097D01*
X342541Y99103D01*
X341701Y99158D01*
X340738Y99349D01*
X340274Y99507D01*
X340084Y99572D01*
X339483Y99821D01*
X338695Y100303D01*
X338303Y100638D01*
X338303Y100638D01*
X338059Y100846D01*
X337520Y101477D01*
X337087Y102184D01*
X336992Y102414D01*
X336992D01*
X336915Y102598D01*
X336762Y102968D01*
X336563Y103794D01*
X336507Y104514D01*
X336506Y104715D01*
X336506D01*
X336501Y104779D01*
X336497Y104916D01*
X336567Y105815D01*
X336788Y106733D01*
X337150Y107606D01*
X337644Y108412D01*
X338257Y109131D01*
X338976Y109745D01*
X339457Y110039D01*
X339620Y110149D01*
X339799Y110269D01*
X340569Y110649D01*
X340755Y110727D01*
X341301Y110953D01*
X341493Y111012D01*
X341975Y111185D01*
X342289Y111264D01*
Y111264D01*
X342290Y111265D01*
X342950Y111430D01*
X343147Y111471D01*
Y111471D01*
X343795Y111614D01*
X344062Y111649D01*
X344063Y111651D01*
X344838Y111753D01*
X345038Y111776D01*
X345237Y111800D01*
X345871Y111875D01*
X345873Y111875D01*
X346072Y111884D01*
X346272Y111897D01*
X346966Y111922D01*
X347167Y111929D01*
X347368Y111935D01*
X348306Y111966D01*
X348321Y111966D01*
Y111967D01*
X350716Y111967D01*
X350716D01*
X350717Y111967D01*
X350724Y111970D01*
X350725Y111971D01*
X350739Y111978D01*
X350744Y112089D01*
Y112089D01*
X350740Y112159D01*
X350677Y113604D01*
X350598Y114209D01*
X350575Y114409D01*
X350564Y114559D01*
X350552Y114609D01*
X350404Y115225D01*
X350142Y115857D01*
X349844Y116343D01*
X349720Y116493D01*
X349480Y116786D01*
X348911Y117253D01*
X348346Y117555D01*
X348262Y117600D01*
X348160Y117631D01*
X348159Y117631D01*
X348156Y117624D01*
X347534Y117835D01*
X346487Y118043D01*
X345423Y118113D01*
X345303Y118105D01*
X345102Y118107D01*
X345075Y118108D01*
X344904Y118100D01*
X344023Y118056D01*
X343823Y118044D01*
X343525Y118027D01*
Y118027D01*
X343481Y118022D01*
X343329Y117996D01*
X343065Y117951D01*
X343057Y117957D01*
X342803Y117907D01*
X342620Y117870D01*
X342619Y117871D01*
X342617Y117870D01*
X342431Y117833D01*
X342201Y117787D01*
X342192Y117772D01*
X342007Y117727D01*
X341851Y117690D01*
X341816Y117675D01*
X341816Y117673D01*
X341465Y117527D01*
Y117527D01*
X341132Y117389D01*
X341137Y117379D01*
X340834Y117217D01*
Y117217D01*
X340714Y117151D01*
X340667Y117113D01*
X340170Y116705D01*
X339723Y116161D01*
X339391Y115540D01*
X339187Y114867D01*
X339156Y114549D01*
X337276D01*
X337167Y114665D01*
X337145Y114750D01*
X337278Y115421D01*
X337317Y115612D01*
X337366Y115807D01*
X337467Y116104D01*
X337458Y116124D01*
X337565Y116383D01*
X337642Y116568D01*
X337642D01*
X337792Y116930D01*
X338222Y117631D01*
X338729Y118226D01*
X339202Y118629D01*
X339356Y118753D01*
X339519Y118855D01*
X340018Y119160D01*
X340204Y119239D01*
X340491Y119380D01*
X340654Y119442D01*
X340679Y119450D01*
X340867Y119515D01*
X341196Y119627D01*
X341196Y119627D01*
X341515Y119736D01*
X341748Y119782D01*
X341943Y119832D01*
X342340Y119899D01*
Y119899D01*
X342340Y119900D01*
X342769Y119972D01*
X342968Y119998D01*
X343359Y120056D01*
X343635Y120070D01*
X343636Y120071D01*
X344139Y120096D01*
X344339Y120105D01*
X344880Y120129D01*
X345082Y120123D01*
X345339Y120138D01*
X346559Y120069D01*
D02*
G37*
G36*
X333494Y120100D02*
X333513Y118199D01*
X333364Y118063D01*
X333101Y118089D01*
X332923Y118107D01*
X332900Y118105D01*
X332704Y118090D01*
X332338D01*
X332141Y118102D01*
X332134Y118102D01*
X331946Y118087D01*
X331463Y118050D01*
X330808Y117892D01*
X330412Y117728D01*
X330409Y117735D01*
X329657Y117364D01*
X328975Y116909D01*
X328843Y116820D01*
X328812Y116793D01*
X328673Y116686D01*
X327843Y115945D01*
X327547Y115614D01*
X327413Y115464D01*
X327413Y115464D01*
X327413Y115463D01*
X327279Y115313D01*
X327022Y115026D01*
X326385Y114128D01*
X326361Y114093D01*
X326284Y113956D01*
X326291Y113951D01*
X326289Y113946D01*
Y99607D01*
X324213D01*
Y119621D01*
X326289D01*
Y117306D01*
X326289Y117120D01*
Y116878D01*
X326288Y116877D01*
X326289Y116871D01*
Y116866D01*
X326292Y116859D01*
X326300Y116856D01*
X326300Y116855D01*
X326319Y116851D01*
X326491Y117043D01*
X326615Y117182D01*
X326962Y117571D01*
X327864Y118377D01*
X328073Y118525D01*
X328234Y118646D01*
X329022Y119173D01*
X329748Y119531D01*
X329748Y119531D01*
X330390Y119797D01*
X331310Y120018D01*
X331318Y120012D01*
X331547Y120058D01*
X332695Y120133D01*
X332695D01*
X332699Y120137D01*
X333085D01*
X333494Y120100D01*
D02*
G37*
G36*
X436020Y120066D02*
X436929Y119847D01*
X437793Y119490D01*
X438062Y119325D01*
X438233Y119220D01*
X438402Y119112D01*
X438960Y118635D01*
X439479Y118028D01*
X439897Y117347D01*
X440178Y116668D01*
X440185Y116651D01*
X440204Y116604D01*
X440236Y116470D01*
X440281Y116460D01*
X440503Y116792D01*
X441308Y117710D01*
X441929Y118255D01*
X441928Y118256D01*
X442141Y118443D01*
X443072Y119065D01*
X443699Y119375D01*
X443698Y119376D01*
X443966Y119508D01*
X444935Y119837D01*
X445505Y119950D01*
X445506Y119952D01*
X446212Y120072D01*
X447072Y120120D01*
X447270Y120131D01*
Y120131D01*
X447274Y120131D01*
X447470Y120129D01*
X448378Y120058D01*
X449098Y119885D01*
X449284Y119840D01*
X449467Y119767D01*
X449943Y119569D01*
X450117Y119468D01*
X450117D01*
X450553Y119201D01*
X451095Y118737D01*
X451559Y118195D01*
X451867Y117692D01*
X451954Y117510D01*
X452180Y117053D01*
X452345Y116567D01*
X452345Y116567D01*
X452345Y116567D01*
X452494Y116126D01*
X452585Y115674D01*
X452624Y115478D01*
X452659Y115280D01*
X452774Y114601D01*
X452794Y114242D01*
X452809Y114042D01*
X452865Y112903D01*
X452863Y112859D01*
X452865Y112859D01*
X452890Y99749D01*
X452747Y99607D01*
X450814D01*
Y112484D01*
X450830Y112679D01*
X450832Y112709D01*
X450823Y112877D01*
X450780Y113763D01*
X450767Y113964D01*
X450750Y114259D01*
X450715Y114452D01*
X450703Y114521D01*
X450675Y114720D01*
X450675D01*
X450589Y115149D01*
X450550Y115346D01*
X450526Y115469D01*
X450498Y115550D01*
X450450Y115729D01*
X450447Y115743D01*
X450447Y115743D01*
X450442Y115761D01*
X450378Y115915D01*
X450377Y115915D01*
X450240Y116247D01*
X450245Y116250D01*
X450085Y116549D01*
X450085D01*
X450085Y116549D01*
X449975Y116755D01*
X449920Y116822D01*
X449920Y116822D01*
X449918Y116821D01*
X449652Y117145D01*
X449406Y117346D01*
X449401Y117350D01*
X449396Y117355D01*
X449262Y117465D01*
X449251Y117474D01*
Y117474D01*
X449141Y117533D01*
X448967Y117625D01*
X448967Y117625D01*
X448964Y117627D01*
X448964D01*
X448718Y117759D01*
X448663Y117777D01*
X448515Y117822D01*
X448326Y117879D01*
X448327Y117884D01*
X447967Y117970D01*
X447967Y117971D01*
X447782Y118015D01*
X447750Y118023D01*
X447583Y118037D01*
Y118037D01*
X447172Y118069D01*
X446971Y118081D01*
X446743Y118096D01*
X446737Y118096D01*
Y118096D01*
X446546Y118079D01*
X445881Y118026D01*
X444973Y117808D01*
X444112Y117452D01*
X443480Y117065D01*
X443477Y117070D01*
X442495Y116342D01*
X441537Y115473D01*
X440669Y114515D01*
X440417Y114176D01*
X440418Y114175D01*
X440415Y114168D01*
Y99598D01*
X438339D01*
Y112479D01*
X438347Y112679D01*
X438356Y112856D01*
X438355Y112878D01*
X438291Y114177D01*
X438149Y115136D01*
X438153Y115136D01*
X438137Y115292D01*
X438125Y115334D01*
X437900Y116076D01*
X437592Y116652D01*
X437513Y116799D01*
X437490Y116827D01*
X437490Y116827D01*
X437480Y116821D01*
X437206Y117154D01*
X436786Y117499D01*
X436400Y117705D01*
X436306Y117756D01*
X436215Y117783D01*
X436030Y117858D01*
X436022Y117861D01*
X435255Y118045D01*
X434522Y118103D01*
X434469Y118107D01*
X434321Y118103D01*
Y118103D01*
X433509Y118039D01*
X432673Y117838D01*
X431878Y117509D01*
X431177Y117079D01*
X431184Y117069D01*
X430436Y116514D01*
X429369Y115547D01*
X428403Y114480D01*
X428184Y114186D01*
X428187Y114183D01*
X428184Y114177D01*
Y114177D01*
Y99607D01*
X426108D01*
Y119621D01*
X428184D01*
Y117090D01*
X428184Y116904D01*
Y116657D01*
X428187Y116649D01*
X428188Y116649D01*
X428195Y116646D01*
X428195Y116646D01*
X428196Y116646D01*
X428216Y116639D01*
X428386Y116826D01*
X428386D01*
X428511Y116964D01*
X428846Y117334D01*
X429821Y118218D01*
X430180Y118484D01*
Y118484D01*
X430184Y118506D01*
X431152Y119153D01*
X431919Y119531D01*
X431920Y119531D01*
X431920D01*
X432570Y119801D01*
X433463Y120015D01*
X433478Y120005D01*
X433877Y120073D01*
X434691Y120119D01*
X434893Y120124D01*
Y120124D01*
X435088Y120139D01*
X436020Y120066D01*
D02*
G37*
G36*
X390885Y120126D02*
X391086Y120129D01*
X392062Y120074D01*
X393104Y119897D01*
X394121Y119604D01*
X394607Y119402D01*
X394624Y119409D01*
X395470Y118992D01*
X396305Y118434D01*
X397061Y117771D01*
X397437Y117342D01*
X397437Y117342D01*
X397751Y116984D01*
X398432Y115966D01*
X398974Y114867D01*
X399251Y114051D01*
X399251Y114051D01*
X399251D01*
X399261Y114045D01*
X399597Y112704D01*
X399825Y111169D01*
X399901Y109620D01*
X399825Y108071D01*
X399597Y106536D01*
X399262Y105196D01*
X399249Y105189D01*
X399249D01*
X399148Y104839D01*
X398740Y103855D01*
X398225Y102922D01*
X397608Y102053D01*
X397448Y101874D01*
X397445Y101877D01*
X397078Y101458D01*
X396316Y100790D01*
X395474Y100227D01*
X394627Y99810D01*
X394613Y99815D01*
X394250Y99665D01*
X393166Y99353D01*
X392054Y99164D01*
X390929Y99101D01*
X389803Y99164D01*
X388691Y99353D01*
X387607Y99665D01*
X387245Y99815D01*
X387227Y99809D01*
X386371Y100231D01*
X385551Y100779D01*
X384810Y101429D01*
X384429Y101864D01*
X384426Y101862D01*
X384250Y102059D01*
X383627Y102937D01*
X383106Y103879D01*
X382694Y104873D01*
X382607Y105176D01*
X382594Y105183D01*
X382251Y106553D01*
X382024Y108086D01*
X381948Y109633D01*
X382024Y111179D01*
X382251Y112712D01*
X382594Y114083D01*
X382606Y114089D01*
Y114089D01*
X382885Y114910D01*
X383424Y116004D01*
X384102Y117019D01*
X384415Y117376D01*
X384416Y117375D01*
X384772Y117781D01*
X385530Y118446D01*
X386369Y119007D01*
X387240Y119436D01*
X387240Y119436D01*
Y119436D01*
X387242Y119441D01*
X388360Y119820D01*
X389557Y120058D01*
X390683Y120132D01*
X390885Y120126D01*
D02*
G37*
G36*
X296993Y111458D02*
X296993Y111458D01*
X296983Y111458D01*
X296994Y111178D01*
X296918Y109232D01*
X296689Y107298D01*
X296479Y106244D01*
X296481Y106243D01*
X296428Y105929D01*
X296132Y104903D01*
X295724Y103917D01*
X295208Y102982D01*
X294766Y102361D01*
X294766D01*
X294766Y102361D01*
X294767Y102352D01*
X294194Y101698D01*
X293442Y101039D01*
X292611Y100483D01*
X291714Y100041D01*
X291431Y99945D01*
X291430Y99947D01*
X290780Y99715D01*
X289389Y99366D01*
X287971Y99156D01*
X286539Y99086D01*
X286104Y99107D01*
X286102Y99103D01*
X285792Y99088D01*
X284253Y99164D01*
X282729Y99390D01*
X281746Y99636D01*
X281726Y99625D01*
X280610Y100004D01*
X279524Y100539D01*
X278905Y100953D01*
X278740Y101063D01*
X278740D01*
X278578Y101182D01*
X277944Y101738D01*
X277333Y102435D01*
X276847Y103163D01*
X276850Y103176D01*
Y103176D01*
X276850D01*
X276460Y103882D01*
X276007Y104975D01*
X275783Y105753D01*
X275784Y105754D01*
X275784D01*
X275784Y105754D01*
X275565Y106627D01*
X275354Y108051D01*
X275327Y108594D01*
X275308Y108611D01*
X275264Y109457D01*
X275276Y109470D01*
X275276D01*
X275276Y109470D01*
X275257Y110132D01*
X275252Y110333D01*
X275251D01*
X275226Y111182D01*
X275218Y111190D01*
X275217Y111462D01*
Y127895D01*
X277293D01*
Y111544D01*
X277291Y111542D01*
X277291D01*
X277291Y111542D01*
X277269Y111049D01*
X277343Y109351D01*
X277565Y107667D01*
X277873Y106275D01*
X277873Y106275D01*
X277896Y106160D01*
X277923Y106081D01*
X278201Y105261D01*
X278621Y104410D01*
X279149Y103620D01*
X279602Y103103D01*
X279592Y103092D01*
X280294Y102492D01*
X281084Y102008D01*
X281939Y101654D01*
X282179Y101597D01*
X282374Y101549D01*
X282939Y101407D01*
X284439Y101185D01*
X285953Y101110D01*
X286115Y101117D01*
X286264Y101110D01*
X286315Y101112D01*
X287822Y101187D01*
X289365Y101415D01*
X289894Y101548D01*
X289894Y101549D01*
X289894Y101550D01*
X290357Y101661D01*
X291181Y102002D01*
X291941Y102468D01*
X292528Y102969D01*
X292619Y103047D01*
X292672Y103109D01*
X292665Y103117D01*
X292665Y103117D01*
X292665Y103118D01*
X292794Y103265D01*
X293045Y103551D01*
X293584Y104357D01*
X294012Y105226D01*
X294306Y106093D01*
X294324Y106144D01*
X294353Y106288D01*
X294351Y106289D01*
X294641Y107600D01*
X294866Y109308D01*
X294941Y111029D01*
X294919Y111542D01*
Y111542D01*
X294917Y111544D01*
Y127895D01*
X296993D01*
Y111458D01*
D02*
G37*
G36*
X407040Y117089D02*
X407040Y116903D01*
Y116903D01*
X407041Y116657D01*
X407044Y116649D01*
X407052Y116646D01*
X407052Y116646D01*
X407073Y116638D01*
X407242Y116826D01*
X407366Y116965D01*
X407675Y117311D01*
X408734Y118257D01*
X409005Y118450D01*
X409007Y118459D01*
X409850Y119023D01*
X410672Y119428D01*
X410851Y119512D01*
X411038Y119579D01*
X411812Y119842D01*
X412372Y119954D01*
X412570Y119988D01*
X413064Y120072D01*
X413915Y120120D01*
X414114Y120128D01*
Y120128D01*
X414144Y120130D01*
X414314Y120129D01*
X415257Y120067D01*
X416156Y119888D01*
X416350Y119833D01*
X416542Y119784D01*
X417284Y119476D01*
Y119476D01*
X417284Y119476D01*
X417286Y119477D01*
X417949Y119071D01*
X418548Y118559D01*
X419060Y117959D01*
X419472Y117287D01*
X419692Y116757D01*
X419757Y116567D01*
X419980Y115908D01*
X420066Y115477D01*
X420108Y115280D01*
X420247Y114462D01*
X420259Y114242D01*
X420259D01*
X420275Y114042D01*
X420332Y112893D01*
X420330Y112859D01*
X420333Y112859D01*
X420333Y112859D01*
Y99607D01*
X418257D01*
Y112480D01*
X418266Y112679D01*
X418274Y112826D01*
X418271Y112879D01*
X418208Y114003D01*
X418021Y115101D01*
X418021Y115101D01*
X417812Y115791D01*
X417435Y116495D01*
X417328Y116626D01*
X417201Y116781D01*
X417202Y116782D01*
X417052Y116965D01*
X416535Y117389D01*
X415944Y117704D01*
X415930Y117709D01*
X415742Y117783D01*
X415719Y117792D01*
X415547Y117834D01*
X414724Y118031D01*
X413730Y118109D01*
X413704Y118112D01*
X413530Y118105D01*
Y118105D01*
X412620Y118033D01*
X411696Y117812D01*
X410819Y117448D01*
X410224Y117084D01*
X410217Y117095D01*
X410193Y117080D01*
X410054Y116977D01*
X408988Y116186D01*
X407876Y115178D01*
X407025Y114239D01*
X407031Y114234D01*
X407028Y114227D01*
Y99607D01*
X404952D01*
Y127895D01*
X407028D01*
X407040Y117089D01*
D02*
G37*
G36*
X378126Y125141D02*
X359097Y101999D01*
X358978Y101855D01*
Y101855D01*
X358827Y101671D01*
X358826Y101668D01*
X358825Y101664D01*
X358825Y101664D01*
X358825Y101663D01*
X358825Y101663D01*
X358826Y101660D01*
X358828Y101657D01*
X358828Y101656D01*
X358829Y101656D01*
X358829Y101656D01*
X358832Y101655D01*
X358836Y101654D01*
X359073D01*
X359260Y101654D01*
X378663D01*
Y99607D01*
X356732D01*
Y102332D01*
X375729Y125499D01*
X375847Y125643D01*
X375997Y125826D01*
X375998Y125830D01*
X376000Y125833D01*
X375999Y125834D01*
X376000Y125834D01*
X375998Y125837D01*
X375996Y125841D01*
X375996Y125841D01*
X375996Y125841D01*
X375996Y125842D01*
X375992Y125843D01*
X375989Y125844D01*
X358427D01*
Y127895D01*
X378126D01*
Y125141D01*
D02*
G37*
G36*
X306375Y99607D02*
X304299D01*
Y127895D01*
X306375D01*
Y99607D01*
D02*
G37*
G36*
X315921Y119636D02*
X315924Y119628D01*
X315932Y119625D01*
X319232D01*
Y117578D01*
X315932D01*
X315924Y117575D01*
X315921Y117567D01*
Y105141D01*
X315914Y105135D01*
X315914D01*
X315914Y105135D01*
X315901Y104931D01*
X315974Y103813D01*
X316106Y103152D01*
X316095Y103150D01*
X316240Y102670D01*
X316478Y102225D01*
X316653Y102011D01*
X316654Y102010D01*
X316654Y102010D01*
X316654Y102010D01*
X316651Y102007D01*
X316709Y101931D01*
X316792Y101868D01*
X317054Y101667D01*
X317366Y101538D01*
X317456Y101500D01*
X317557Y101487D01*
X317751Y101442D01*
X317822Y101425D01*
X318571Y101366D01*
X318704Y101355D01*
X318773Y101361D01*
X318970Y101372D01*
X319268D01*
X319353Y101373D01*
X319398Y101373D01*
X319399Y101373D01*
X319444Y101374D01*
X319444Y101374D01*
X319533Y101376D01*
X319540Y101375D01*
X319649Y101299D01*
X319726Y101200D01*
X319723Y99425D01*
X319467Y99398D01*
X319290Y99382D01*
X319112Y99367D01*
X319048Y99362D01*
X318846Y99366D01*
X318582Y99348D01*
X318582Y99348D01*
X318381Y99326D01*
X318317Y99324D01*
X318317D01*
X318228Y99323D01*
X318155Y99322D01*
X317962Y99337D01*
X317752Y99320D01*
X316932Y99385D01*
X316132Y99577D01*
X315796Y99716D01*
X315784Y99711D01*
X315365Y99936D01*
X314968Y100261D01*
X314642Y100658D01*
X314552Y100827D01*
X314552D01*
X314453Y101002D01*
X314197Y101621D01*
X314020Y102358D01*
X313994Y102687D01*
X313993Y102687D01*
X313916Y103334D01*
X313846Y105126D01*
X313853Y105310D01*
X313845Y105311D01*
X313845Y105311D01*
Y117563D01*
X313842Y117571D01*
X313834Y117574D01*
X311264D01*
Y119621D01*
X313834D01*
X313842Y119624D01*
X313845Y119632D01*
Y124874D01*
X315921D01*
Y119636D01*
D02*
G37*
G36*
X377953Y74803D02*
D01*
Y62704D01*
Y51181D01*
X275590D01*
Y62992D01*
Y74396D01*
D01*
Y86614D01*
X377953D01*
Y74803D01*
D02*
G37*
G36*
X421678Y73649D02*
X421058D01*
Y74357D01*
X421678D01*
Y73649D01*
D02*
G37*
G36*
X432831Y72964D02*
X433437D01*
Y72454D01*
X432729D01*
X432474Y71200D01*
X433437D01*
Y70690D01*
X432365D01*
X432073Y69224D01*
X431556D01*
X431855Y70690D01*
X430776D01*
X430477Y69224D01*
X429967D01*
X430258Y70690D01*
X429682D01*
Y71200D01*
X430368D01*
X430623Y72454D01*
X429682D01*
Y72964D01*
X430725D01*
X431031Y74444D01*
X431541D01*
X431242Y72964D01*
X432314D01*
X432620Y74444D01*
X433138D01*
X432831Y72964D01*
D02*
G37*
G36*
X412048Y74437D02*
X412099D01*
X412237Y74422D01*
X412390Y74400D01*
X412551Y74364D01*
X412726Y74320D01*
X412886Y74262D01*
X412893D01*
X412908Y74255D01*
X412930Y74240D01*
X412959Y74225D01*
X413032Y74189D01*
X413127Y74123D01*
X413236Y74050D01*
X413345Y73956D01*
X413447Y73846D01*
X413542Y73722D01*
Y73715D01*
X413550Y73708D01*
X413564Y73686D01*
X413579Y73664D01*
X413615Y73591D01*
X413659Y73496D01*
X413710Y73380D01*
X413746Y73241D01*
X413783Y73095D01*
X413797Y72935D01*
X413156Y72884D01*
Y72891D01*
Y72906D01*
X413148Y72928D01*
X413141Y72964D01*
X413119Y73044D01*
X413090Y73154D01*
X413047Y73270D01*
X412981Y73387D01*
X412901Y73496D01*
X412799Y73598D01*
X412784Y73606D01*
X412748Y73635D01*
X412675Y73679D01*
X412580Y73722D01*
X412456Y73766D01*
X412310Y73810D01*
X412128Y73839D01*
X411924Y73846D01*
X411822D01*
X411778Y73839D01*
X411720Y73832D01*
X411588Y73817D01*
X411443Y73788D01*
X411297Y73751D01*
X411158Y73693D01*
X411100Y73657D01*
X411042Y73620D01*
X411027Y73613D01*
X410998Y73584D01*
X410954Y73533D01*
X410911Y73475D01*
X410859Y73394D01*
X410816Y73307D01*
X410787Y73205D01*
X410772Y73088D01*
Y73074D01*
Y73044D01*
X410779Y72993D01*
X410794Y72935D01*
X410816Y72862D01*
X410852Y72789D01*
X410896Y72716D01*
X410961Y72643D01*
X410969Y72636D01*
X411005Y72614D01*
X411034Y72592D01*
X411064Y72578D01*
X411107Y72556D01*
X411158Y72527D01*
X411224Y72505D01*
X411297Y72476D01*
X411377Y72447D01*
X411472Y72410D01*
X411574Y72381D01*
X411691Y72344D01*
X411822Y72315D01*
X411968Y72279D01*
X411975D01*
X412004Y72272D01*
X412048Y72264D01*
X412099Y72250D01*
X412164Y72235D01*
X412245Y72213D01*
X412325Y72191D01*
X412412Y72170D01*
X412602Y72119D01*
X412784Y72067D01*
X412872Y72038D01*
X412952Y72009D01*
X413025Y71987D01*
X413083Y71958D01*
X413090D01*
X413105Y71951D01*
X413127Y71936D01*
X413156Y71922D01*
X413236Y71878D01*
X413331Y71820D01*
X413440Y71740D01*
X413550Y71652D01*
X413652Y71550D01*
X413739Y71441D01*
X413746Y71426D01*
X413775Y71390D01*
X413805Y71324D01*
X413848Y71236D01*
X413885Y71134D01*
X413921Y71011D01*
X413943Y70872D01*
X413950Y70726D01*
Y70719D01*
Y70712D01*
Y70690D01*
Y70661D01*
X413936Y70580D01*
X413921Y70478D01*
X413892Y70362D01*
X413856Y70238D01*
X413797Y70107D01*
X413717Y69968D01*
Y69961D01*
X413710Y69953D01*
X413673Y69910D01*
X413622Y69844D01*
X413550Y69771D01*
X413455Y69684D01*
X413338Y69589D01*
X413207Y69501D01*
X413054Y69421D01*
X413047D01*
X413032Y69414D01*
X413010Y69407D01*
X412981Y69392D01*
X412937Y69377D01*
X412886Y69356D01*
X412770Y69327D01*
X412631Y69290D01*
X412463Y69254D01*
X412281Y69232D01*
X412084Y69224D01*
X411968D01*
X411909Y69232D01*
X411844D01*
X411771Y69239D01*
X411683Y69246D01*
X411501Y69275D01*
X411311Y69305D01*
X411122Y69356D01*
X410940Y69421D01*
X410932D01*
X410918Y69428D01*
X410896Y69443D01*
X410867Y69458D01*
X410779Y69501D01*
X410677Y69567D01*
X410561Y69655D01*
X410437Y69757D01*
X410320Y69880D01*
X410211Y70019D01*
Y70026D01*
X410196Y70041D01*
X410189Y70063D01*
X410167Y70092D01*
X410152Y70128D01*
X410131Y70172D01*
X410079Y70281D01*
X410028Y70420D01*
X409985Y70573D01*
X409956Y70748D01*
X409941Y70930D01*
X410568Y70989D01*
Y70981D01*
Y70974D01*
X410575Y70952D01*
Y70923D01*
X410590Y70857D01*
X410612Y70763D01*
X410641Y70668D01*
X410670Y70559D01*
X410721Y70456D01*
X410772Y70362D01*
X410779Y70354D01*
X410801Y70325D01*
X410838Y70274D01*
X410896Y70223D01*
X410969Y70157D01*
X411049Y70092D01*
X411158Y70026D01*
X411275Y69968D01*
X411282D01*
X411290Y69961D01*
X411311Y69953D01*
X411333Y69946D01*
X411406Y69924D01*
X411501Y69895D01*
X411618Y69866D01*
X411749Y69844D01*
X411895Y69829D01*
X412055Y69822D01*
X412121D01*
X412193Y69829D01*
X412281Y69837D01*
X412383Y69851D01*
X412500Y69866D01*
X412616Y69895D01*
X412726Y69932D01*
X412740Y69939D01*
X412777Y69953D01*
X412828Y69983D01*
X412893Y70012D01*
X412959Y70063D01*
X413032Y70114D01*
X413105Y70172D01*
X413163Y70245D01*
X413170Y70252D01*
X413185Y70281D01*
X413207Y70318D01*
X413236Y70376D01*
X413265Y70435D01*
X413287Y70507D01*
X413302Y70588D01*
X413309Y70675D01*
Y70682D01*
Y70719D01*
X413302Y70763D01*
X413294Y70821D01*
X413272Y70879D01*
X413251Y70952D01*
X413214Y71025D01*
X413163Y71091D01*
X413156Y71098D01*
X413134Y71120D01*
X413105Y71149D01*
X413054Y71193D01*
X412995Y71236D01*
X412915Y71288D01*
X412820Y71338D01*
X412711Y71382D01*
X412704Y71390D01*
X412667Y71397D01*
X412609Y71419D01*
X412573Y71426D01*
X412522Y71441D01*
X412471Y71462D01*
X412405Y71477D01*
X412332Y71499D01*
X412245Y71521D01*
X412157Y71543D01*
X412055Y71572D01*
X411938Y71601D01*
X411814Y71630D01*
X411807D01*
X411785Y71637D01*
X411749Y71645D01*
X411705Y71659D01*
X411647Y71674D01*
X411581Y71688D01*
X411435Y71732D01*
X411275Y71783D01*
X411107Y71834D01*
X410961Y71885D01*
X410896Y71914D01*
X410838Y71944D01*
X410830D01*
X410823Y71951D01*
X410779Y71980D01*
X410714Y72017D01*
X410641Y72075D01*
X410553Y72140D01*
X410466Y72221D01*
X410378Y72315D01*
X410305Y72417D01*
X410298Y72432D01*
X410276Y72469D01*
X410247Y72527D01*
X410218Y72600D01*
X410189Y72694D01*
X410160Y72804D01*
X410138Y72920D01*
X410131Y73044D01*
Y73052D01*
Y73059D01*
Y73081D01*
Y73110D01*
X410145Y73183D01*
X410160Y73278D01*
X410182Y73387D01*
X410218Y73511D01*
X410269Y73635D01*
X410342Y73759D01*
Y73766D01*
X410349Y73773D01*
X410386Y73817D01*
X410437Y73875D01*
X410502Y73948D01*
X410590Y74028D01*
X410699Y74116D01*
X410830Y74196D01*
X410976Y74269D01*
X410983D01*
X410998Y74276D01*
X411020Y74284D01*
X411049Y74298D01*
X411086Y74313D01*
X411136Y74327D01*
X411246Y74357D01*
X411384Y74386D01*
X411545Y74415D01*
X411712Y74437D01*
X411902Y74444D01*
X411997D01*
X412048Y74437D01*
D02*
G37*
G36*
X420169Y73044D02*
X420249Y73030D01*
X420344Y73001D01*
X420446Y72964D01*
X420563Y72913D01*
X420686Y72847D01*
X420460Y72279D01*
X420453Y72286D01*
X420424Y72301D01*
X420380Y72323D01*
X420322Y72344D01*
X420256Y72366D01*
X420176Y72388D01*
X420096Y72403D01*
X420016Y72410D01*
X419979D01*
X419943Y72403D01*
X419892Y72396D01*
X419841Y72381D01*
X419775Y72359D01*
X419709Y72330D01*
X419651Y72286D01*
X419644Y72279D01*
X419622Y72264D01*
X419600Y72235D01*
X419564Y72199D01*
X419527Y72148D01*
X419491Y72089D01*
X419454Y72024D01*
X419425Y71944D01*
X419418Y71929D01*
X419411Y71885D01*
X419396Y71820D01*
X419374Y71732D01*
X419352Y71623D01*
X419338Y71499D01*
X419331Y71368D01*
X419323Y71222D01*
Y69312D01*
X418704D01*
Y72971D01*
X419265D01*
Y72417D01*
X419272Y72425D01*
X419301Y72476D01*
X419338Y72541D01*
X419396Y72622D01*
X419454Y72702D01*
X419520Y72789D01*
X419586Y72862D01*
X419651Y72920D01*
X419659Y72928D01*
X419680Y72942D01*
X419724Y72964D01*
X419768Y72986D01*
X419826Y73008D01*
X419899Y73030D01*
X419972Y73044D01*
X420052Y73052D01*
X420103D01*
X420169Y73044D01*
D02*
G37*
G36*
X427153Y69312D02*
X426533D01*
Y74357D01*
X427153D01*
Y69312D01*
D02*
G37*
G36*
X424331Y73044D02*
X424441Y73037D01*
X424565Y73023D01*
X424689Y73001D01*
X424813Y72971D01*
X424929Y72935D01*
X424944Y72928D01*
X424980Y72913D01*
X425031Y72891D01*
X425097Y72862D01*
X425170Y72818D01*
X425243Y72775D01*
X425308Y72716D01*
X425367Y72658D01*
X425374Y72651D01*
X425388Y72629D01*
X425410Y72592D01*
X425440Y72549D01*
X425476Y72483D01*
X425505Y72417D01*
X425534Y72337D01*
X425556Y72242D01*
Y72235D01*
X425563Y72213D01*
X425571Y72170D01*
X425578Y72111D01*
Y72031D01*
X425585Y71936D01*
X425593Y71812D01*
Y71674D01*
Y70843D01*
Y70836D01*
Y70806D01*
Y70763D01*
Y70704D01*
Y70639D01*
Y70559D01*
X425600Y70384D01*
Y70201D01*
X425607Y70019D01*
X425614Y69939D01*
Y69866D01*
X425622Y69800D01*
X425629Y69749D01*
Y69742D01*
X425636Y69713D01*
X425644Y69669D01*
X425666Y69611D01*
X425680Y69545D01*
X425709Y69472D01*
X425746Y69392D01*
X425782Y69312D01*
X425133D01*
X425126Y69319D01*
X425119Y69348D01*
X425104Y69385D01*
X425082Y69443D01*
X425060Y69509D01*
X425046Y69589D01*
X425031Y69676D01*
X425017Y69771D01*
X425009D01*
X425002Y69757D01*
X424958Y69720D01*
X424893Y69669D01*
X424805Y69604D01*
X424696Y69538D01*
X424586Y69465D01*
X424470Y69399D01*
X424346Y69348D01*
X424331Y69341D01*
X424288Y69334D01*
X424222Y69312D01*
X424142Y69290D01*
X424040Y69268D01*
X423923Y69254D01*
X423792Y69239D01*
X423661Y69232D01*
X423602D01*
X423559Y69239D01*
X423508D01*
X423449Y69246D01*
X423318Y69268D01*
X423172Y69305D01*
X423012Y69356D01*
X422866Y69428D01*
X422735Y69523D01*
X422720Y69538D01*
X422684Y69574D01*
X422633Y69640D01*
X422575Y69727D01*
X422516Y69837D01*
X422465Y69961D01*
X422429Y70114D01*
X422421Y70187D01*
X422414Y70274D01*
Y70289D01*
Y70318D01*
X422421Y70369D01*
X422429Y70435D01*
X422443Y70515D01*
X422465Y70595D01*
X422494Y70682D01*
X422531Y70763D01*
X422538Y70770D01*
X422553Y70799D01*
X422582Y70843D01*
X422618Y70894D01*
X422662Y70952D01*
X422720Y71011D01*
X422779Y71069D01*
X422852Y71120D01*
X422859Y71127D01*
X422888Y71142D01*
X422924Y71171D01*
X422983Y71200D01*
X423048Y71229D01*
X423129Y71266D01*
X423209Y71295D01*
X423304Y71324D01*
X423311D01*
X423340Y71331D01*
X423384Y71346D01*
X423442Y71353D01*
X423515Y71368D01*
X423610Y71382D01*
X423719Y71404D01*
X423850Y71419D01*
X423857D01*
X423887Y71426D01*
X423923D01*
X423974Y71433D01*
X424032Y71441D01*
X424105Y71455D01*
X424186Y71462D01*
X424273Y71477D01*
X424448Y71513D01*
X424638Y71550D01*
X424805Y71594D01*
X424885Y71615D01*
X424958Y71637D01*
Y71645D01*
Y71659D01*
X424966Y71703D01*
Y71754D01*
Y71783D01*
Y71798D01*
Y71805D01*
Y71812D01*
Y71856D01*
X424958Y71929D01*
X424944Y72009D01*
X424922Y72097D01*
X424885Y72184D01*
X424842Y72264D01*
X424783Y72330D01*
X424776Y72337D01*
X424740Y72366D01*
X424681Y72396D01*
X424608Y72439D01*
X424506Y72476D01*
X424390Y72512D01*
X424244Y72534D01*
X424076Y72541D01*
X424003D01*
X423931Y72534D01*
X423828Y72519D01*
X423726Y72505D01*
X423617Y72476D01*
X423515Y72439D01*
X423427Y72388D01*
X423420Y72381D01*
X423391Y72359D01*
X423354Y72323D01*
X423311Y72264D01*
X423267Y72191D01*
X423216Y72097D01*
X423172Y71980D01*
X423129Y71849D01*
X422523Y71929D01*
Y71936D01*
X422531Y71944D01*
Y71965D01*
X422538Y71995D01*
X422560Y72060D01*
X422589Y72155D01*
X422625Y72250D01*
X422669Y72352D01*
X422728Y72454D01*
X422793Y72549D01*
X422800Y72556D01*
X422830Y72585D01*
X422873Y72629D01*
X422932Y72687D01*
X423012Y72746D01*
X423107Y72804D01*
X423216Y72869D01*
X423340Y72920D01*
X423347D01*
X423354Y72928D01*
X423376Y72935D01*
X423406Y72942D01*
X423479Y72964D01*
X423581Y72986D01*
X423697Y73008D01*
X423843Y73030D01*
X423996Y73044D01*
X424171Y73052D01*
X424251D01*
X424331Y73044D01*
D02*
G37*
G36*
X421678Y69312D02*
X421058D01*
Y72971D01*
X421678D01*
Y69312D01*
D02*
G37*
G36*
X416407Y73044D02*
X416466Y73037D01*
X416538Y73023D01*
X416619Y73008D01*
X416713Y72986D01*
X416801Y72964D01*
X416903Y72928D01*
X416998Y72891D01*
X417100Y72840D01*
X417202Y72782D01*
X417304Y72716D01*
X417399Y72636D01*
X417486Y72549D01*
X417493Y72541D01*
X417508Y72527D01*
X417530Y72498D01*
X417559Y72454D01*
X417595Y72403D01*
X417632Y72344D01*
X417676Y72272D01*
X417719Y72184D01*
X417763Y72089D01*
X417807Y71987D01*
X417843Y71871D01*
X417880Y71747D01*
X417909Y71608D01*
X417931Y71462D01*
X417945Y71309D01*
X417953Y71142D01*
Y71134D01*
Y71105D01*
Y71054D01*
X417945Y70981D01*
X415212D01*
Y70974D01*
Y70952D01*
X415219Y70923D01*
Y70879D01*
X415226Y70828D01*
X415241Y70770D01*
X415263Y70639D01*
X415306Y70493D01*
X415365Y70332D01*
X415445Y70187D01*
X415547Y70056D01*
X415554D01*
X415561Y70041D01*
X415605Y70004D01*
X415671Y69953D01*
X415758Y69902D01*
X415875Y69844D01*
X416006Y69793D01*
X416152Y69757D01*
X416232Y69749D01*
X416320Y69742D01*
X416378D01*
X416444Y69749D01*
X416524Y69764D01*
X416611Y69786D01*
X416713Y69815D01*
X416808Y69859D01*
X416903Y69917D01*
X416910Y69924D01*
X416947Y69953D01*
X416990Y69997D01*
X417041Y70056D01*
X417100Y70136D01*
X417165Y70238D01*
X417231Y70354D01*
X417289Y70493D01*
X417931Y70413D01*
Y70405D01*
X417923Y70391D01*
X417916Y70362D01*
X417902Y70318D01*
X417880Y70274D01*
X417858Y70216D01*
X417800Y70092D01*
X417727Y69953D01*
X417625Y69808D01*
X417508Y69669D01*
X417362Y69538D01*
X417355D01*
X417340Y69523D01*
X417318Y69509D01*
X417289Y69487D01*
X417245Y69465D01*
X417202Y69443D01*
X417143Y69414D01*
X417078Y69385D01*
X417005Y69356D01*
X416932Y69327D01*
X416750Y69283D01*
X416546Y69246D01*
X416320Y69232D01*
X416240D01*
X416188Y69239D01*
X416123Y69246D01*
X416043Y69261D01*
X415955Y69275D01*
X415860Y69290D01*
X415656Y69348D01*
X415547Y69392D01*
X415445Y69436D01*
X415336Y69494D01*
X415234Y69560D01*
X415139Y69633D01*
X415044Y69720D01*
X415037Y69727D01*
X415022Y69742D01*
X415000Y69771D01*
X414971Y69815D01*
X414935Y69866D01*
X414898Y69924D01*
X414854Y69997D01*
X414811Y70077D01*
X414767Y70172D01*
X414723Y70274D01*
X414687Y70391D01*
X414650Y70515D01*
X414621Y70646D01*
X414599Y70792D01*
X414585Y70945D01*
X414577Y71105D01*
Y71113D01*
Y71149D01*
Y71193D01*
X414585Y71258D01*
X414592Y71338D01*
X414599Y71426D01*
X414614Y71528D01*
X414636Y71630D01*
X414694Y71863D01*
X414731Y71980D01*
X414774Y72104D01*
X414832Y72221D01*
X414898Y72330D01*
X414971Y72439D01*
X415051Y72541D01*
X415059Y72549D01*
X415073Y72563D01*
X415102Y72585D01*
X415139Y72622D01*
X415182Y72658D01*
X415241Y72702D01*
X415306Y72753D01*
X415387Y72796D01*
X415467Y72847D01*
X415561Y72891D01*
X415664Y72935D01*
X415773Y72971D01*
X415890Y73008D01*
X416013Y73030D01*
X416145Y73044D01*
X416283Y73052D01*
X416356D01*
X416407Y73044D01*
D02*
G37*
G36*
X377953Y39370D02*
X275590D01*
Y51181D01*
X377953D01*
Y39370D01*
D02*
G37*
%LPC*%
G36*
X337467Y116104D02*
Y116104D01*
D01*
Y116104D01*
D02*
G37*
G36*
X347534Y109937D02*
X347378Y109931D01*
X345853Y109877D01*
X345653Y109866D01*
X345516Y109861D01*
X345066Y109807D01*
X345060Y109812D01*
Y109812D01*
X344314Y109714D01*
X344314Y109713D01*
X344314Y109713D01*
X343612Y109609D01*
X343603Y109597D01*
X343154Y109520D01*
X342957Y109464D01*
X342958Y109462D01*
X342351Y109288D01*
X342351Y109289D01*
X341788Y109098D01*
X341787Y109097D01*
X341597Y109032D01*
X341454Y108962D01*
X341271Y108878D01*
X341092Y108804D01*
X340804Y108628D01*
X340803Y108626D01*
X340370Y108395D01*
X339750Y107886D01*
X339241Y107266D01*
X338863Y106558D01*
X338630Y105791D01*
X338564Y105121D01*
X338551Y104992D01*
X338558Y104920D01*
X338554Y104802D01*
X338616Y104171D01*
X338800Y103564D01*
X339099Y103004D01*
X339502Y102514D01*
X339978Y102123D01*
X339981Y102127D01*
X340535Y101787D01*
X340925Y101626D01*
Y101626D01*
X340925Y101626D01*
X341291Y101474D01*
X341646Y101389D01*
X341653Y101377D01*
X341856Y101337D01*
X342052Y101297D01*
X342053Y101297D01*
Y101297D01*
X342055Y101296D01*
X342055Y101297D01*
X342250Y101258D01*
X342469Y101215D01*
X342468Y101213D01*
X342531Y101200D01*
X342708Y101189D01*
X342908Y101173D01*
X343368Y101147D01*
Y101147D01*
X343567Y101136D01*
X343843Y101120D01*
X343848Y101121D01*
X343876Y101124D01*
X344744Y101181D01*
X345598Y101351D01*
X345921Y101460D01*
X345925Y101458D01*
X345925D01*
Y101458D01*
X346178Y101531D01*
X347173Y101943D01*
X347819Y102300D01*
X347819Y102300D01*
X348165Y102491D01*
X349193Y103220D01*
X349446Y103446D01*
X349453Y103446D01*
X350369Y104276D01*
X350737Y104682D01*
X350737Y104682D01*
X350740Y104690D01*
Y109909D01*
X350737Y109917D01*
X350729Y109920D01*
X347773D01*
X347578Y109935D01*
X347534Y109937D01*
D02*
G37*
G36*
X433478Y120005D02*
X433478D01*
X433478Y120005D01*
X433478Y120005D01*
D02*
G37*
G36*
X390872Y118106D02*
X389855Y118039D01*
X388856Y117840D01*
X388050Y117567D01*
X388053Y117560D01*
X387635Y117386D01*
X386852Y116907D01*
X386155Y116311D01*
X386002Y116132D01*
X386001Y116131D01*
X385870Y115980D01*
X385656Y115736D01*
X385132Y114952D01*
X384715Y114107D01*
X384456Y113342D01*
X384460Y113341D01*
X384221Y112387D01*
X384019Y111021D01*
X383951Y109641D01*
X384019Y108261D01*
X384221Y106895D01*
X384460Y105941D01*
X384456Y105939D01*
X384723Y105153D01*
X385154Y104279D01*
X385695Y103470D01*
X385868Y103271D01*
X385870Y103272D01*
X385871Y103272D01*
X385872Y103272D01*
X386199Y102889D01*
X386883Y102304D01*
X387651Y101834D01*
X388053Y101668D01*
X388048Y101657D01*
X388892Y101371D01*
X389828Y101184D01*
X390780Y101122D01*
X390884Y101128D01*
X390977Y101122D01*
X391084Y101129D01*
X391921Y101184D01*
X392848Y101368D01*
X393696Y101656D01*
X393691Y101668D01*
X394093Y101834D01*
X394860Y102304D01*
X395545Y102889D01*
X395872Y103272D01*
X395873Y103272D01*
X395875Y103271D01*
X396055Y103475D01*
X396605Y104300D01*
X397044Y105189D01*
X397235Y105753D01*
X397299Y105940D01*
X397560Y106982D01*
X397756Y108305D01*
X397822Y109641D01*
X397756Y110977D01*
X397560Y112300D01*
X397299Y113342D01*
X397298Y113342D01*
X397051Y114070D01*
X396626Y114932D01*
X396092Y115731D01*
X395874Y115980D01*
Y115980D01*
X395874D01*
X395743Y116131D01*
X395589Y116311D01*
X394892Y116907D01*
X394109Y117386D01*
X393691Y117560D01*
X393694Y117567D01*
X392888Y117840D01*
X391889Y118039D01*
X390872Y118106D01*
D02*
G37*
G36*
X387245Y99815D02*
X387245D01*
X387245D01*
X387245D01*
D02*
G37*
G36*
X394613D02*
X394613D01*
X394613D01*
X394613D01*
D02*
G37*
G36*
X321579Y84646D02*
X315684D01*
D01*
X318809D01*
X318481Y84637D01*
X318190Y84600D01*
X318062Y84573D01*
X317935Y84545D01*
X317816Y84518D01*
X317716Y84491D01*
X317625Y84454D01*
X317534Y84427D01*
X317470Y84400D01*
X317406Y84382D01*
X317361Y84354D01*
X317324Y84345D01*
X317306Y84327D01*
X317297D01*
X317015Y84163D01*
X316896Y84063D01*
X316778Y83972D01*
X316668Y83871D01*
X316568Y83771D01*
X316477Y83671D01*
X316395Y83580D01*
X316331Y83489D01*
X316267Y83407D01*
X316213Y83334D01*
X316167Y83270D01*
X316140Y83215D01*
X316113Y83179D01*
X316104Y83152D01*
X316094Y83143D01*
X316021Y82997D01*
X315958Y82851D01*
X315858Y82550D01*
X315785Y82250D01*
X315739Y81986D01*
X315721Y81858D01*
X315703Y81749D01*
X315693Y81648D01*
Y81557D01*
X315684Y81494D01*
Y78105D01*
Y81393D01*
X315703Y81056D01*
X315739Y80747D01*
X315803Y80464D01*
X315830Y80327D01*
X315867Y80209D01*
X315903Y80100D01*
X315930Y80000D01*
X315967Y79918D01*
X315994Y79845D01*
X316012Y79790D01*
X316031Y79744D01*
X316049Y79717D01*
Y79708D01*
X316204Y79435D01*
X316377Y79198D01*
X316559Y78988D01*
X316741Y78824D01*
X316823Y78751D01*
X316905Y78688D01*
X316969Y78633D01*
X317033Y78597D01*
X317078Y78560D01*
X317124Y78533D01*
X317142Y78524D01*
X317151Y78515D01*
X317297Y78442D01*
X317434Y78378D01*
X317734Y78278D01*
X318026Y78205D01*
X318290Y78159D01*
X318417Y78141D01*
X318527Y78123D01*
X318627Y78114D01*
X318718D01*
X318782Y78105D01*
X318882D01*
X319174Y78114D01*
X319447Y78150D01*
X319711Y78196D01*
X319939Y78250D01*
X320039Y78278D01*
X320130Y78305D01*
X320212Y78332D01*
X320285Y78351D01*
X320340Y78369D01*
X320376Y78387D01*
X320403Y78396D01*
X320412D01*
X320686Y78505D01*
X320914Y78624D01*
X321114Y78742D01*
X321287Y78843D01*
X321415Y78934D01*
X321460Y78970D01*
X321506Y79007D01*
X321533Y79034D01*
X321560Y79052D01*
X321579Y79070D01*
Y81603D01*
X318836D01*
Y80537D01*
X320294D01*
Y79726D01*
X320185Y79644D01*
X320066Y79571D01*
X319948Y79508D01*
X319839Y79453D01*
X319747Y79407D01*
X319666Y79371D01*
X319620Y79353D01*
X319611Y79344D01*
X319602D01*
X319456Y79289D01*
X319310Y79253D01*
X319174Y79225D01*
X319055Y79207D01*
X318946Y79198D01*
X318873Y79189D01*
X318800D01*
X318654Y79198D01*
X318509Y79216D01*
X318381Y79243D01*
X318253Y79280D01*
X318026Y79371D01*
X317935Y79417D01*
X317844Y79471D01*
X317761Y79526D01*
X317689Y79571D01*
X317634Y79626D01*
X317579Y79663D01*
X317543Y79699D01*
X317515Y79726D01*
X317497Y79744D01*
X317488Y79754D01*
X317406Y79863D01*
X317324Y79991D01*
X317260Y80118D01*
X317206Y80255D01*
X317115Y80537D01*
X317060Y80810D01*
X317042Y80938D01*
X317024Y81065D01*
X317015Y81166D01*
X317005Y81266D01*
X316996Y81339D01*
Y81402D01*
Y81439D01*
Y81448D01*
X317005Y81639D01*
X317015Y81813D01*
X317042Y81986D01*
X317069Y82140D01*
X317106Y82277D01*
X317151Y82405D01*
X317197Y82523D01*
X317242Y82632D01*
X317279Y82723D01*
X317324Y82806D01*
X317370Y82869D01*
X317406Y82924D01*
X317434Y82969D01*
X317461Y82997D01*
X317470Y83015D01*
X317479Y83024D01*
X317579Y83115D01*
X317680Y83206D01*
X317789Y83270D01*
X317898Y83334D01*
X318007Y83389D01*
X318117Y83434D01*
X318326Y83498D01*
X318426Y83516D01*
X318518Y83534D01*
X318600Y83543D01*
X318672Y83552D01*
X318727Y83562D01*
X318809D01*
X319009Y83552D01*
X319183Y83516D01*
X319338Y83480D01*
X319474Y83425D01*
X319574Y83379D01*
X319656Y83334D01*
X319702Y83297D01*
X319720Y83288D01*
X319848Y83179D01*
X319957Y83060D01*
X320048Y82942D01*
X320112Y82824D01*
X320166Y82714D01*
X320203Y82632D01*
X320221Y82578D01*
X320230Y82569D01*
Y82560D01*
X321497Y82796D01*
X321460Y82951D01*
X321406Y83106D01*
X321351Y83243D01*
X321278Y83370D01*
X321214Y83498D01*
X321141Y83607D01*
X321068Y83707D01*
X320995Y83798D01*
X320923Y83880D01*
X320859Y83953D01*
X320804Y84017D01*
X320750Y84063D01*
X320704Y84099D01*
X320668Y84136D01*
X320649Y84145D01*
X320640Y84154D01*
X320513Y84245D01*
X320376Y84318D01*
X320230Y84382D01*
X320075Y84436D01*
X319775Y84527D01*
X319483Y84582D01*
X319347Y84609D01*
X319219Y84618D01*
X319101Y84627D01*
X319000Y84637D01*
X318918Y84646D01*
X321579D01*
D01*
D02*
G37*
G36*
X294130Y84527D02*
X292918D01*
Y82259D01*
X292809Y82368D01*
X292700Y82468D01*
X292590Y82550D01*
X292472Y82632D01*
X292363Y82687D01*
X292253Y82742D01*
X292144Y82787D01*
X292044Y82815D01*
X291944Y82842D01*
X291862Y82860D01*
X291780Y82878D01*
X291716Y82887D01*
X291661Y82897D01*
X291588D01*
X291434Y82887D01*
X291288Y82869D01*
X291151Y82842D01*
X291015Y82805D01*
X290787Y82705D01*
X290677Y82651D01*
X290586Y82596D01*
X290495Y82532D01*
X290422Y82477D01*
X290359Y82432D01*
X290304Y82386D01*
X290258Y82341D01*
X290231Y82314D01*
X290213Y82295D01*
X290204Y82286D01*
X290113Y82168D01*
X290031Y82040D01*
X289958Y81904D01*
X289894Y81758D01*
X289839Y81612D01*
X289794Y81466D01*
X289730Y81175D01*
X289712Y81047D01*
X289694Y80920D01*
X289685Y80810D01*
X289675Y80710D01*
X289666Y80628D01*
Y84527D01*
D01*
D01*
Y78123D01*
D01*
Y80519D01*
X289675Y80309D01*
X289694Y80118D01*
X289721Y79936D01*
X289757Y79763D01*
X289794Y79608D01*
X289839Y79462D01*
X289894Y79334D01*
X289949Y79216D01*
X289994Y79107D01*
X290049Y79016D01*
X290094Y78934D01*
X290140Y78870D01*
X290167Y78815D01*
X290195Y78779D01*
X290213Y78761D01*
X290222Y78751D01*
X290331Y78642D01*
X290441Y78542D01*
X290559Y78460D01*
X290668Y78387D01*
X290787Y78323D01*
X290896Y78278D01*
X291005Y78232D01*
X291106Y78205D01*
X291206Y78178D01*
X291297Y78159D01*
X291370Y78141D01*
X291443Y78132D01*
X291497Y78123D01*
X294130D01*
X291570D01*
X291716Y78132D01*
X291853Y78150D01*
X291989Y78178D01*
X292108Y78214D01*
X292199Y78250D01*
X292281Y78278D01*
X292326Y78296D01*
X292345Y78305D01*
X292481Y78387D01*
X292609Y78478D01*
X292727Y78578D01*
X292818Y78670D01*
X292900Y78751D01*
X292964Y78824D01*
X293001Y78870D01*
X293010Y78888D01*
Y78223D01*
X294130D01*
Y84527D01*
D02*
G37*
G36*
X343288Y82897D02*
X340336D01*
Y78223D01*
X343288D01*
X341548D01*
Y79626D01*
Y79836D01*
Y80027D01*
X341557Y80200D01*
X341566Y80355D01*
Y80501D01*
X341575Y80619D01*
X341584Y80738D01*
X341593Y80829D01*
X341602Y80911D01*
X341612Y80984D01*
X341621Y81038D01*
Y81084D01*
X341630Y81111D01*
X341639Y81138D01*
Y81157D01*
X341675Y81284D01*
X341721Y81393D01*
X341766Y81485D01*
X341812Y81548D01*
X341848Y81603D01*
X341885Y81639D01*
X341903Y81658D01*
X341912Y81667D01*
X341985Y81712D01*
X342058Y81749D01*
X342131Y81776D01*
X342195Y81794D01*
X342249Y81803D01*
X342304Y81813D01*
X342340D01*
X342441Y81803D01*
X342541Y81785D01*
X342632Y81749D01*
X342723Y81712D01*
X342796Y81676D01*
X342850Y81639D01*
X342896Y81621D01*
X342905Y81612D01*
X343288Y82660D01*
D01*
X343142Y82742D01*
X343005Y82796D01*
X342869Y82842D01*
X342741Y82869D01*
X342641Y82888D01*
X342559Y82897D01*
X343288D01*
D02*
G37*
G36*
X298220Y82897D02*
X295269D01*
Y78223D01*
X296480D01*
Y79626D01*
Y79836D01*
Y80027D01*
X296490Y80200D01*
X296499Y80355D01*
Y80501D01*
X296508Y80619D01*
X296517Y80738D01*
X296526Y80829D01*
X296535Y80911D01*
X296544Y80984D01*
X296553Y81038D01*
Y81084D01*
X296563Y81111D01*
X296572Y81138D01*
Y81156D01*
X296608Y81284D01*
X296654Y81393D01*
X296699Y81485D01*
X296745Y81548D01*
X296781Y81603D01*
X296818Y81639D01*
X296836Y81658D01*
X296845Y81667D01*
X296918Y81712D01*
X296991Y81749D01*
X297064Y81776D01*
X297127Y81794D01*
X297182Y81803D01*
X297237Y81813D01*
X297273D01*
X297373Y81803D01*
X297474Y81785D01*
X297565Y81749D01*
X297656Y81712D01*
X297729Y81676D01*
X297783Y81639D01*
X297829Y81621D01*
X297838Y81612D01*
X298220Y82660D01*
D01*
X298075Y82742D01*
X297938Y82796D01*
X297801Y82842D01*
X297674Y82869D01*
X297574Y82887D01*
X297492Y82897D01*
X298220D01*
D02*
G37*
G36*
X334287Y82897D02*
X331754D01*
X331609Y82888D01*
X331463Y82869D01*
X331326Y82842D01*
X331190Y82806D01*
X330962Y82705D01*
X330853Y82651D01*
X330762Y82596D01*
X330670Y82532D01*
X330597Y82477D01*
X330534Y82432D01*
X330479Y82386D01*
X330434Y82341D01*
X330406Y82314D01*
X330388Y82295D01*
X330379Y82286D01*
X330279Y82168D01*
X330197Y82040D01*
X330124Y81894D01*
X330060Y81758D01*
X330014Y81612D01*
X329969Y81466D01*
X329905Y81175D01*
X329878Y81047D01*
X329860Y80920D01*
X329851Y80810D01*
X329841Y80719D01*
X329832Y80637D01*
Y82897D01*
X329832D01*
X329832D01*
Y76365D01*
Y80528D01*
X329841Y80364D01*
X329851Y80200D01*
X329896Y79909D01*
X329932Y79772D01*
X329969Y79644D01*
X330005Y79526D01*
X330042Y79426D01*
X330078Y79325D01*
X330115Y79243D01*
X330151Y79171D01*
X330188Y79107D01*
X330215Y79061D01*
X330233Y79025D01*
X330251Y79007D01*
Y78997D01*
X330361Y78861D01*
X330470Y78742D01*
X330588Y78642D01*
X330707Y78551D01*
X330825Y78478D01*
X330953Y78414D01*
X331071Y78360D01*
X331181Y78323D01*
X331290Y78287D01*
X331390Y78269D01*
X331481Y78250D01*
X331554Y78232D01*
X331618D01*
X331672Y78223D01*
X331709D01*
X331864Y78232D01*
X332010Y78260D01*
X332146Y78296D01*
X332274Y78342D01*
X332502Y78460D01*
X332611Y78524D01*
X332702Y78597D01*
X332784Y78660D01*
X332866Y78724D01*
X332930Y78788D01*
X332975Y78843D01*
X333021Y78897D01*
X333048Y78934D01*
X333066Y78952D01*
X333075Y78961D01*
Y78296D01*
Y78159D01*
X333066Y78041D01*
X333057Y77950D01*
X333048Y77877D01*
X333030Y77813D01*
X333021Y77777D01*
X333012Y77759D01*
Y77749D01*
X332975Y77676D01*
X332939Y77613D01*
X332902Y77558D01*
X332866Y77513D01*
X332829Y77476D01*
X332802Y77458D01*
X332784Y77449D01*
X332775Y77440D01*
X332675Y77394D01*
X332565Y77358D01*
X332447Y77330D01*
X332328Y77312D01*
X332228Y77303D01*
X332146Y77294D01*
X332064D01*
X331937Y77303D01*
X331827Y77312D01*
X331736Y77340D01*
X331663Y77367D01*
X331600Y77385D01*
X331563Y77412D01*
X331536Y77421D01*
X331527Y77431D01*
X331481Y77467D01*
X331445Y77522D01*
X331399Y77631D01*
X331390Y77676D01*
X331381Y77722D01*
X331372Y77749D01*
Y77759D01*
X329987Y77922D01*
X329978Y77868D01*
Y77822D01*
Y77786D01*
Y77777D01*
X329987Y77667D01*
X329996Y77558D01*
X330051Y77358D01*
X330133Y77185D01*
X330224Y77039D01*
X330306Y76920D01*
X330388Y76838D01*
X330443Y76784D01*
X330452Y76775D01*
X330461Y76766D01*
X330561Y76693D01*
X330670Y76638D01*
X330798Y76583D01*
X330925Y76538D01*
X331199Y76465D01*
X331472Y76419D01*
X331600Y76401D01*
X331718Y76383D01*
X331827Y76374D01*
X331918D01*
X332000Y76365D01*
X332110D01*
X332328Y76374D01*
X332529Y76383D01*
X332702Y76410D01*
X332857Y76438D01*
X332975Y76456D01*
X333057Y76483D01*
X333112Y76492D01*
X333130Y76501D01*
X333276Y76556D01*
X333403Y76611D01*
X333513Y76674D01*
X333604Y76729D01*
X333667Y76775D01*
X333722Y76820D01*
X333759Y76847D01*
X333768Y76857D01*
X333859Y76948D01*
X333932Y77048D01*
X333996Y77157D01*
X334050Y77258D01*
X334096Y77349D01*
X334123Y77421D01*
X334141Y77467D01*
X334150Y77485D01*
X334178Y77567D01*
X334196Y77649D01*
X334232Y77841D01*
X334251Y78041D01*
X334269Y78241D01*
X334278Y78414D01*
X334287Y78487D01*
Y82796D01*
D01*
X333157D01*
Y82140D01*
X333048Y82277D01*
X332939Y82386D01*
X332820Y82496D01*
X332702Y82578D01*
X332583Y82651D01*
X332465Y82714D01*
X332356Y82760D01*
X332246Y82806D01*
X332146Y82833D01*
X332055Y82860D01*
X331964Y82869D01*
X331900Y82888D01*
X331836D01*
X331791Y82897D01*
X334287D01*
D02*
G37*
G36*
X337321D02*
X337220D01*
X337056Y82888D01*
X336902Y82869D01*
X336747Y82833D01*
X336610Y82796D01*
X336473Y82751D01*
X336355Y82696D01*
X336237Y82632D01*
X336136Y82578D01*
X336045Y82514D01*
X335963Y82450D01*
X335890Y82395D01*
X335836Y82350D01*
X335790Y82314D01*
X335754Y82277D01*
X335736Y82259D01*
X335726Y82250D01*
X335626Y82122D01*
X335535Y81986D01*
X335453Y81849D01*
X335380Y81703D01*
X335326Y81548D01*
X335280Y81402D01*
X335207Y81120D01*
X335180Y80984D01*
X335162Y80865D01*
X335153Y80756D01*
X335143Y80665D01*
X335134Y80583D01*
Y82897D01*
D01*
D01*
Y78123D01*
D01*
Y80473D01*
X335143Y80300D01*
X335153Y80127D01*
X335180Y79972D01*
X335207Y79826D01*
X335234Y79681D01*
X335280Y79553D01*
X335316Y79435D01*
X335362Y79325D01*
X335398Y79225D01*
X335444Y79143D01*
X335480Y79070D01*
X335508Y79007D01*
X335544Y78961D01*
X335562Y78925D01*
X335572Y78906D01*
X335581Y78897D01*
X335699Y78761D01*
X335818Y78642D01*
X335954Y78542D01*
X336100Y78451D01*
X336246Y78378D01*
X336391Y78314D01*
X336537Y78260D01*
X336683Y78223D01*
X336810Y78187D01*
X336938Y78168D01*
X337056Y78150D01*
X337157Y78132D01*
X337239D01*
X337293Y78123D01*
X339398D01*
X337348D01*
X337612Y78141D01*
X337858Y78178D01*
X338068Y78232D01*
X338250Y78296D01*
X338332Y78332D01*
X338396Y78360D01*
X338459Y78387D01*
X338505Y78414D01*
X338541Y78442D01*
X338578Y78451D01*
X338587Y78469D01*
X338596D01*
X338769Y78615D01*
X338924Y78770D01*
X339052Y78943D01*
X339152Y79107D01*
X339234Y79253D01*
X339261Y79316D01*
X339288Y79371D01*
X339307Y79417D01*
X339325Y79453D01*
X339334Y79471D01*
Y79480D01*
X338131Y79681D01*
X338086Y79562D01*
X338040Y79453D01*
X337995Y79371D01*
X337940Y79298D01*
X337904Y79243D01*
X337867Y79207D01*
X337840Y79189D01*
X337831Y79180D01*
X337758Y79125D01*
X337676Y79089D01*
X337594Y79061D01*
X337521Y79043D01*
X337457Y79034D01*
X337403Y79025D01*
X337357D01*
X337211Y79034D01*
X337075Y79070D01*
X336947Y79116D01*
X336847Y79171D01*
X336765Y79225D01*
X336710Y79271D01*
X336665Y79307D01*
X336656Y79316D01*
X336564Y79435D01*
X336501Y79571D01*
X336446Y79717D01*
X336410Y79845D01*
X336391Y79972D01*
X336382Y80063D01*
X336373Y80100D01*
Y80127D01*
Y80145D01*
Y80154D01*
X339398D01*
Y80409D01*
X339380Y80637D01*
X339352Y80856D01*
X339316Y81056D01*
X339270Y81248D01*
X339225Y81412D01*
X339170Y81567D01*
X339115Y81703D01*
X339061Y81822D01*
X339006Y81931D01*
X338960Y82013D01*
X338915Y82086D01*
X338878Y82140D01*
X338851Y82186D01*
X338833Y82204D01*
X338824Y82213D01*
X338715Y82332D01*
X338587Y82441D01*
X338459Y82532D01*
X338332Y82605D01*
X338195Y82678D01*
X338059Y82733D01*
X337931Y82778D01*
X337804Y82815D01*
X337685Y82842D01*
X337576Y82860D01*
X337475Y82878D01*
X337393Y82888D01*
X337321Y82897D01*
D02*
G37*
G36*
X300580Y82897D02*
X300480D01*
X300316Y82887D01*
X300161Y82869D01*
X300006Y82833D01*
X299869Y82796D01*
X299733Y82751D01*
X299614Y82696D01*
X299496Y82632D01*
X299396Y82578D01*
X299305Y82514D01*
X299223Y82450D01*
X299150Y82395D01*
X299095Y82350D01*
X299049Y82314D01*
X299013Y82277D01*
X298995Y82259D01*
X298986Y82250D01*
X298886Y82122D01*
X298795Y81986D01*
X298712Y81849D01*
X298640Y81703D01*
X298585Y81548D01*
X298539Y81402D01*
X298466Y81120D01*
X298439Y80984D01*
X298421Y80865D01*
X298412Y80756D01*
X298403Y80665D01*
X298394Y80583D01*
Y82897D01*
D01*
D01*
Y78123D01*
D01*
Y80473D01*
X298403Y80300D01*
X298412Y80127D01*
X298439Y79972D01*
X298466Y79826D01*
X298494Y79681D01*
X298539Y79553D01*
X298576Y79435D01*
X298621Y79325D01*
X298658Y79225D01*
X298703Y79143D01*
X298740Y79070D01*
X298767Y79007D01*
X298804Y78961D01*
X298822Y78925D01*
X298831Y78906D01*
X298840Y78897D01*
X298958Y78761D01*
X299077Y78642D01*
X299214Y78542D01*
X299359Y78451D01*
X299505Y78378D01*
X299651Y78314D01*
X299797Y78260D01*
X299942Y78223D01*
X300070Y78187D01*
X300197Y78168D01*
X300316Y78150D01*
X300416Y78132D01*
X300498D01*
X300553Y78123D01*
X302657D01*
X300607D01*
X300871Y78141D01*
X301117Y78178D01*
X301327Y78232D01*
X301509Y78296D01*
X301591Y78332D01*
X301655Y78360D01*
X301719Y78387D01*
X301764Y78414D01*
X301801Y78442D01*
X301837Y78451D01*
X301846Y78469D01*
X301855D01*
X302028Y78615D01*
X302183Y78770D01*
X302311Y78943D01*
X302411Y79107D01*
X302493Y79252D01*
X302520Y79316D01*
X302548Y79371D01*
X302566Y79417D01*
X302584Y79453D01*
X302593Y79471D01*
Y79480D01*
X301391Y79681D01*
X301345Y79562D01*
X301300Y79453D01*
X301254Y79371D01*
X301200Y79298D01*
X301163Y79243D01*
X301127Y79207D01*
X301099Y79189D01*
X301090Y79180D01*
X301017Y79125D01*
X300935Y79089D01*
X300853Y79061D01*
X300780Y79043D01*
X300717Y79034D01*
X300662Y79025D01*
X300617D01*
X300471Y79034D01*
X300334Y79070D01*
X300206Y79116D01*
X300106Y79171D01*
X300024Y79225D01*
X299970Y79271D01*
X299924Y79307D01*
X299915Y79316D01*
X299824Y79435D01*
X299760Y79571D01*
X299706Y79717D01*
X299669Y79845D01*
X299651Y79972D01*
X299642Y80063D01*
X299633Y80100D01*
Y80127D01*
Y80145D01*
Y80154D01*
X302657D01*
Y80409D01*
X302639Y80637D01*
X302611Y80856D01*
X302575Y81056D01*
X302530Y81248D01*
X302484Y81412D01*
X302429Y81567D01*
X302375Y81703D01*
X302320Y81822D01*
X302265Y81931D01*
X302220Y82013D01*
X302174Y82086D01*
X302138Y82140D01*
X302111Y82186D01*
X302092Y82204D01*
X302083Y82213D01*
X301974Y82332D01*
X301846Y82441D01*
X301719Y82532D01*
X301591Y82605D01*
X301455Y82678D01*
X301318Y82733D01*
X301190Y82778D01*
X301063Y82815D01*
X300944Y82842D01*
X300835Y82860D01*
X300735Y82878D01*
X300653Y82887D01*
X300580Y82897D01*
D02*
G37*
G36*
X305563Y82897D02*
X305263D01*
X305117Y82878D01*
X304971Y82869D01*
X304843Y82842D01*
X304716Y82824D01*
X304607Y82796D01*
X304506Y82760D01*
X304415Y82733D01*
X304343Y82705D01*
X304270Y82669D01*
X304215Y82642D01*
X304160Y82623D01*
X304124Y82596D01*
X304097Y82587D01*
X304087Y82569D01*
X304078D01*
X303923Y82432D01*
X303796Y82277D01*
X303686Y82113D01*
X303595Y81958D01*
X303532Y81813D01*
X303504Y81749D01*
X303486Y81694D01*
X303468Y81648D01*
X303459Y81612D01*
X303450Y81594D01*
Y81585D01*
X304534Y81384D01*
X304579Y81494D01*
X304625Y81585D01*
X304670Y81667D01*
X304725Y81731D01*
X304762Y81776D01*
X304798Y81803D01*
X304816Y81822D01*
X304825Y81831D01*
X304898Y81876D01*
X304980Y81913D01*
X305071Y81931D01*
X305153Y81949D01*
X305226Y81958D01*
X305281Y81967D01*
X305335D01*
X305499Y81958D01*
X305636Y81940D01*
X305745Y81922D01*
X305837Y81894D01*
X305900Y81858D01*
X305946Y81840D01*
X305973Y81822D01*
X305982Y81813D01*
X306046Y81749D01*
X306092Y81676D01*
X306119Y81594D01*
X306146Y81512D01*
X306155Y81430D01*
X306164Y81366D01*
Y81330D01*
Y81311D01*
Y81193D01*
X306101Y81166D01*
X306019Y81138D01*
X305846Y81084D01*
X305645Y81038D01*
X305454Y80993D01*
X305272Y80947D01*
X305190Y80929D01*
X305117Y80920D01*
X305062Y80911D01*
X305017Y80901D01*
X304989Y80892D01*
X304980D01*
X304762Y80847D01*
X304561Y80801D01*
X304397Y80756D01*
X304260Y80710D01*
X304151Y80665D01*
X304078Y80637D01*
X304033Y80619D01*
X304014Y80610D01*
X303896Y80546D01*
X303796Y80473D01*
X303705Y80391D01*
X303641Y80318D01*
X303577Y80255D01*
X303541Y80200D01*
X303513Y80164D01*
X303504Y80145D01*
X303441Y80027D01*
X303395Y79909D01*
X303368Y79799D01*
X303349Y79690D01*
X303331Y79599D01*
X303322Y79526D01*
Y82897D01*
D01*
D01*
Y78123D01*
D01*
Y79462D01*
X303331Y79353D01*
X303340Y79252D01*
X303386Y79061D01*
X303450Y78897D01*
X303523Y78761D01*
X303595Y78651D01*
X303659Y78569D01*
X303705Y78515D01*
X303723Y78505D01*
Y78496D01*
X303887Y78369D01*
X304069Y78278D01*
X304251Y78214D01*
X304434Y78168D01*
X304588Y78141D01*
X304661Y78132D01*
X304716D01*
X304771Y78123D01*
X303322Y78123D01*
X307613Y78123D01*
X304834D01*
X304980Y78132D01*
X305126Y78150D01*
X305254Y78168D01*
X305363Y78196D01*
X305454Y78223D01*
X305527Y78250D01*
X305572Y78260D01*
X305591Y78269D01*
X305718Y78332D01*
X305846Y78396D01*
X305955Y78478D01*
X306055Y78551D01*
X306137Y78615D01*
X306201Y78670D01*
X306237Y78706D01*
X306256Y78715D01*
X306265Y78679D01*
X306283Y78633D01*
X306292Y78597D01*
X306301Y78588D01*
Y78578D01*
X306328Y78496D01*
X306347Y78424D01*
X306365Y78360D01*
X306383Y78314D01*
X306401Y78278D01*
X306410Y78241D01*
X306419Y78232D01*
Y78223D01*
X307613D01*
D01*
X307558Y78342D01*
X307513Y78451D01*
X307476Y78551D01*
X307440Y78642D01*
X307422Y78715D01*
X307403Y78779D01*
X307394Y78815D01*
Y78824D01*
X307376Y78943D01*
X307367Y79089D01*
X307349Y79234D01*
Y79380D01*
X307340Y79508D01*
Y79617D01*
Y79663D01*
Y79690D01*
Y79708D01*
Y79717D01*
X307358Y81129D01*
Y81275D01*
X307349Y81402D01*
X307340Y81521D01*
X307330Y81630D01*
X307321Y81731D01*
X307303Y81822D01*
X307294Y81904D01*
X307276Y81967D01*
X307258Y82031D01*
X307248Y82077D01*
X307221Y82159D01*
X307203Y82195D01*
X307194Y82213D01*
X307121Y82314D01*
X307039Y82414D01*
X306948Y82496D01*
X306848Y82569D01*
X306766Y82623D01*
X306693Y82660D01*
X306647Y82687D01*
X306638Y82696D01*
X306629D01*
X306547Y82733D01*
X306465Y82760D01*
X306274Y82815D01*
X306073Y82851D01*
X305882Y82869D01*
X305700Y82888D01*
X305627D01*
X305563Y82897D01*
D02*
G37*
G36*
X310364D02*
X310027D01*
X309863Y82878D01*
X309708Y82860D01*
X309562Y82833D01*
X309435Y82806D01*
X309316Y82769D01*
X309207Y82733D01*
X309107Y82696D01*
X309025Y82651D01*
X308952Y82614D01*
X308888Y82578D01*
X308843Y82550D01*
X308797Y82523D01*
X308770Y82505D01*
X308761Y82496D01*
X308752Y82487D01*
X308670Y82414D01*
X308597Y82332D01*
X308533Y82250D01*
X308488Y82159D01*
X308396Y81995D01*
X308342Y81840D01*
X308314Y81703D01*
X308305Y81639D01*
X308296Y81594D01*
X308287Y81548D01*
Y81521D01*
Y81503D01*
Y81494D01*
X308296Y81375D01*
X308314Y81266D01*
X308333Y81157D01*
X308369Y81056D01*
X308460Y80883D01*
X308560Y80738D01*
X308651Y80619D01*
X308743Y80537D01*
X308779Y80501D01*
X308797Y80482D01*
X308816Y80473D01*
X308825Y80464D01*
X308907Y80419D01*
X309016Y80364D01*
X309143Y80309D01*
X309280Y80264D01*
X309426Y80209D01*
X309581Y80164D01*
X309899Y80072D01*
X310054Y80027D01*
X310200Y79991D01*
X310328Y79954D01*
X310446Y79927D01*
X310546Y79909D01*
X310619Y79890D01*
X310665Y79872D01*
X310683D01*
X310792Y79845D01*
X310874Y79817D01*
X310947Y79790D01*
X311002Y79772D01*
X311038Y79744D01*
X311066Y79735D01*
X311084Y79717D01*
X311139Y79644D01*
X311166Y79571D01*
X311175Y79517D01*
Y79498D01*
Y79489D01*
X311166Y79417D01*
X311148Y79353D01*
X311120Y79298D01*
X311093Y79253D01*
X311066Y79216D01*
X311038Y79189D01*
X311020Y79171D01*
X311011Y79162D01*
X310911Y79107D01*
X310801Y79070D01*
X310683Y79034D01*
X310574Y79016D01*
X310473Y79007D01*
X310382Y78997D01*
X310310D01*
X310155Y79007D01*
X310027Y79025D01*
X309909Y79052D01*
X309818Y79089D01*
X309745Y79116D01*
X309690Y79143D01*
X309654Y79162D01*
X309645Y79171D01*
X309562Y79243D01*
X309499Y79335D01*
X309444Y79417D01*
X309399Y79508D01*
X309371Y79590D01*
X309353Y79653D01*
X309335Y79690D01*
Y79708D01*
X308123Y79526D01*
X308205Y79298D01*
X308305Y79089D01*
X308415Y78916D01*
X308533Y78770D01*
X308642Y78651D01*
X308743Y78569D01*
X308770Y78533D01*
X308797Y78515D01*
X308816Y78505D01*
X308825Y78496D01*
X308934Y78433D01*
X309043Y78369D01*
X309289Y78278D01*
X309535Y78214D01*
X309772Y78168D01*
X309881Y78150D01*
X309981Y78141D01*
X310073Y78132D01*
X310155D01*
X310218Y78123D01*
X308123D01*
Y82897D01*
D01*
Y78123D01*
X312387D01*
D01*
X310310D01*
X310492Y78132D01*
X310665Y78141D01*
X310829Y78168D01*
X310984Y78196D01*
X311120Y78223D01*
X311248Y78269D01*
X311366Y78305D01*
X311467Y78351D01*
X311558Y78387D01*
X311640Y78433D01*
X311703Y78469D01*
X311758Y78496D01*
X311804Y78533D01*
X311831Y78551D01*
X311849Y78560D01*
X311858Y78569D01*
X311949Y78660D01*
X312031Y78751D01*
X312104Y78843D01*
X312168Y78934D01*
X312213Y79025D01*
X312259Y79116D01*
X312323Y79280D01*
X312359Y79435D01*
X312368Y79498D01*
X312378Y79544D01*
X312387Y79590D01*
Y79653D01*
X312368Y79854D01*
X312323Y80036D01*
X312268Y80191D01*
X312195Y80318D01*
X312122Y80419D01*
X312068Y80492D01*
X312022Y80528D01*
X312004Y80546D01*
X311922Y80601D01*
X311840Y80665D01*
X311740Y80710D01*
X311631Y80765D01*
X311412Y80856D01*
X311184Y80938D01*
X310984Y81002D01*
X310893Y81020D01*
X310811Y81047D01*
X310747Y81065D01*
X310701Y81075D01*
X310665Y81084D01*
X310656D01*
X310483Y81129D01*
X310328Y81166D01*
X310191Y81202D01*
X310073Y81239D01*
X309963Y81266D01*
X309872Y81293D01*
X309799Y81321D01*
X309727Y81339D01*
X309672Y81366D01*
X309626Y81384D01*
X309590Y81393D01*
X309572Y81412D01*
X309535Y81421D01*
X309526Y81430D01*
X309490Y81466D01*
X309462Y81503D01*
X309426Y81576D01*
X309408Y81630D01*
Y81639D01*
Y81648D01*
X309417Y81703D01*
X309426Y81749D01*
X309481Y81831D01*
X309526Y81876D01*
X309535Y81894D01*
X309544D01*
X309635Y81940D01*
X309736Y81976D01*
X309845Y81995D01*
X309963Y82013D01*
X310064Y82022D01*
X310145Y82031D01*
X310227D01*
X310364Y82022D01*
X310483Y82013D01*
X310583Y81986D01*
X310665Y81958D01*
X310729Y81931D01*
X310774Y81913D01*
X310801Y81894D01*
X310811Y81885D01*
X310883Y81831D01*
X310938Y81767D01*
X310993Y81703D01*
X311029Y81630D01*
X311056Y81576D01*
X311075Y81530D01*
X311093Y81494D01*
Y81485D01*
X312232Y81694D01*
X312159Y81904D01*
X312059Y82086D01*
X311958Y82241D01*
X311849Y82359D01*
X311758Y82459D01*
X311676Y82532D01*
X311621Y82569D01*
X311612Y82587D01*
X311603D01*
X311512Y82642D01*
X311412Y82687D01*
X311193Y82769D01*
X310965Y82824D01*
X310738Y82860D01*
X310628Y82869D01*
X310528Y82878D01*
X310437Y82888D01*
X310364Y82897D01*
D02*
G37*
G36*
X328857Y84527D02*
X327646D01*
Y78223D01*
X328857D01*
Y82796D01*
X327646D01*
Y83407D01*
X328857D01*
Y84527D01*
D02*
G37*
G36*
X287225Y82897D02*
X284537D01*
Y78223D01*
X285749D01*
Y80282D01*
Y80419D01*
Y80546D01*
X285758Y80665D01*
X285767Y80765D01*
Y80865D01*
X285776Y80947D01*
X285785Y81029D01*
X285794Y81093D01*
X285813Y81202D01*
X285822Y81275D01*
X285840Y81321D01*
Y81330D01*
X285876Y81430D01*
X285931Y81530D01*
X285986Y81603D01*
X286040Y81676D01*
X286095Y81721D01*
X286141Y81767D01*
X286168Y81785D01*
X286177Y81794D01*
X286277Y81849D01*
X286378Y81894D01*
X286469Y81922D01*
X286560Y81949D01*
X286633Y81958D01*
X286687Y81967D01*
X286742D01*
X286833Y81958D01*
X286915Y81949D01*
X286979Y81931D01*
X287043Y81904D01*
X287097Y81876D01*
X287134Y81858D01*
X287152Y81849D01*
X287161Y81840D01*
X287225Y81794D01*
X287270Y81740D01*
X287352Y81630D01*
X287380Y81576D01*
X287398Y81539D01*
X287416Y81512D01*
Y81503D01*
X287434Y81457D01*
X287443Y81402D01*
X287462Y81266D01*
X287480Y81102D01*
X287489Y80947D01*
X287498Y80792D01*
Y80728D01*
Y80665D01*
Y80619D01*
Y80583D01*
Y80555D01*
Y80546D01*
Y78223D01*
X288710D01*
Y81248D01*
X288701Y81402D01*
X288691Y81548D01*
X288673Y81658D01*
X288664Y81749D01*
X288646Y81813D01*
X288637Y81858D01*
Y81867D01*
X288610Y81976D01*
X288573Y82068D01*
X288537Y82159D01*
X288491Y82231D01*
X288455Y82295D01*
X288427Y82341D01*
X288409Y82368D01*
X288400Y82377D01*
X288327Y82459D01*
X288245Y82532D01*
X288163Y82596D01*
X288081Y82651D01*
X288008Y82696D01*
X287945Y82723D01*
X287908Y82742D01*
X287890Y82751D01*
X287762Y82796D01*
X287635Y82833D01*
X287516Y82860D01*
X287407Y82878D01*
X287307Y82887D01*
X287225Y82897D01*
D02*
G37*
G36*
X283881Y84527D02*
X277559D01*
Y78223D01*
Y84527D01*
X280000D01*
X277559Y78223D01*
X283881D01*
X281349Y84527D01*
X283881D01*
D02*
G37*
G36*
X326662Y82897D02*
X322398D01*
Y78123D01*
D01*
Y80473D01*
X322408Y80300D01*
X322417Y80127D01*
X322444Y79972D01*
X322471Y79826D01*
X322499Y79681D01*
X322544Y79553D01*
X322581Y79435D01*
X322626Y79325D01*
X322663Y79225D01*
X322708Y79143D01*
X322745Y79070D01*
X322772Y79007D01*
X322808Y78961D01*
X322827Y78925D01*
X322836Y78906D01*
X322845Y78897D01*
X322963Y78761D01*
X323082Y78642D01*
X323218Y78542D01*
X323364Y78451D01*
X323510Y78378D01*
X323656Y78314D01*
X323801Y78260D01*
X323947Y78223D01*
X324075Y78187D01*
X324202Y78168D01*
X324321Y78150D01*
X324421Y78132D01*
X324503D01*
X324557Y78123D01*
X324612D01*
X324876Y78141D01*
X325122Y78178D01*
X325332Y78232D01*
X325514Y78296D01*
X325596Y78332D01*
X325660Y78360D01*
X325724Y78387D01*
X325769Y78414D01*
X325806Y78442D01*
X325842Y78451D01*
X325851Y78469D01*
X325860D01*
X326033Y78615D01*
X326188Y78770D01*
X326316Y78943D01*
X326416Y79107D01*
X326498Y79253D01*
X326525Y79316D01*
X326553Y79371D01*
X326571Y79417D01*
X326589Y79453D01*
X326598Y79471D01*
Y79480D01*
X325396Y79681D01*
X325350Y79562D01*
X325305Y79453D01*
X325259Y79371D01*
X325204Y79298D01*
X325168Y79243D01*
X325132Y79207D01*
X325104Y79189D01*
X325095Y79180D01*
X325022Y79125D01*
X324940Y79089D01*
X324858Y79061D01*
X324785Y79043D01*
X324722Y79034D01*
X324667Y79025D01*
X324621D01*
X324476Y79034D01*
X324339Y79070D01*
X324211Y79116D01*
X324111Y79171D01*
X324029Y79225D01*
X323974Y79271D01*
X323929Y79307D01*
X323920Y79316D01*
X323829Y79435D01*
X323765Y79571D01*
X323710Y79717D01*
X323674Y79845D01*
X323656Y79972D01*
X323646Y80063D01*
X323637Y80100D01*
Y80127D01*
Y80145D01*
Y80154D01*
X326662D01*
Y80409D01*
X326644Y80637D01*
X326616Y80856D01*
X326580Y81056D01*
X326534Y81248D01*
X326489Y81412D01*
X326434Y81567D01*
X326379Y81703D01*
X326325Y81822D01*
X326270Y81931D01*
X326225Y82013D01*
X326179Y82086D01*
X326143Y82140D01*
X326115Y82186D01*
X326097Y82204D01*
X326088Y82213D01*
X325979Y82332D01*
X325851Y82441D01*
X325724Y82532D01*
X325596Y82605D01*
X325459Y82678D01*
X325323Y82733D01*
X325195Y82778D01*
X325068Y82815D01*
X324949Y82842D01*
X324840Y82860D01*
X324740Y82878D01*
X324658Y82888D01*
X324585Y82897D01*
X326662D01*
D01*
D02*
G37*
G36*
X332000Y76365D02*
D01*
X329832D01*
X332000D01*
D02*
G37*
G36*
X316632Y72835D02*
D01*
Y68243D01*
X316623Y68462D01*
X316595Y68653D01*
X316550Y68826D01*
X316504Y68972D01*
X316459Y69090D01*
X316413Y69172D01*
X316386Y69227D01*
X316377Y69245D01*
X316277Y69391D01*
X316158Y69519D01*
X316040Y69628D01*
X315930Y69719D01*
X315830Y69792D01*
X315748Y69847D01*
X315693Y69883D01*
X315684Y69892D01*
X315675D01*
X315584Y69938D01*
X315493Y69983D01*
X315274Y70065D01*
X315047Y70138D01*
X314828Y70211D01*
X314728Y70238D01*
X314628Y70266D01*
X314536Y70293D01*
X314464Y70311D01*
X314400Y70329D01*
X314354Y70338D01*
X314318Y70348D01*
X314309D01*
X314145Y70393D01*
X313999Y70430D01*
X313862Y70466D01*
X313735Y70503D01*
X313635Y70539D01*
X313534Y70575D01*
X313452Y70612D01*
X313380Y70639D01*
X313316Y70666D01*
X313270Y70694D01*
X313225Y70712D01*
X313197Y70730D01*
X313152Y70758D01*
X313143Y70767D01*
X313079Y70831D01*
X313033Y70894D01*
X313006Y70958D01*
X312988Y71022D01*
X312970Y71067D01*
X312961Y71113D01*
Y71140D01*
Y71149D01*
X312970Y71240D01*
X312988Y71313D01*
X313024Y71386D01*
X313061Y71441D01*
X313097Y71486D01*
X313134Y71514D01*
X313152Y71532D01*
X313161Y71541D01*
X313288Y71623D01*
X313425Y71678D01*
X313571Y71723D01*
X313707Y71751D01*
X313826Y71769D01*
X313926Y71778D01*
X314017D01*
X314209Y71769D01*
X314373Y71741D01*
X314509Y71705D01*
X314618Y71669D01*
X314710Y71632D01*
X314773Y71596D01*
X314810Y71568D01*
X314819Y71559D01*
X314910Y71468D01*
X314992Y71359D01*
X315056Y71250D01*
X315101Y71131D01*
X315138Y71031D01*
X315156Y70949D01*
X315174Y70885D01*
Y70876D01*
Y70867D01*
X316450Y70912D01*
X316441Y71076D01*
X316413Y71222D01*
X316377Y71368D01*
X316331Y71495D01*
X316286Y71623D01*
X316231Y71741D01*
X316176Y71842D01*
X316122Y71942D01*
X316058Y72024D01*
X316003Y72097D01*
X315949Y72161D01*
X315903Y72215D01*
X315867Y72252D01*
X315839Y72279D01*
X315821Y72297D01*
X315812Y72306D01*
X315693Y72397D01*
X315566Y72479D01*
X315429Y72552D01*
X315284Y72616D01*
X315138Y72662D01*
X314992Y72707D01*
X314701Y72771D01*
X314564Y72789D01*
X314445Y72807D01*
X314327Y72816D01*
X314227Y72825D01*
X314145Y72835D01*
X316632D01*
X314036D01*
X313771Y72825D01*
X313534Y72798D01*
X313325Y72762D01*
X313143Y72725D01*
X313061Y72698D01*
X312988Y72680D01*
X312933Y72662D01*
X312878Y72643D01*
X312842Y72625D01*
X312815Y72616D01*
X312796Y72607D01*
X312787D01*
X312605Y72516D01*
X312450Y72416D01*
X312314Y72306D01*
X312204Y72206D01*
X312113Y72115D01*
X312059Y72042D01*
X312013Y71987D01*
X312004Y71978D01*
Y71969D01*
X311913Y71814D01*
X311849Y71650D01*
X311804Y71495D01*
X311776Y71359D01*
X311758Y71240D01*
X311740Y71149D01*
Y71113D01*
Y71086D01*
Y71076D01*
Y71067D01*
X311749Y70931D01*
X311767Y70794D01*
X311794Y70676D01*
X311831Y70557D01*
X311922Y70338D01*
X312031Y70147D01*
X312077Y70065D01*
X312132Y70001D01*
X312177Y69938D01*
X312223Y69883D01*
X312259Y69847D01*
X312286Y69819D01*
X312305Y69801D01*
X312314Y69792D01*
X312396Y69728D01*
X312496Y69664D01*
X312596Y69601D01*
X312715Y69546D01*
X312942Y69437D01*
X313179Y69345D01*
X313298Y69309D01*
X313398Y69273D01*
X313498Y69245D01*
X313580Y69218D01*
X313644Y69200D01*
X313698Y69182D01*
X313735Y69172D01*
X313744D01*
X313890Y69136D01*
X314017Y69100D01*
X314136Y69072D01*
X314245Y69045D01*
X314336Y69018D01*
X314418Y68999D01*
X314491Y68972D01*
X314555Y68954D01*
X314609Y68945D01*
X314655Y68927D01*
X314719Y68908D01*
X314755Y68890D01*
X314764D01*
X314883Y68844D01*
X314974Y68799D01*
X315056Y68753D01*
X315120Y68708D01*
X315165Y68671D01*
X315193Y68644D01*
X315211Y68626D01*
X315220Y68617D01*
X315265Y68553D01*
X315302Y68489D01*
X315320Y68425D01*
X315338Y68371D01*
X315347Y68316D01*
X315356Y68271D01*
Y68243D01*
Y68234D01*
X315347Y68107D01*
X315311Y67997D01*
X315256Y67888D01*
X315202Y67797D01*
X315138Y67724D01*
X315092Y67669D01*
X315056Y67633D01*
X315038Y67624D01*
X314910Y67542D01*
X314764Y67478D01*
X314609Y67432D01*
X314464Y67405D01*
X314327Y67387D01*
X314218Y67369D01*
X314118D01*
X313908Y67378D01*
X313726Y67414D01*
X313571Y67460D01*
X313434Y67514D01*
X313325Y67569D01*
X313252Y67615D01*
X313207Y67651D01*
X313188Y67660D01*
X313070Y67788D01*
X312979Y67924D01*
X312897Y68079D01*
X312842Y68234D01*
X312796Y68371D01*
X312760Y68480D01*
X312751Y68516D01*
Y68553D01*
X312742Y68571D01*
Y68580D01*
X311503Y68462D01*
D01*
X311530Y68271D01*
X311567Y68088D01*
X311621Y67915D01*
X311667Y67760D01*
X311731Y67615D01*
X311794Y67478D01*
X311858Y67360D01*
X311922Y67250D01*
X311986Y67159D01*
X312050Y67077D01*
X312104Y67004D01*
X312159Y66940D01*
X312195Y66895D01*
X312232Y66868D01*
X312250Y66849D01*
X312259Y66840D01*
X312387Y66740D01*
X312523Y66658D01*
X312669Y66585D01*
X312824Y66521D01*
X312970Y66476D01*
X313124Y66430D01*
X313425Y66367D01*
X313562Y66339D01*
X313689Y66321D01*
X313799Y66312D01*
X313899Y66303D01*
X313981Y66294D01*
X316632D01*
Y72835D01*
D02*
G37*
G36*
X344581Y71086D02*
X341630D01*
D01*
X343780D01*
X343670Y71076D01*
X343579Y71067D01*
X343488Y71040D01*
X343415Y71013D01*
X343352Y70985D01*
X343297Y70967D01*
X343269Y70949D01*
X343260Y70940D01*
X343169Y70876D01*
X343087Y70785D01*
X342996Y70685D01*
X342923Y70584D01*
X342850Y70484D01*
X342796Y70402D01*
X342759Y70348D01*
X342750Y70338D01*
Y70985D01*
X341630D01*
Y66412D01*
X342841D01*
Y67815D01*
Y68025D01*
Y68216D01*
X342850Y68389D01*
X342860Y68544D01*
Y68690D01*
X342869Y68808D01*
X342878Y68927D01*
X342887Y69018D01*
X342896Y69100D01*
X342905Y69172D01*
X342914Y69227D01*
Y69273D01*
X342923Y69300D01*
X342932Y69327D01*
Y69345D01*
X342969Y69473D01*
X343014Y69582D01*
X343060Y69674D01*
X343106Y69737D01*
X343142Y69792D01*
X343178Y69828D01*
X343197Y69847D01*
X343206Y69856D01*
X343279Y69901D01*
X343352Y69938D01*
X343424Y69965D01*
X343488Y69983D01*
X343543Y69992D01*
X343597Y70001D01*
X343634D01*
X343734Y69992D01*
X343834Y69974D01*
X343925Y69938D01*
X344017Y69901D01*
X344089Y69865D01*
X344144Y69828D01*
X344190Y69810D01*
X344199Y69801D01*
X344581Y70849D01*
X344436Y70931D01*
X344299Y70985D01*
X344162Y71031D01*
X344035Y71058D01*
X343934Y71076D01*
X343852Y71086D01*
X344581D01*
D02*
G37*
G36*
X349018D02*
X344754D01*
D01*
X346841D01*
X346677Y71076D01*
X346522Y71058D01*
X346367Y71022D01*
X346230Y70985D01*
X346094Y70940D01*
X345975Y70885D01*
X345857Y70821D01*
X345757Y70767D01*
X345665Y70703D01*
X345583Y70639D01*
X345511Y70584D01*
X345456Y70539D01*
X345410Y70503D01*
X345374Y70466D01*
X345356Y70448D01*
X345347Y70439D01*
X345246Y70311D01*
X345155Y70174D01*
X345073Y70038D01*
X345000Y69892D01*
X344946Y69737D01*
X344900Y69591D01*
X344827Y69309D01*
X344800Y69172D01*
X344782Y69054D01*
X344773Y68945D01*
X344763Y68854D01*
X344754Y68772D01*
Y68781D01*
Y68662D01*
X344763Y68489D01*
X344773Y68316D01*
X344800Y68161D01*
X344827Y68015D01*
X344855Y67870D01*
X344900Y67742D01*
X344937Y67624D01*
X344982Y67514D01*
X345019Y67414D01*
X345064Y67332D01*
X345101Y67259D01*
X345128Y67196D01*
X345164Y67150D01*
X345183Y67114D01*
X345192Y67095D01*
X345201Y67086D01*
X345319Y66950D01*
X345438Y66831D01*
X345574Y66731D01*
X345720Y66640D01*
X345866Y66567D01*
X346012Y66503D01*
X346157Y66449D01*
X346303Y66412D01*
X346431Y66376D01*
X346558Y66357D01*
X346677Y66339D01*
X346777Y66321D01*
X346859D01*
X346914Y66312D01*
X346968D01*
X347232Y66330D01*
X347478Y66367D01*
X347688Y66421D01*
X347870Y66485D01*
X347952Y66521D01*
X348016Y66549D01*
X348080Y66576D01*
X348125Y66603D01*
X348162Y66631D01*
X348198Y66640D01*
X348207Y66658D01*
X348216D01*
X348389Y66804D01*
X348544Y66959D01*
X348672Y67132D01*
X348772Y67296D01*
X348854Y67441D01*
X348881Y67505D01*
X348909Y67560D01*
X348927Y67606D01*
X348945Y67642D01*
X348954Y67660D01*
Y67669D01*
X347752Y67870D01*
X347706Y67751D01*
X347660Y67642D01*
X347615Y67560D01*
X347560Y67487D01*
X347524Y67432D01*
X347487Y67396D01*
X347460Y67378D01*
X347451Y67369D01*
X347378Y67314D01*
X347296Y67278D01*
X347214Y67250D01*
X347141Y67232D01*
X347077Y67223D01*
X347023Y67214D01*
X346977D01*
X346831Y67223D01*
X346695Y67259D01*
X346567Y67305D01*
X346467Y67360D01*
X346385Y67414D01*
X346330Y67460D01*
X346285Y67496D01*
X346276Y67505D01*
X346185Y67624D01*
X346121Y67760D01*
X346066Y67906D01*
X346030Y68034D01*
X346012Y68161D01*
X346003Y68252D01*
X345993Y68289D01*
Y68316D01*
Y68334D01*
Y68343D01*
X349018D01*
Y66412D01*
Y68599D01*
X349000Y68826D01*
X348972Y69045D01*
X348936Y69245D01*
X348890Y69437D01*
X348845Y69601D01*
X348790Y69756D01*
X348735Y69892D01*
X348681Y70011D01*
X348626Y70120D01*
X348581Y70202D01*
X348535Y70275D01*
X348499Y70329D01*
X348471Y70375D01*
X348453Y70393D01*
X348444Y70402D01*
X348335Y70521D01*
X348207Y70630D01*
X348080Y70721D01*
X347952Y70794D01*
X347815Y70867D01*
X347679Y70922D01*
X347551Y70967D01*
X347424Y71004D01*
X347305Y71031D01*
X347196Y71049D01*
X347096Y71067D01*
X347014Y71076D01*
X346941Y71086D01*
X349018D01*
D01*
D02*
G37*
G36*
X364250Y71086D02*
Y68708D01*
X364241Y68899D01*
X364223Y69081D01*
X364186Y69245D01*
X364150Y69409D01*
X364095Y69555D01*
X364040Y69701D01*
X363977Y69828D01*
X363922Y69947D01*
X363858Y70047D01*
X363794Y70147D01*
X363740Y70220D01*
X363685Y70293D01*
X363649Y70338D01*
X363612Y70384D01*
X363594Y70402D01*
X363585Y70411D01*
X363457Y70530D01*
X363321Y70630D01*
X363184Y70721D01*
X363038Y70803D01*
X362892Y70867D01*
X362756Y70922D01*
X362619Y70967D01*
X362483Y71004D01*
X362364Y71031D01*
X362246Y71049D01*
X362145Y71067D01*
X362054Y71076D01*
X361981Y71086D01*
X364250D01*
X361881D01*
X361635Y71076D01*
X361407Y71040D01*
X361198Y70994D01*
X361016Y70940D01*
X360943Y70903D01*
X360870Y70876D01*
X360806Y70858D01*
X360761Y70831D01*
X360715Y70812D01*
X360688Y70794D01*
X360670Y70785D01*
X360661D01*
X360469Y70657D01*
X360305Y70521D01*
X360159Y70375D01*
X360041Y70238D01*
X359950Y70111D01*
X359877Y70011D01*
X359850Y69974D01*
X359841Y69947D01*
X359822Y69929D01*
Y69920D01*
X359722Y69710D01*
X359658Y69500D01*
X359604Y69309D01*
X359567Y69136D01*
X359549Y68981D01*
X359540Y68917D01*
Y68863D01*
X359531Y68826D01*
Y68762D01*
X359540Y68480D01*
X359576Y68216D01*
X359622Y67988D01*
X359649Y67888D01*
X359677Y67797D01*
X359704Y67715D01*
X359731Y67642D01*
X359759Y67578D01*
X359777Y67523D01*
X359795Y67478D01*
X359813Y67451D01*
X359822Y67432D01*
Y67423D01*
X359950Y67232D01*
X360086Y67068D01*
X360232Y66922D01*
X360369Y66804D01*
X360496Y66713D01*
X360597Y66649D01*
X360633Y66622D01*
X360661Y66603D01*
X360679Y66594D01*
X360688D01*
X360906Y66503D01*
X361116Y66430D01*
X361316Y66385D01*
X361508Y66348D01*
X361663Y66330D01*
X361726Y66321D01*
X361781D01*
X361826Y66312D01*
X359531Y66312D01*
D01*
X364250Y66312D01*
Y71086D01*
D02*
G37*
G36*
X340609Y72716D02*
Y68234D01*
X340600Y68435D01*
X340564Y68617D01*
X340509Y68772D01*
X340455Y68917D01*
X340400Y69027D01*
X340345Y69109D01*
X340309Y69163D01*
X340300Y69182D01*
X340172Y69327D01*
X340035Y69446D01*
X339881Y69546D01*
X339744Y69619D01*
X339616Y69683D01*
X339507Y69728D01*
X339471Y69737D01*
X339443Y69746D01*
X339425Y69756D01*
X339416D01*
X339562Y69837D01*
X339689Y69920D01*
X339799Y70020D01*
X339890Y70102D01*
X339953Y70184D01*
X340008Y70247D01*
X340044Y70293D01*
X340054Y70311D01*
X340136Y70457D01*
X340199Y70594D01*
X340236Y70730D01*
X340272Y70858D01*
X340290Y70967D01*
X340300Y71049D01*
Y71104D01*
Y71113D01*
Y71122D01*
X340290Y71268D01*
X340272Y71413D01*
X340236Y71532D01*
X340199Y71641D01*
X340163Y71732D01*
X340126Y71805D01*
X340108Y71842D01*
X340099Y71860D01*
X340026Y71978D01*
X339944Y72079D01*
X339862Y72170D01*
X339790Y72252D01*
X339717Y72306D01*
X339662Y72352D01*
X339626Y72379D01*
X339616Y72388D01*
X339507Y72461D01*
X339389Y72516D01*
X339279Y72561D01*
X339179Y72598D01*
X339088Y72625D01*
X339024Y72643D01*
X338979Y72653D01*
X338960D01*
X338806Y72671D01*
X338632Y72689D01*
X338450Y72698D01*
X338268Y72707D01*
X338104Y72716D01*
X335335D01*
Y66412D01*
X338068D01*
X338223Y66421D01*
X338496D01*
X338605Y66430D01*
X338778D01*
X338842Y66439D01*
X338933D01*
X338970Y66449D01*
X339006D01*
X339188Y66476D01*
X339352Y66521D01*
X339498Y66567D01*
X339626Y66622D01*
X339726Y66667D01*
X339799Y66713D01*
X339844Y66740D01*
X339862Y66749D01*
X339990Y66849D01*
X340090Y66959D01*
X340190Y67059D01*
X340263Y67168D01*
X340327Y67259D01*
X340372Y67332D01*
X340400Y67378D01*
X340409Y67396D01*
X340473Y67551D01*
X340527Y67697D01*
X340564Y67842D01*
X340582Y67970D01*
X340600Y68079D01*
X340609Y68161D01*
Y66412D01*
D01*
D01*
Y72716D01*
D02*
G37*
G36*
X329349D02*
Y68234D01*
X329340Y68435D01*
X329304Y68617D01*
X329249Y68772D01*
X329194Y68917D01*
X329140Y69027D01*
X329085Y69109D01*
X329049Y69163D01*
X329040Y69182D01*
X328912Y69327D01*
X328776Y69446D01*
X328621Y69546D01*
X328484Y69619D01*
X328356Y69683D01*
X328247Y69728D01*
X328211Y69737D01*
X328183Y69746D01*
X328165Y69756D01*
X328156D01*
X328302Y69837D01*
X328429Y69920D01*
X328539Y70020D01*
X328630Y70102D01*
X328694Y70184D01*
X328748Y70247D01*
X328785Y70293D01*
X328794Y70311D01*
X328876Y70457D01*
X328939Y70594D01*
X328976Y70730D01*
X329012Y70858D01*
X329030Y70967D01*
X329040Y71049D01*
Y71104D01*
Y71113D01*
Y71122D01*
X329030Y71268D01*
X329012Y71413D01*
X328976Y71532D01*
X328939Y71641D01*
X328903Y71732D01*
X328867Y71805D01*
X328848Y71842D01*
X328839Y71860D01*
X328766Y71978D01*
X328684Y72079D01*
X328602Y72170D01*
X328530Y72252D01*
X328457Y72306D01*
X328402Y72352D01*
X328365Y72379D01*
X328356Y72388D01*
X328247Y72461D01*
X328129Y72516D01*
X328019Y72561D01*
X327919Y72598D01*
X327828Y72625D01*
X327764Y72643D01*
X327719Y72653D01*
X327700D01*
X327546Y72671D01*
X327373Y72689D01*
X327190Y72698D01*
X327008Y72707D01*
X326844Y72716D01*
X324075D01*
Y66412D01*
X326808D01*
X326963Y66421D01*
X327236D01*
X327345Y66430D01*
X327518D01*
X327582Y66439D01*
X327673D01*
X327710Y66449D01*
X327746D01*
X327928Y66476D01*
X328092Y66521D01*
X328238Y66567D01*
X328365Y66622D01*
X328466Y66667D01*
X328539Y66713D01*
X328584Y66740D01*
X328602Y66749D01*
X328730Y66849D01*
X328830Y66959D01*
X328930Y67059D01*
X329003Y67168D01*
X329067Y67259D01*
X329113Y67332D01*
X329140Y67378D01*
X329149Y67396D01*
X329213Y67551D01*
X329267Y67697D01*
X329304Y67842D01*
X329322Y67970D01*
X329340Y68079D01*
X329349Y68161D01*
Y66412D01*
D01*
D01*
Y72716D01*
D02*
G37*
G36*
X353974Y71086D02*
X349683D01*
X351623D01*
X351478Y71067D01*
X351332Y71058D01*
X351204Y71031D01*
X351077Y71013D01*
X350967Y70985D01*
X350867Y70949D01*
X350776Y70922D01*
X350703Y70894D01*
X350630Y70858D01*
X350576Y70831D01*
X350521Y70812D01*
X350485Y70785D01*
X350457Y70776D01*
X350448Y70758D01*
X350439D01*
X350284Y70621D01*
X350157Y70466D01*
X350047Y70302D01*
X349956Y70147D01*
X349892Y70001D01*
X349865Y69938D01*
X349847Y69883D01*
X349829Y69837D01*
X349820Y69801D01*
X349811Y69783D01*
Y69774D01*
X350894Y69573D01*
X350940Y69683D01*
X350986Y69774D01*
X351031Y69856D01*
X351086Y69920D01*
X351122Y69965D01*
X351159Y69992D01*
X351177Y70011D01*
X351186Y70020D01*
X351259Y70065D01*
X351341Y70102D01*
X351432Y70120D01*
X351514Y70138D01*
X351587Y70147D01*
X351642Y70156D01*
X351696D01*
X351860Y70147D01*
X351997Y70129D01*
X352106Y70111D01*
X352197Y70083D01*
X352261Y70047D01*
X352307Y70029D01*
X352334Y70011D01*
X352343Y70001D01*
X352407Y69938D01*
X352452Y69865D01*
X352480Y69783D01*
X352507Y69701D01*
X352516Y69619D01*
X352525Y69555D01*
Y69519D01*
Y69500D01*
Y69382D01*
X352462Y69355D01*
X352379Y69327D01*
X352206Y69273D01*
X352006Y69227D01*
X351815Y69182D01*
X351632Y69136D01*
X351551Y69118D01*
X351478Y69109D01*
X351423Y69100D01*
X351377Y69090D01*
X351350Y69081D01*
X351341D01*
X351122Y69036D01*
X350922Y68990D01*
X350758Y68945D01*
X350621Y68899D01*
X350512Y68854D01*
X350439Y68826D01*
X350394Y68808D01*
X350375Y68799D01*
X350257Y68735D01*
X350157Y68662D01*
X350065Y68580D01*
X350002Y68507D01*
X349938Y68444D01*
X349902Y68389D01*
X349874Y68353D01*
X349865Y68334D01*
X349801Y68216D01*
X349756Y68098D01*
X349728Y67988D01*
X349710Y67879D01*
X349692Y67788D01*
X349683Y67715D01*
Y67715D01*
Y67651D01*
X349692Y67542D01*
X349701Y67441D01*
X349747Y67250D01*
X349811Y67086D01*
X349883Y66950D01*
X349956Y66840D01*
X350020Y66758D01*
X350065Y66704D01*
X350084Y66694D01*
Y66685D01*
X350248Y66558D01*
X350430Y66467D01*
X350612Y66403D01*
X350794Y66357D01*
X350949Y66330D01*
X351022Y66321D01*
X351077D01*
X351131Y66312D01*
X351230D01*
X351195D01*
X351341Y66321D01*
X351487Y66339D01*
X351614Y66357D01*
X351724Y66385D01*
X351815Y66412D01*
X351887Y66439D01*
X351933Y66449D01*
X351951Y66458D01*
X352079Y66521D01*
X352206Y66585D01*
X352316Y66667D01*
X352416Y66740D01*
X352498Y66804D01*
X352562Y66859D01*
X352598Y66895D01*
X352616Y66904D01*
X352625Y66868D01*
X352644Y66822D01*
X352653Y66786D01*
X352662Y66777D01*
Y66767D01*
X352689Y66685D01*
X352707Y66612D01*
X352726Y66549D01*
X352744Y66503D01*
X352762Y66467D01*
X352771Y66430D01*
X352780Y66421D01*
Y66412D01*
X353974D01*
X353919Y66531D01*
X353873Y66640D01*
X353837Y66740D01*
X353801Y66831D01*
X353782Y66904D01*
X353764Y66968D01*
X353755Y67004D01*
Y67013D01*
X353737Y67132D01*
X353728Y67278D01*
X353710Y67423D01*
Y67569D01*
X353700Y67697D01*
Y67806D01*
Y67852D01*
Y67879D01*
Y67897D01*
Y67906D01*
X353719Y69318D01*
Y69464D01*
X353710Y69591D01*
X353700Y69710D01*
X353691Y69819D01*
X353682Y69920D01*
X353664Y70011D01*
X353655Y70093D01*
X353637Y70156D01*
X353618Y70220D01*
X353609Y70266D01*
X353582Y70348D01*
X353564Y70384D01*
X353555Y70402D01*
X353482Y70503D01*
X353400Y70603D01*
X353309Y70685D01*
X353208Y70758D01*
X353127Y70812D01*
X353054Y70849D01*
X353008Y70876D01*
X352999Y70885D01*
X352990D01*
X352908Y70922D01*
X352826Y70949D01*
X352635Y71004D01*
X352434Y71040D01*
X352243Y71058D01*
X352061Y71076D01*
X351988D01*
X351924Y71086D01*
X353974D01*
D01*
D02*
G37*
G36*
X288509Y72716D02*
Y67478D01*
X284920D01*
X288373Y71723D01*
Y72716D01*
X283763D01*
Y71650D01*
X286705D01*
X283380Y67560D01*
Y66412D01*
X288509D01*
Y72716D01*
D02*
G37*
G36*
X322726Y72716D02*
X320212D01*
X321451D01*
Y69218D01*
Y69081D01*
Y68954D01*
X321442Y68835D01*
Y68726D01*
X321433Y68635D01*
Y68544D01*
X321424Y68462D01*
Y68389D01*
X321406Y68280D01*
X321396Y68198D01*
X321387Y68152D01*
Y68134D01*
X321360Y68015D01*
X321314Y67915D01*
X321260Y67824D01*
X321205Y67742D01*
X321150Y67678D01*
X321105Y67633D01*
X321068Y67606D01*
X321059Y67596D01*
X320950Y67523D01*
X320813Y67469D01*
X320686Y67432D01*
X320549Y67405D01*
X320431Y67387D01*
X320340Y67378D01*
X320249D01*
X320057Y67387D01*
X319893Y67414D01*
X319747Y67451D01*
X319620Y67496D01*
X319529Y67533D01*
X319456Y67569D01*
X319420Y67596D01*
X319401Y67606D01*
X319301Y67697D01*
X319219Y67806D01*
X319146Y67906D01*
X319101Y68006D01*
X319064Y68098D01*
X319037Y68170D01*
X319019Y68216D01*
Y68234D01*
X319009Y68289D01*
X319000Y68343D01*
Y68416D01*
X318991Y68498D01*
X318982Y68671D01*
Y68854D01*
X318973Y69018D01*
Y69090D01*
Y69163D01*
Y69218D01*
Y69254D01*
Y69282D01*
Y69291D01*
Y72716D01*
X317698D01*
Y69154D01*
X317707Y68972D01*
Y68799D01*
X317716Y68644D01*
X317725Y68498D01*
X317734Y68371D01*
X317743Y68252D01*
X317761Y68143D01*
X317771Y68052D01*
X317780Y67970D01*
X317789Y67897D01*
X317798Y67842D01*
X317807Y67797D01*
Y67769D01*
X317816Y67751D01*
Y67742D01*
X317862Y67606D01*
X317907Y67478D01*
X317971Y67360D01*
X318026Y67259D01*
X318080Y67168D01*
X318126Y67095D01*
X318162Y67059D01*
X318171Y67041D01*
X318281Y66922D01*
X318399Y66813D01*
X318527Y66722D01*
X318645Y66640D01*
X318745Y66576D01*
X318836Y66531D01*
X318891Y66503D01*
X318900Y66494D01*
X318909D01*
X319000Y66458D01*
X319101Y66430D01*
X319328Y66376D01*
X319556Y66339D01*
X319775Y66321D01*
X319875Y66312D01*
X319975Y66303D01*
X320057D01*
X320139Y66294D01*
X317698D01*
X320285D01*
X320549Y66303D01*
X320786Y66321D01*
X320995Y66357D01*
X321169Y66394D01*
X321241Y66403D01*
X321314Y66421D01*
X321369Y66439D01*
X321415Y66458D01*
X321451Y66467D01*
X321478Y66476D01*
X321487Y66485D01*
X321497D01*
X321661Y66558D01*
X321806Y66649D01*
X321934Y66731D01*
X322043Y66813D01*
X322125Y66886D01*
X322189Y66940D01*
X322225Y66977D01*
X322235Y66995D01*
X322335Y67123D01*
X322417Y67259D01*
X322481Y67387D01*
X322535Y67514D01*
X322572Y67624D01*
X322599Y67715D01*
X322608Y67742D01*
Y67769D01*
X322617Y67779D01*
Y67788D01*
X322635Y67888D01*
X322654Y67997D01*
X322672Y68116D01*
X322681Y68234D01*
X322699Y68507D01*
X322717Y68772D01*
Y68890D01*
Y69008D01*
X322726Y69118D01*
Y66294D01*
D01*
D01*
Y72716D01*
D02*
G37*
G36*
X369333Y70985D02*
X367251D01*
X368122D01*
Y69054D01*
Y68881D01*
Y68726D01*
X368112Y68580D01*
X368103Y68453D01*
Y68334D01*
X368094Y68234D01*
X368085Y68152D01*
X368076Y68070D01*
X368067Y68006D01*
X368058Y67961D01*
X368049Y67915D01*
Y67879D01*
X368031Y67833D01*
Y67824D01*
X367994Y67733D01*
X367939Y67651D01*
X367885Y67587D01*
X367830Y67523D01*
X367775Y67469D01*
X367730Y67432D01*
X367703Y67414D01*
X367693Y67405D01*
X367602Y67351D01*
X367502Y67314D01*
X367411Y67278D01*
X367320Y67259D01*
X367247Y67250D01*
X367192Y67241D01*
X367138D01*
X367038Y67250D01*
X366955Y67259D01*
X366874Y67278D01*
X366810Y67305D01*
X366755Y67323D01*
X366719Y67341D01*
X366691Y67351D01*
X366682Y67360D01*
X366618Y67414D01*
X366573Y67469D01*
X366527Y67523D01*
X366500Y67578D01*
X366473Y67633D01*
X366454Y67669D01*
X366445Y67697D01*
Y67706D01*
X366436Y67751D01*
X366427Y67815D01*
X366418Y67897D01*
X366409Y67979D01*
X366400Y68170D01*
X366391Y68380D01*
X366382Y68571D01*
Y68653D01*
Y68726D01*
Y68790D01*
Y68835D01*
Y68872D01*
Y68881D01*
Y70985D01*
X365170D01*
Y68088D01*
X365179Y67861D01*
X365197Y67660D01*
X365225Y67487D01*
X365252Y67341D01*
X365279Y67223D01*
X365307Y67141D01*
X365325Y67095D01*
X365334Y67077D01*
X365407Y66950D01*
X365489Y66831D01*
X365571Y66740D01*
X365662Y66658D01*
X365735Y66594D01*
X365808Y66549D01*
X365844Y66521D01*
X365862Y66512D01*
X365999Y66449D01*
X366145Y66394D01*
X366281Y66357D01*
X366418Y66339D01*
X366527Y66321D01*
X366609Y66312D01*
X365170D01*
X366691D01*
X366855Y66321D01*
X367010Y66339D01*
X367156Y66376D01*
X367283Y66412D01*
X367393Y66449D01*
X367475Y66485D01*
X367529Y66503D01*
X367548Y66512D01*
X367693Y66594D01*
X367821Y66694D01*
X367939Y66786D01*
X368031Y66886D01*
X368112Y66968D01*
X368167Y67032D01*
X368203Y67077D01*
X368213Y67095D01*
Y66412D01*
X369333D01*
Y66330D01*
Y70985D01*
D02*
G37*
G36*
X359084Y72716D02*
Y66412D01*
X357408Y69309D01*
X358975Y70985D01*
X357490D01*
X356078Y69373D01*
Y72716D01*
X354867D01*
Y66412D01*
X359084D01*
Y72716D01*
D02*
G37*
G36*
X344581Y71086D02*
Y66412D01*
D01*
D01*
Y71086D01*
D02*
G37*
G36*
X310756Y69245D02*
Y66412D01*
D01*
D01*
Y69245D01*
D02*
G37*
G36*
Y72716D02*
X305481D01*
Y66412D01*
X307868D01*
X308114Y66421D01*
X308342Y66430D01*
X308533Y66449D01*
X308688Y66476D01*
X308816Y66503D01*
X308916Y66521D01*
X308943Y66531D01*
X308970D01*
X308979Y66540D01*
X308988D01*
X309189Y66612D01*
X309371Y66694D01*
X309517Y66777D01*
X309645Y66859D01*
X309745Y66931D01*
X309818Y66986D01*
X309863Y67023D01*
X309881Y67041D01*
X310036Y67214D01*
X310173Y67396D01*
X310291Y67587D01*
X310382Y67760D01*
X310455Y67924D01*
X310492Y67988D01*
X310510Y68043D01*
X310528Y68098D01*
X310546Y68134D01*
X310556Y68152D01*
Y68161D01*
X310619Y68380D01*
X310674Y68608D01*
X310710Y68826D01*
X310729Y69036D01*
X310738Y69136D01*
X310747Y69227D01*
Y69300D01*
X310756Y69373D01*
Y69500D01*
X310747Y69819D01*
X310719Y70102D01*
X310710Y70238D01*
X310692Y70357D01*
X310674Y70475D01*
X310656Y70575D01*
X310628Y70666D01*
X310610Y70749D01*
X310592Y70821D01*
X310583Y70876D01*
X310565Y70922D01*
X310556Y70958D01*
X310546Y70976D01*
Y70985D01*
X310464Y71204D01*
X310364Y71404D01*
X310264Y71578D01*
X310164Y71723D01*
X310082Y71842D01*
X310009Y71933D01*
X309963Y71987D01*
X309954Y72006D01*
X309945D01*
X309790Y72151D01*
X309635Y72270D01*
X309471Y72370D01*
X309326Y72452D01*
X309198Y72516D01*
X309089Y72561D01*
X309052Y72571D01*
X309025Y72580D01*
X309007Y72589D01*
X308998D01*
X308825Y72634D01*
X308633Y72662D01*
X308433Y72689D01*
X308242Y72698D01*
X308068Y72707D01*
X307996Y72716D01*
X310756D01*
D02*
G37*
G36*
X299897Y72716D02*
X293574D01*
D01*
X296016D01*
X293574Y66412D01*
D01*
X293620D01*
Y65456D01*
X288591D01*
Y64672D01*
X293620D01*
Y66412D01*
X294923D01*
X295442Y67842D01*
X297975D01*
X298521Y66412D01*
X299851D01*
X299897D01*
X297364Y72716D01*
X299897D01*
Y66412D01*
D01*
Y72716D01*
D02*
G37*
G36*
X372777Y72607D02*
D01*
Y66312D01*
X371820D01*
X372011Y66321D01*
X372194Y66339D01*
X372358Y66367D01*
X372494Y66403D01*
X372613Y66430D01*
X372704Y66458D01*
X372759Y66476D01*
X372768Y66485D01*
X372777D01*
X372668Y67423D01*
X372558Y67387D01*
X372458Y67360D01*
X372376Y67341D01*
X372303Y67332D01*
X372248Y67323D01*
X372212Y67314D01*
X372176D01*
X372094Y67323D01*
X372030Y67341D01*
X371993Y67360D01*
X371975Y67369D01*
X371920Y67423D01*
X371893Y67469D01*
X371875Y67505D01*
X371866Y67523D01*
Y67542D01*
X371857Y67578D01*
Y67660D01*
Y67769D01*
X371848Y67879D01*
Y67988D01*
Y68079D01*
Y68116D01*
Y68143D01*
Y68161D01*
Y68170D01*
Y70020D01*
X372677D01*
Y70985D01*
X371848D01*
Y72607D01*
X370636Y71896D01*
Y70985D01*
X370080D01*
Y70020D01*
X370636D01*
Y68025D01*
Y67906D01*
Y67806D01*
Y67706D01*
X370645Y67624D01*
Y67478D01*
X370654Y67360D01*
X370663Y67269D01*
Y67214D01*
X370672Y67177D01*
Y67168D01*
X370691Y67068D01*
X370718Y66977D01*
X370745Y66895D01*
X370773Y66831D01*
X370800Y66777D01*
X370818Y66740D01*
X370827Y66713D01*
X370836Y66704D01*
X370891Y66640D01*
X370955Y66585D01*
X371082Y66494D01*
X371137Y66467D01*
X371182Y66439D01*
X371219Y66430D01*
X371228Y66421D01*
X371328Y66385D01*
X371428Y66357D01*
X371529Y66339D01*
X371620Y66330D01*
X371702Y66321D01*
X371766Y66312D01*
X370080D01*
X372777D01*
Y72607D01*
D02*
G37*
G36*
X282588Y72716D02*
X277559D01*
Y69154D01*
X277568Y68972D01*
Y68799D01*
X277577Y68644D01*
X277586Y68498D01*
X277595Y68371D01*
X277605Y68252D01*
X277623Y68143D01*
X277632Y68052D01*
X277641Y67970D01*
X277650Y67897D01*
X277659Y67842D01*
X277668Y67797D01*
Y67769D01*
X277677Y67751D01*
Y67742D01*
X277723Y67606D01*
X277769Y67478D01*
X277832Y67360D01*
X277887Y67259D01*
X277942Y67168D01*
X277987Y67095D01*
X278024Y67059D01*
X278033Y67041D01*
X278142Y66922D01*
X278260Y66813D01*
X278388Y66722D01*
X278506Y66640D01*
X278607Y66576D01*
X278698Y66531D01*
X278752Y66503D01*
X278762Y66494D01*
X278771D01*
X278862Y66458D01*
X278962Y66430D01*
X279190Y66376D01*
X279417Y66339D01*
X279636Y66321D01*
X279736Y66312D01*
X279837Y66303D01*
X279919D01*
X280000Y66294D01*
X280146D01*
X280411Y66303D01*
X280647Y66321D01*
X280857Y66357D01*
X281030Y66394D01*
X281103Y66403D01*
X281176Y66421D01*
X281230Y66439D01*
X281276Y66458D01*
X281312Y66467D01*
X281340Y66476D01*
X281349Y66485D01*
X281358D01*
X281522Y66558D01*
X281668Y66649D01*
X281795Y66731D01*
X281905Y66813D01*
X281986Y66886D01*
X282050Y66940D01*
X282087Y66977D01*
X282096Y66995D01*
X282196Y67123D01*
X282278Y67259D01*
X282342Y67387D01*
X282397Y67514D01*
X282433Y67624D01*
X282460Y67715D01*
X282469Y67742D01*
Y67769D01*
X282478Y67779D01*
Y67788D01*
X282497Y67888D01*
X282515Y67997D01*
X282533Y68116D01*
X282542Y68234D01*
X282560Y68507D01*
X282579Y68772D01*
Y68890D01*
Y69008D01*
X282588Y69118D01*
Y66294D01*
D01*
D01*
Y72716D01*
D02*
G37*
G36*
X334733Y66412D02*
D01*
Y65456D01*
X329705D01*
Y64672D01*
X334733D01*
Y66412D01*
D02*
G37*
G36*
X304880D02*
D01*
Y65456D01*
X299851Y65456D01*
Y64672D01*
X304880Y64672D01*
Y66412D01*
D02*
G37*
G36*
X297537Y61024D02*
X295487D01*
X295323Y61014D01*
X295169Y60996D01*
X295014Y60960D01*
X294877Y60923D01*
X294750Y60869D01*
X294631Y60814D01*
X294531Y60759D01*
X294431Y60696D01*
X294349Y60632D01*
X294267Y60577D01*
X294203Y60523D01*
X294158Y60468D01*
X294112Y60431D01*
X294085Y60395D01*
X294066Y60377D01*
X294057Y60368D01*
X293948Y60213D01*
X293857Y60031D01*
X293775Y59839D01*
X293702Y59639D01*
X293647Y59429D01*
X293593Y59211D01*
X293556Y59001D01*
X293520Y58792D01*
X293501Y58591D01*
X293483Y58409D01*
X293465Y58236D01*
X293456Y58090D01*
X293447Y57972D01*
Y61024D01*
Y57799D01*
X293456Y57471D01*
X293474Y57170D01*
X293501Y56888D01*
X293538Y56633D01*
X293574Y56405D01*
X293620Y56195D01*
X293675Y56013D01*
X293729Y55849D01*
X293775Y55712D01*
X293829Y55585D01*
X293875Y55485D01*
X293921Y55403D01*
X293948Y55348D01*
X293975Y55303D01*
X293993Y55275D01*
X294003Y55266D01*
X294112Y55139D01*
X294230Y55038D01*
X294349Y54938D01*
X294476Y54865D01*
X294595Y54792D01*
X294722Y54738D01*
X294841Y54692D01*
X294959Y54656D01*
X295069Y54619D01*
X295169Y54601D01*
X295260Y54583D01*
X295333Y54574D01*
X295396D01*
X295451Y54565D01*
X295487D01*
X295652Y54574D01*
X295806Y54592D01*
X295961Y54628D01*
X296098Y54665D01*
X296225Y54710D01*
X296344Y54765D01*
X296444Y54829D01*
X296544Y54893D01*
X296626Y54947D01*
X296708Y55011D01*
X296772Y55066D01*
X296827Y55111D01*
X296863Y55148D01*
X296890Y55184D01*
X296909Y55202D01*
X296918Y55211D01*
X297027Y55366D01*
X297118Y55549D01*
X297209Y55740D01*
X297273Y55949D01*
X297337Y56159D01*
X297382Y56368D01*
X297428Y56587D01*
X297464Y56797D01*
X297483Y56997D01*
X297501Y57179D01*
X297519Y57352D01*
X297528Y57498D01*
X297537Y57617D01*
Y57790D01*
X297528Y58118D01*
X297510Y58418D01*
X297483Y58692D01*
X297437Y58947D01*
X297392Y59183D01*
X297346Y59393D01*
X297282Y59584D01*
X297228Y59748D01*
X297173Y59903D01*
X297118Y60022D01*
X297064Y60131D01*
X297018Y60222D01*
X296972Y60286D01*
X296945Y60331D01*
X296927Y60359D01*
X296918Y60368D01*
X296818Y60486D01*
X296708Y60586D01*
X296590Y60668D01*
X296471Y60750D01*
X296353Y60814D01*
X296234Y60860D01*
X296125Y60905D01*
X296007Y60942D01*
X295898Y60969D01*
X295806Y60987D01*
X295715Y61005D01*
X295642Y61014D01*
X295579Y61024D01*
X297537D01*
D02*
G37*
G36*
X301436D02*
X300452D01*
X300361Y60814D01*
X300243Y60623D01*
X300115Y60441D01*
X299988Y60295D01*
X299879Y60176D01*
X299778Y60085D01*
X299742Y60049D01*
X299715Y60022D01*
X299696Y60012D01*
X299687Y60003D01*
X299487Y59857D01*
X299295Y59730D01*
X299122Y59630D01*
X298968Y59557D01*
X298840Y59502D01*
X298749Y59457D01*
X298712Y59448D01*
X298685Y59439D01*
X298676Y59429D01*
X298667D01*
Y54683D01*
Y58336D01*
X298995Y58464D01*
X299286Y58600D01*
X299423Y58673D01*
X299551Y58755D01*
X299669Y58828D01*
X299778Y58901D01*
X299879Y58974D01*
X299970Y59038D01*
X300043Y59092D01*
X300106Y59147D01*
X300161Y59193D01*
X300197Y59220D01*
X300216Y59238D01*
X300225Y59247D01*
Y54683D01*
X298667D01*
X301436D01*
Y61024D01*
D02*
G37*
G36*
X292955Y59256D02*
X288209D01*
D01*
X290049Y54683D01*
X291142D01*
X292955Y59256D01*
D02*
G37*
G36*
X283225Y60987D02*
X277559D01*
Y54683D01*
X278835D01*
Y57316D01*
X279244D01*
X279372Y57307D01*
X279481Y57298D01*
X279572Y57279D01*
X279645Y57270D01*
X279691Y57252D01*
X279718Y57243D01*
X279727D01*
X279800Y57206D01*
X279873Y57170D01*
X279937Y57125D01*
X280000Y57088D01*
X280046Y57043D01*
X280083Y57006D01*
X280101Y56988D01*
X280110Y56979D01*
X280146Y56933D01*
X280192Y56888D01*
X280292Y56751D01*
X280401Y56605D01*
X280520Y56441D01*
X280620Y56296D01*
X280666Y56223D01*
X280702Y56168D01*
X280738Y56122D01*
X280766Y56086D01*
X280775Y56059D01*
X280784Y56050D01*
X281695Y54683D01*
X283225D01*
X282451Y55913D01*
X282369Y56040D01*
X282287Y56168D01*
X282214Y56277D01*
X282141Y56378D01*
X282078Y56469D01*
X282023Y56560D01*
X281914Y56696D01*
X281832Y56806D01*
X281777Y56879D01*
X281731Y56924D01*
X281722Y56933D01*
X281622Y57043D01*
X281504Y57143D01*
X281394Y57225D01*
X281285Y57307D01*
X281194Y57371D01*
X281121Y57416D01*
X281066Y57452D01*
X281057Y57462D01*
X281048D01*
X281203Y57489D01*
X281340Y57525D01*
X281467Y57562D01*
X281595Y57607D01*
X281704Y57653D01*
X281804Y57699D01*
X281905Y57744D01*
X281986Y57799D01*
X282059Y57844D01*
X282123Y57890D01*
X282178Y57935D01*
X282214Y57972D01*
X282251Y57999D01*
X282278Y58026D01*
X282287Y58035D01*
X282296Y58045D01*
X282369Y58136D01*
X282433Y58227D01*
X282542Y58427D01*
X282615Y58619D01*
X282661Y58810D01*
X282697Y58974D01*
X282706Y59038D01*
Y59101D01*
X282715Y59147D01*
Y59193D01*
Y59211D01*
Y59220D01*
X282706Y59420D01*
X282670Y59612D01*
X282624Y59776D01*
X282579Y59921D01*
X282524Y60040D01*
X282478Y60131D01*
X282460Y60158D01*
X282442Y60185D01*
X282433Y60195D01*
Y60204D01*
X282324Y60359D01*
X282205Y60486D01*
X282087Y60586D01*
X281968Y60677D01*
X281859Y60732D01*
X281777Y60778D01*
X281722Y60805D01*
X281713Y60814D01*
X281704D01*
X281613Y60841D01*
X281513Y60869D01*
X281285Y60914D01*
X281039Y60942D01*
X280802Y60969D01*
X280684D01*
X280584Y60978D01*
X280483D01*
X280401Y60987D01*
X283225D01*
D01*
D02*
G37*
G36*
X285740Y59356D02*
X285640D01*
X285476Y59347D01*
X285321Y59329D01*
X285166Y59293D01*
X285029Y59256D01*
X284893Y59211D01*
X284774Y59156D01*
X284656Y59092D01*
X284556Y59038D01*
X284464Y58974D01*
X284382Y58910D01*
X284310Y58855D01*
X284255Y58810D01*
X284209Y58773D01*
X284173Y58737D01*
X284155Y58719D01*
X284146Y58710D01*
X284045Y58582D01*
X283954Y58446D01*
X283872Y58309D01*
X283799Y58163D01*
X283745Y58008D01*
X283699Y57863D01*
X283626Y57580D01*
X283599Y57443D01*
X283581Y57325D01*
X283572Y57216D01*
X283562Y57125D01*
X283553Y57043D01*
Y56933D01*
X283562Y56760D01*
X283572Y56587D01*
X283599Y56432D01*
X283626Y56286D01*
X283654Y56141D01*
X283699Y56013D01*
X283736Y55895D01*
X283781Y55785D01*
X283818Y55685D01*
X283863Y55603D01*
X283900Y55530D01*
X283927Y55467D01*
X283963Y55421D01*
X283982Y55384D01*
X283991Y55366D01*
X284000Y55357D01*
X284118Y55221D01*
X284237Y55102D01*
X284373Y55002D01*
X284519Y54911D01*
X284665Y54838D01*
X284811Y54774D01*
X284956Y54720D01*
X285102Y54683D01*
X285230Y54647D01*
X285357Y54628D01*
X285476Y54610D01*
X285576Y54592D01*
X285658D01*
X285713Y54583D01*
X287817D01*
Y56870D01*
X287799Y57097D01*
X287771Y57316D01*
X287735Y57516D01*
X287689Y57708D01*
X287644Y57872D01*
X287589Y58026D01*
X287534Y58163D01*
X287480Y58281D01*
X287425Y58391D01*
X287380Y58473D01*
X287334Y58546D01*
X287298Y58600D01*
X287270Y58646D01*
X287252Y58664D01*
X287243Y58673D01*
X287134Y58792D01*
X287006Y58901D01*
X286879Y58992D01*
X286751Y59065D01*
X286614Y59138D01*
X286478Y59193D01*
X286350Y59238D01*
X286223Y59275D01*
X286104Y59302D01*
X285995Y59320D01*
X285895Y59338D01*
X285813Y59347D01*
X285740Y59356D01*
D02*
G37*
%LPD*%
G36*
X292062Y81949D02*
X292208Y81913D01*
X292326Y81858D01*
X292436Y81794D01*
X292518Y81731D01*
X292572Y81676D01*
X292618Y81639D01*
X292627Y81621D01*
X292682Y81548D01*
X292727Y81475D01*
X292800Y81293D01*
X292846Y81111D01*
X292882Y80920D01*
X292900Y80756D01*
X292909Y80674D01*
X292918Y80610D01*
Y80555D01*
Y80519D01*
Y80492D01*
Y80482D01*
X292909Y80236D01*
X292873Y80018D01*
X292827Y79836D01*
X292773Y79690D01*
X292718Y79571D01*
X292672Y79489D01*
X292636Y79444D01*
X292627Y79426D01*
X292509Y79307D01*
X292390Y79225D01*
X292272Y79162D01*
X292162Y79125D01*
X292062Y79098D01*
X291989Y79089D01*
X291935Y79080D01*
X291916D01*
X291825Y79089D01*
X291734Y79098D01*
X291570Y79152D01*
X291434Y79225D01*
X291315Y79316D01*
X291224Y79398D01*
X291160Y79471D01*
X291124Y79526D01*
X291106Y79535D01*
Y79544D01*
X291069Y79608D01*
X291042Y79681D01*
X290987Y79845D01*
X290951Y80027D01*
X290932Y80200D01*
X290914Y80355D01*
Y80419D01*
X290905Y80482D01*
Y80528D01*
Y80573D01*
Y80592D01*
Y80601D01*
X290914Y80838D01*
X290951Y81047D01*
X290996Y81220D01*
X291051Y81366D01*
X291096Y81475D01*
X291142Y81557D01*
X291178Y81603D01*
X291188Y81621D01*
X291306Y81740D01*
X291424Y81822D01*
X291543Y81885D01*
X291661Y81922D01*
X291752Y81949D01*
X291834Y81958D01*
X291889Y81967D01*
X291907D01*
X292062Y81949D01*
D02*
G37*
G36*
X342377Y82888D02*
X342286Y82878D01*
X342195Y82851D01*
X342122Y82824D01*
X342058Y82796D01*
X342003Y82778D01*
X341976Y82760D01*
X341967Y82751D01*
X341876Y82687D01*
X341794Y82596D01*
X341703Y82496D01*
X341630Y82395D01*
X341557Y82295D01*
X341502Y82213D01*
X341466Y82159D01*
X341457Y82149D01*
Y82796D01*
X340336D01*
Y82897D01*
X342486D01*
X342377Y82888D01*
D02*
G37*
G36*
X297309Y82887D02*
X297218Y82878D01*
X297127Y82851D01*
X297054Y82824D01*
X296991Y82796D01*
X296936Y82778D01*
X296909Y82760D01*
X296900Y82751D01*
X296809Y82687D01*
X296726Y82596D01*
X296635Y82496D01*
X296563Y82395D01*
X296490Y82295D01*
X296435Y82213D01*
X296398Y82159D01*
X296389Y82149D01*
Y82796D01*
X295269D01*
Y82897D01*
X297419D01*
X297309Y82887D01*
D02*
G37*
G36*
X332228Y81949D02*
X332365Y81913D01*
X332492Y81858D01*
X332602Y81794D01*
X332684Y81731D01*
X332747Y81676D01*
X332793Y81639D01*
X332802Y81621D01*
X332902Y81475D01*
X332975Y81311D01*
X333021Y81138D01*
X333057Y80965D01*
X333075Y80810D01*
X333085Y80738D01*
X333094Y80683D01*
Y80628D01*
Y80592D01*
Y80573D01*
Y80564D01*
X333085Y80327D01*
X333048Y80118D01*
X332993Y79945D01*
X332939Y79799D01*
X332884Y79690D01*
X332829Y79608D01*
X332793Y79562D01*
X332784Y79544D01*
X332665Y79426D01*
X332538Y79344D01*
X332419Y79280D01*
X332301Y79243D01*
X332192Y79216D01*
X332110Y79207D01*
X332055Y79198D01*
X332037D01*
X331891Y79216D01*
X331754Y79253D01*
X331636Y79307D01*
X331536Y79371D01*
X331454Y79426D01*
X331399Y79480D01*
X331354Y79517D01*
X331345Y79535D01*
X331253Y79681D01*
X331190Y79845D01*
X331135Y80018D01*
X331108Y80191D01*
X331089Y80346D01*
X331080Y80419D01*
Y80473D01*
X331071Y80519D01*
Y80564D01*
Y80583D01*
Y80592D01*
X331080Y80838D01*
X331117Y81047D01*
X331162Y81220D01*
X331208Y81366D01*
X331262Y81475D01*
X331299Y81557D01*
X331335Y81603D01*
X331345Y81621D01*
X331454Y81740D01*
X331572Y81822D01*
X331700Y81885D01*
X331809Y81922D01*
X331909Y81949D01*
X331991Y81958D01*
X332046Y81967D01*
X332064D01*
X332228Y81949D01*
D02*
G37*
G36*
X337430Y81958D02*
X337548Y81922D01*
X337658Y81876D01*
X337749Y81831D01*
X337822Y81776D01*
X337876Y81731D01*
X337913Y81694D01*
X337922Y81685D01*
X338004Y81576D01*
X338077Y81448D01*
X338122Y81311D01*
X338159Y81184D01*
X338177Y81075D01*
X338186Y80974D01*
X338195Y80938D01*
Y80920D01*
Y80901D01*
Y80892D01*
X336391D01*
X336401Y81065D01*
X336428Y81220D01*
X336464Y81357D01*
X336519Y81466D01*
X336564Y81557D01*
X336610Y81621D01*
X336637Y81667D01*
X336647Y81676D01*
X336747Y81776D01*
X336856Y81849D01*
X336965Y81894D01*
X337066Y81931D01*
X337157Y81949D01*
X337230Y81967D01*
X337293D01*
X337430Y81958D01*
D02*
G37*
G36*
X300689Y81958D02*
X300808Y81922D01*
X300917Y81876D01*
X301008Y81831D01*
X301081Y81776D01*
X301136Y81731D01*
X301172Y81694D01*
X301181Y81685D01*
X301263Y81576D01*
X301336Y81448D01*
X301382Y81311D01*
X301418Y81184D01*
X301436Y81075D01*
X301446Y80974D01*
X301455Y80938D01*
Y80920D01*
Y80901D01*
Y80892D01*
X299651D01*
X299660Y81065D01*
X299687Y81220D01*
X299724Y81357D01*
X299778Y81466D01*
X299824Y81557D01*
X299869Y81621D01*
X299897Y81667D01*
X299906Y81676D01*
X300006Y81776D01*
X300115Y81849D01*
X300225Y81894D01*
X300325Y81931D01*
X300416Y81949D01*
X300489Y81967D01*
X300553D01*
X300689Y81958D01*
D02*
G37*
G36*
X306164Y80164D02*
Y80018D01*
X306155Y79890D01*
X306146Y79790D01*
X306137Y79708D01*
X306128Y79653D01*
X306119Y79608D01*
X306110Y79590D01*
Y79580D01*
X306083Y79498D01*
X306037Y79417D01*
X305991Y79353D01*
X305946Y79289D01*
X305900Y79243D01*
X305864Y79207D01*
X305837Y79189D01*
X305827Y79180D01*
X305718Y79107D01*
X305600Y79061D01*
X305499Y79025D01*
X305399Y78997D01*
X305317Y78979D01*
X305254Y78970D01*
X305199D01*
X305099Y78979D01*
X304998Y78997D01*
X304916Y79025D01*
X304853Y79061D01*
X304789Y79098D01*
X304752Y79125D01*
X304725Y79143D01*
X304716Y79152D01*
X304652Y79225D01*
X304607Y79298D01*
X304579Y79371D01*
X304561Y79444D01*
X304543Y79498D01*
X304534Y79544D01*
Y79580D01*
Y79590D01*
X304543Y79681D01*
X304570Y79763D01*
X304607Y79836D01*
X304652Y79899D01*
X304689Y79945D01*
X304725Y79981D01*
X304752Y80000D01*
X304762Y80009D01*
X304834Y80045D01*
X304925Y80091D01*
X305035Y80127D01*
X305144Y80154D01*
X305254Y80182D01*
X305335Y80200D01*
X305372Y80209D01*
X305399Y80218D01*
X305417D01*
X305600Y80255D01*
X305745Y80291D01*
X305882Y80327D01*
X305982Y80355D01*
X306064Y80382D01*
X306119Y80391D01*
X306155Y80409D01*
X306164D01*
Y80164D01*
D02*
G37*
G36*
X286997Y82887D02*
X286833Y82860D01*
X286687Y82824D01*
X286542Y82778D01*
X286405Y82714D01*
X286286Y82651D01*
X286168Y82578D01*
X286068Y82514D01*
X285977Y82441D01*
X285895Y82368D01*
X285822Y82304D01*
X285767Y82241D01*
X285722Y82195D01*
X285685Y82159D01*
X285667Y82131D01*
X285658Y82122D01*
Y82796D01*
X284537D01*
Y82897D01*
X287161D01*
X286997Y82887D01*
D02*
G37*
G36*
X281549Y80719D02*
X279809D01*
X280666Y83060D01*
X281549Y80719D01*
D02*
G37*
G36*
X282506Y78223D02*
X278907D01*
X279427Y79653D01*
X281959D01*
X282506Y78223D01*
D02*
G37*
G36*
X324694Y81958D02*
X324813Y81922D01*
X324922Y81876D01*
X325013Y81831D01*
X325086Y81776D01*
X325141Y81731D01*
X325177Y81694D01*
X325186Y81685D01*
X325268Y81576D01*
X325341Y81448D01*
X325387Y81311D01*
X325423Y81184D01*
X325441Y81075D01*
X325450Y80974D01*
X325459Y80938D01*
Y80920D01*
Y80901D01*
Y80892D01*
X323656D01*
X323665Y81065D01*
X323692Y81220D01*
X323728Y81357D01*
X323783Y81466D01*
X323829Y81557D01*
X323874Y81621D01*
X323902Y81667D01*
X323911Y81676D01*
X324011Y81776D01*
X324120Y81849D01*
X324230Y81894D01*
X324330Y81931D01*
X324421Y81949D01*
X324494Y81967D01*
X324557D01*
X324694Y81958D01*
D02*
G37*
G36*
X324321Y82888D02*
X324166Y82869D01*
X324011Y82833D01*
X323874Y82796D01*
X323738Y82751D01*
X323619Y82696D01*
X323501Y82632D01*
X323401Y82578D01*
X323309Y82514D01*
X323228Y82450D01*
X323155Y82395D01*
X323100Y82350D01*
X323054Y82314D01*
X323018Y82277D01*
X323000Y82259D01*
X322991Y82250D01*
X322890Y82122D01*
X322799Y81986D01*
X322717Y81849D01*
X322644Y81703D01*
X322590Y81548D01*
X322544Y81402D01*
X322471Y81120D01*
X322444Y80984D01*
X322426Y80865D01*
X322417Y80756D01*
X322408Y80665D01*
X322398Y80583D01*
Y82897D01*
X324485D01*
X324321Y82888D01*
D02*
G37*
G36*
X316632Y66294D02*
X314099D01*
X314391Y66303D01*
X314655Y66330D01*
X314892Y66367D01*
X314992Y66385D01*
X315092Y66412D01*
X315174Y66430D01*
X315247Y66449D01*
X315311Y66467D01*
X315366Y66485D01*
X315411Y66503D01*
X315438Y66512D01*
X315457Y66521D01*
X315466D01*
X315666Y66622D01*
X315830Y66731D01*
X315985Y66840D01*
X316104Y66959D01*
X316195Y67059D01*
X316267Y67150D01*
X316304Y67205D01*
X316322Y67214D01*
Y67223D01*
X316422Y67405D01*
X316504Y67578D01*
X316559Y67751D01*
X316595Y67915D01*
X316614Y68043D01*
X316623Y68107D01*
X316632Y68152D01*
Y66294D01*
D02*
G37*
G36*
X347050Y70147D02*
X347169Y70111D01*
X347278Y70065D01*
X347369Y70020D01*
X347442Y69965D01*
X347497Y69920D01*
X347533Y69883D01*
X347542Y69874D01*
X347624Y69765D01*
X347697Y69637D01*
X347743Y69500D01*
X347779Y69373D01*
X347797Y69263D01*
X347806Y69163D01*
X347815Y69127D01*
Y69109D01*
Y69090D01*
Y69081D01*
X346012D01*
X346021Y69254D01*
X346048Y69409D01*
X346084Y69546D01*
X346139Y69655D01*
X346185Y69746D01*
X346230Y69810D01*
X346258Y69856D01*
X346267Y69865D01*
X346367Y69965D01*
X346476Y70038D01*
X346585Y70083D01*
X346686Y70120D01*
X346777Y70138D01*
X346850Y70156D01*
X346914D01*
X347050Y70147D01*
D02*
G37*
G36*
X362063Y70083D02*
X362218Y70047D01*
X362346Y69983D01*
X362464Y69920D01*
X362555Y69856D01*
X362628Y69792D01*
X362665Y69756D01*
X362683Y69737D01*
X362792Y69591D01*
X362874Y69418D01*
X362929Y69245D01*
X362974Y69081D01*
X362993Y68936D01*
X363002Y68863D01*
Y68808D01*
X363011Y68762D01*
Y68726D01*
Y68708D01*
Y68699D01*
X362993Y68462D01*
X362956Y68243D01*
X362911Y68070D01*
X362847Y67915D01*
X362783Y67806D01*
X362738Y67715D01*
X362701Y67669D01*
X362683Y67651D01*
X362555Y67533D01*
X362428Y67441D01*
X362291Y67387D01*
X362164Y67341D01*
X362054Y67314D01*
X361972Y67305D01*
X361936Y67296D01*
X361890D01*
X361717Y67314D01*
X361562Y67351D01*
X361426Y67405D01*
X361316Y67478D01*
X361216Y67542D01*
X361143Y67596D01*
X361107Y67633D01*
X361089Y67651D01*
X360979Y67797D01*
X360906Y67970D01*
X360852Y68143D01*
X360806Y68316D01*
X360788Y68462D01*
X360779Y68526D01*
Y68589D01*
X360770Y68635D01*
Y68671D01*
Y68690D01*
Y68699D01*
X360788Y68936D01*
X360824Y69145D01*
X360870Y69327D01*
X360934Y69473D01*
X360988Y69582D01*
X361043Y69674D01*
X361080Y69719D01*
X361089Y69737D01*
X361216Y69856D01*
X361353Y69947D01*
X361490Y70011D01*
X361617Y70056D01*
X361726Y70083D01*
X361808Y70093D01*
X361845Y70102D01*
X361890D01*
X362063Y70083D01*
D02*
G37*
G36*
X364250Y66312D02*
X361890D01*
X362082Y66321D01*
X362255Y66339D01*
X362428Y66376D01*
X362583Y66421D01*
X362738Y66467D01*
X362874Y66521D01*
X363002Y66585D01*
X363120Y66649D01*
X363220Y66713D01*
X363312Y66777D01*
X363393Y66831D01*
X363457Y66877D01*
X363512Y66922D01*
X363548Y66959D01*
X363567Y66977D01*
X363576Y66986D01*
X363694Y67123D01*
X363794Y67259D01*
X363885Y67396D01*
X363967Y67542D01*
X364031Y67687D01*
X364086Y67833D01*
X364131Y67970D01*
X364168Y68107D01*
X364195Y68225D01*
X364213Y68343D01*
X364232Y68444D01*
X364241Y68535D01*
X364250Y68608D01*
Y66312D01*
D02*
G37*
G36*
X337977Y71659D02*
X338213D01*
X338268Y71650D01*
X338368D01*
X338405Y71641D01*
X338414D01*
X338523Y71623D01*
X338623Y71596D01*
X338705Y71559D01*
X338778Y71523D01*
X338824Y71486D01*
X338869Y71450D01*
X338888Y71432D01*
X338897Y71423D01*
X338951Y71350D01*
X338988Y71268D01*
X339024Y71195D01*
X339042Y71122D01*
X339052Y71049D01*
X339061Y70994D01*
Y70958D01*
Y70949D01*
X339052Y70840D01*
X339033Y70739D01*
X338997Y70657D01*
X338970Y70584D01*
X338933Y70521D01*
X338897Y70484D01*
X338878Y70457D01*
X338869Y70448D01*
X338796Y70384D01*
X338715Y70338D01*
X338632Y70302D01*
X338550Y70275D01*
X338469Y70247D01*
X338414Y70238D01*
X338377Y70229D01*
X338323D01*
X338268Y70220D01*
X337986D01*
X337831Y70211D01*
X336610D01*
Y71669D01*
X337876D01*
X337977Y71659D01*
D02*
G37*
G36*
X338059Y69154D02*
X338168Y69145D01*
X338277D01*
X338368Y69136D01*
X338450Y69127D01*
X338514Y69118D01*
X338578Y69109D01*
X338623Y69100D01*
X338696Y69090D01*
X338742Y69072D01*
X338751D01*
X338842Y69036D01*
X338924Y68990D01*
X338997Y68945D01*
X339052Y68890D01*
X339097Y68854D01*
X339124Y68817D01*
X339143Y68790D01*
X339152Y68781D01*
X339197Y68699D01*
X339234Y68617D01*
X339261Y68544D01*
X339279Y68462D01*
X339288Y68398D01*
X339298Y68343D01*
Y68307D01*
Y68298D01*
X339288Y68179D01*
X339270Y68070D01*
X339243Y67979D01*
X339206Y67906D01*
X339170Y67842D01*
X339143Y67797D01*
X339124Y67769D01*
X339115Y67760D01*
X339042Y67697D01*
X338970Y67642D01*
X338888Y67596D01*
X338815Y67560D01*
X338751Y67542D01*
X338696Y67523D01*
X338660Y67514D01*
X338651D01*
X338614Y67505D01*
X338560D01*
X338441Y67496D01*
X338295Y67487D01*
X338150D01*
X338013Y67478D01*
X336610D01*
Y69163D01*
X337931D01*
X338059Y69154D01*
D02*
G37*
G36*
X326717Y71659D02*
X326954D01*
X327008Y71650D01*
X327108D01*
X327145Y71641D01*
X327154D01*
X327263Y71623D01*
X327363Y71596D01*
X327445Y71559D01*
X327518Y71523D01*
X327564Y71486D01*
X327609Y71450D01*
X327628Y71432D01*
X327637Y71423D01*
X327691Y71350D01*
X327728Y71268D01*
X327764Y71195D01*
X327783Y71122D01*
X327792Y71049D01*
X327801Y70994D01*
Y70958D01*
Y70949D01*
X327792Y70840D01*
X327773Y70739D01*
X327737Y70657D01*
X327710Y70584D01*
X327673Y70521D01*
X327637Y70484D01*
X327619Y70457D01*
X327609Y70448D01*
X327537Y70384D01*
X327454Y70338D01*
X327373Y70302D01*
X327291Y70275D01*
X327209Y70247D01*
X327154Y70238D01*
X327117Y70229D01*
X327063D01*
X327008Y70220D01*
X326726D01*
X326571Y70211D01*
X325350D01*
Y71669D01*
X326616D01*
X326717Y71659D01*
D02*
G37*
G36*
X326799Y69154D02*
X326908Y69145D01*
X327017D01*
X327108Y69136D01*
X327190Y69127D01*
X327254Y69118D01*
X327318Y69109D01*
X327363Y69100D01*
X327436Y69090D01*
X327482Y69072D01*
X327491D01*
X327582Y69036D01*
X327664Y68990D01*
X327737Y68945D01*
X327792Y68890D01*
X327837Y68854D01*
X327865Y68817D01*
X327883Y68790D01*
X327892Y68781D01*
X327937Y68699D01*
X327974Y68617D01*
X328001Y68544D01*
X328019Y68462D01*
X328028Y68398D01*
X328038Y68343D01*
Y68307D01*
Y68298D01*
X328028Y68179D01*
X328010Y68070D01*
X327983Y67979D01*
X327946Y67906D01*
X327910Y67842D01*
X327883Y67797D01*
X327865Y67769D01*
X327855Y67760D01*
X327783Y67697D01*
X327710Y67642D01*
X327628Y67596D01*
X327555Y67560D01*
X327491Y67542D01*
X327436Y67523D01*
X327400Y67514D01*
X327391D01*
X327354Y67505D01*
X327300D01*
X327181Y67496D01*
X327035Y67487D01*
X326890D01*
X326753Y67478D01*
X325350D01*
Y69163D01*
X326671D01*
X326799Y69154D01*
D02*
G37*
G36*
X352525Y68353D02*
Y68207D01*
X352516Y68079D01*
X352507Y67979D01*
X352498Y67897D01*
X352489Y67842D01*
X352480Y67797D01*
X352471Y67779D01*
Y67769D01*
X352443Y67687D01*
X352398Y67606D01*
X352352Y67542D01*
X352307Y67478D01*
X352261Y67432D01*
X352225Y67396D01*
X352197Y67378D01*
X352188Y67369D01*
X352079Y67296D01*
X351960Y67250D01*
X351860Y67214D01*
X351760Y67186D01*
X351678Y67168D01*
X351614Y67159D01*
X351560D01*
X351459Y67168D01*
X351359Y67186D01*
X351277Y67214D01*
X351213Y67250D01*
X351150Y67287D01*
X351113Y67314D01*
X351086Y67332D01*
X351077Y67341D01*
X351013Y67414D01*
X350967Y67487D01*
X350940Y67560D01*
X350922Y67633D01*
X350904Y67687D01*
X350894Y67733D01*
Y67769D01*
Y67779D01*
X350904Y67870D01*
X350931Y67952D01*
X350967Y68025D01*
X351013Y68088D01*
X351049Y68134D01*
X351086Y68170D01*
X351113Y68189D01*
X351122Y68198D01*
X351195Y68234D01*
X351286Y68280D01*
X351396Y68316D01*
X351505Y68343D01*
X351614Y68371D01*
X351696Y68389D01*
X351733Y68398D01*
X351760Y68407D01*
X351778D01*
X351960Y68444D01*
X352106Y68480D01*
X352243Y68516D01*
X352343Y68544D01*
X352425Y68571D01*
X352480Y68580D01*
X352516Y68599D01*
X352525D01*
Y68353D01*
D02*
G37*
G36*
X357782Y66412D02*
X356078D01*
Y67870D01*
X356625Y68462D01*
X357782Y66412D01*
D02*
G37*
G36*
X307704Y71641D02*
X307813D01*
X307905Y71632D01*
X307986D01*
X308068Y71623D01*
X308132D01*
X308232Y71605D01*
X308305Y71596D01*
X308351Y71587D01*
X308360D01*
X308488Y71550D01*
X308597Y71505D01*
X308697Y71459D01*
X308788Y71404D01*
X308852Y71359D01*
X308907Y71322D01*
X308934Y71295D01*
X308943Y71286D01*
X309025Y71195D01*
X309098Y71095D01*
X309162Y70994D01*
X309216Y70903D01*
X309253Y70812D01*
X309280Y70739D01*
X309298Y70694D01*
X309307Y70685D01*
Y70676D01*
X309353Y70512D01*
X309389Y70338D01*
X309408Y70147D01*
X309426Y69965D01*
X309435Y69810D01*
X309444Y69737D01*
Y69674D01*
Y69628D01*
Y69591D01*
Y69564D01*
Y69555D01*
X309435Y69300D01*
X309426Y69063D01*
X309399Y68872D01*
X309380Y68708D01*
X309353Y68571D01*
X309344Y68516D01*
X309326Y68480D01*
X309316Y68444D01*
Y68416D01*
X309307Y68407D01*
Y68398D01*
X309253Y68252D01*
X309207Y68125D01*
X309143Y68025D01*
X309098Y67943D01*
X309052Y67879D01*
X309016Y67833D01*
X308988Y67806D01*
X308979Y67797D01*
X308897Y67733D01*
X308816Y67678D01*
X308734Y67633D01*
X308651Y67596D01*
X308579Y67569D01*
X308524Y67551D01*
X308488Y67533D01*
X308469D01*
X308369Y67514D01*
X308251Y67505D01*
X308123Y67487D01*
X307996D01*
X307877Y67478D01*
X306757D01*
Y71650D01*
X307586D01*
X307704Y71641D01*
D02*
G37*
G36*
X297565Y68908D02*
X295825D01*
X296681Y71250D01*
X297565Y68908D01*
D02*
G37*
G36*
X281312Y69218D02*
Y69081D01*
Y68954D01*
X281303Y68835D01*
Y68726D01*
X281294Y68635D01*
Y68544D01*
X281285Y68462D01*
Y68389D01*
X281267Y68280D01*
X281258Y68198D01*
X281249Y68152D01*
Y68134D01*
X281221Y68015D01*
X281176Y67915D01*
X281121Y67824D01*
X281066Y67742D01*
X281012Y67678D01*
X280966Y67633D01*
X280930Y67606D01*
X280921Y67596D01*
X280811Y67523D01*
X280675Y67469D01*
X280547Y67432D01*
X280411Y67405D01*
X280292Y67387D01*
X280201Y67378D01*
X280110D01*
X279919Y67387D01*
X279755Y67414D01*
X279609Y67451D01*
X279481Y67496D01*
X279390Y67533D01*
X279317Y67569D01*
X279281Y67596D01*
X279263Y67606D01*
X279162Y67697D01*
X279080Y67806D01*
X279008Y67906D01*
X278962Y68006D01*
X278926Y68098D01*
X278898Y68170D01*
X278880Y68216D01*
Y68234D01*
X278871Y68289D01*
X278862Y68343D01*
Y68416D01*
X278853Y68498D01*
X278844Y68671D01*
Y68854D01*
X278835Y69018D01*
Y69090D01*
Y69163D01*
Y69218D01*
Y69254D01*
Y69282D01*
Y69291D01*
Y72716D01*
X281312D01*
Y69218D01*
D02*
G37*
G36*
X295569Y60012D02*
X295642Y60003D01*
X295706Y59976D01*
X295761Y59949D01*
X295806Y59921D01*
X295843Y59903D01*
X295861Y59885D01*
X295870Y59876D01*
X295925Y59812D01*
X295979Y59730D01*
X296025Y59639D01*
X296071Y59548D01*
X296098Y59457D01*
X296125Y59384D01*
X296134Y59338D01*
X296143Y59329D01*
Y59320D01*
X296162Y59238D01*
X296180Y59138D01*
X296198Y59019D01*
X296216Y58901D01*
X296234Y58655D01*
X296244Y58400D01*
X296253Y58281D01*
Y58163D01*
X296262Y58063D01*
Y57972D01*
Y57899D01*
Y57835D01*
Y57799D01*
Y57790D01*
Y57589D01*
X296253Y57398D01*
Y57225D01*
X296244Y57070D01*
X296234Y56924D01*
X296225Y56797D01*
X296207Y56678D01*
X296198Y56578D01*
X296189Y56487D01*
X296171Y56414D01*
X296162Y56350D01*
X296153Y56296D01*
X296143Y56259D01*
Y56223D01*
X296134Y56213D01*
Y56204D01*
X296098Y56077D01*
X296052Y55977D01*
X296007Y55886D01*
X295970Y55822D01*
X295934Y55767D01*
X295898Y55731D01*
X295879Y55712D01*
X295870Y55703D01*
X295806Y55658D01*
X295743Y55621D01*
X295679Y55603D01*
X295615Y55585D01*
X295569Y55576D01*
X295524Y55567D01*
X295487D01*
X295406Y55576D01*
X295333Y55585D01*
X295269Y55612D01*
X295214Y55640D01*
X295169Y55658D01*
X295132Y55685D01*
X295114Y55694D01*
X295105Y55703D01*
X295050Y55767D01*
X294996Y55849D01*
X294950Y55940D01*
X294904Y56031D01*
X294877Y56113D01*
X294850Y56186D01*
X294841Y56232D01*
X294832Y56250D01*
X294813Y56341D01*
X294795Y56441D01*
X294777Y56551D01*
X294768Y56669D01*
X294750Y56924D01*
X294741Y57179D01*
X294731Y57298D01*
Y57416D01*
X294722Y57516D01*
Y57607D01*
Y57680D01*
Y57744D01*
Y57780D01*
Y57790D01*
Y57990D01*
X294731Y58181D01*
Y58345D01*
X294741Y58509D01*
X294750Y58646D01*
X294759Y58783D01*
X294768Y58892D01*
X294786Y59001D01*
X294795Y59092D01*
X294804Y59165D01*
X294813Y59229D01*
X294823Y59284D01*
X294832Y59320D01*
Y59356D01*
X294841Y59366D01*
Y59375D01*
X294877Y59502D01*
X294923Y59612D01*
X294959Y59694D01*
X295005Y59766D01*
X295041Y59812D01*
X295069Y59848D01*
X295087Y59867D01*
X295096Y59876D01*
X295160Y59921D01*
X295233Y59958D01*
X295296Y59985D01*
X295360Y60003D01*
X295406Y60012D01*
X295451Y60022D01*
X295487D01*
X295569Y60012D01*
D02*
G37*
G36*
X290841Y56915D02*
X290787Y56778D01*
X290750Y56651D01*
X290732Y56605D01*
X290723Y56569D01*
X290714Y56542D01*
Y56532D01*
X290705Y56487D01*
X290687Y56432D01*
X290641Y56296D01*
X290623Y56241D01*
X290605Y56186D01*
X290596Y56150D01*
X290586Y56141D01*
X290340Y56915D01*
X289475Y59256D01*
X291716D01*
X290841Y56915D01*
D02*
G37*
G36*
X280374Y59912D02*
X280574D01*
X280656Y59903D01*
X280711D01*
X280738Y59894D01*
X280748D01*
X280857Y59867D01*
X280957Y59830D01*
X281039Y59794D01*
X281103Y59748D01*
X281157Y59703D01*
X281203Y59675D01*
X281221Y59648D01*
X281230Y59639D01*
X281285Y59566D01*
X281331Y59475D01*
X281358Y59393D01*
X281385Y59311D01*
X281394Y59238D01*
X281403Y59183D01*
Y59147D01*
Y59129D01*
X281394Y59029D01*
X281385Y58937D01*
X281358Y58855D01*
X281340Y58783D01*
X281312Y58728D01*
X281285Y58692D01*
X281276Y58664D01*
X281267Y58655D01*
X281212Y58591D01*
X281157Y58537D01*
X281039Y58455D01*
X280994Y58427D01*
X280948Y58409D01*
X280921Y58391D01*
X280911D01*
X280866Y58382D01*
X280793Y58363D01*
X280720Y58354D01*
X280638Y58345D01*
X280447Y58336D01*
X280256Y58327D01*
X280073Y58318D01*
X278835D01*
Y59921D01*
X280292D01*
X280374Y59912D01*
D02*
G37*
G36*
X285849Y58418D02*
X285968Y58382D01*
X286077Y58336D01*
X286168Y58291D01*
X286241Y58236D01*
X286296Y58190D01*
X286332Y58154D01*
X286341Y58145D01*
X286423Y58035D01*
X286496Y57908D01*
X286542Y57771D01*
X286578Y57644D01*
X286596Y57534D01*
X286605Y57434D01*
X286614Y57398D01*
Y57380D01*
Y57361D01*
Y57352D01*
X284811D01*
X284820Y57525D01*
X284847Y57680D01*
X284883Y57817D01*
X284938Y57926D01*
X284984Y58017D01*
X285029Y58081D01*
X285057Y58127D01*
X285066Y58136D01*
X285166Y58236D01*
X285275Y58309D01*
X285384Y58354D01*
X285485Y58391D01*
X285576Y58409D01*
X285649Y58427D01*
X285713D01*
X285849Y58418D01*
D02*
G37*
G36*
X287817Y54583D02*
X285767D01*
X286031Y54601D01*
X286277Y54637D01*
X286487Y54692D01*
X286669Y54756D01*
X286751Y54792D01*
X286815Y54820D01*
X286879Y54847D01*
X286924Y54874D01*
X286961Y54902D01*
X286997Y54911D01*
X287006Y54929D01*
X287015D01*
X287188Y55075D01*
X287343Y55230D01*
X287471Y55403D01*
X287571Y55567D01*
X287653Y55712D01*
X287680Y55776D01*
X287708Y55831D01*
X287726Y55876D01*
X287744Y55913D01*
X287753Y55931D01*
Y55940D01*
X286551Y56141D01*
X286505Y56022D01*
X286459Y55913D01*
X286414Y55831D01*
X286359Y55758D01*
X286323Y55703D01*
X286286Y55667D01*
X286259Y55649D01*
X286250Y55640D01*
X286177Y55585D01*
X286095Y55549D01*
X286013Y55521D01*
X285940Y55503D01*
X285876Y55494D01*
X285822Y55485D01*
X285776D01*
X285630Y55494D01*
X285494Y55530D01*
X285366Y55576D01*
X285266Y55630D01*
X285184Y55685D01*
X285129Y55731D01*
X285084Y55767D01*
X285075Y55776D01*
X284984Y55895D01*
X284920Y56031D01*
X284865Y56177D01*
X284829Y56305D01*
X284811Y56432D01*
X284802Y56523D01*
X284792Y56560D01*
Y56587D01*
Y56605D01*
Y56614D01*
X287817D01*
Y54583D01*
D02*
G37*
%LPC*%
G36*
X432212Y72454D02*
X431140D01*
X430885Y71200D01*
X431957D01*
X432212Y72454D01*
D02*
G37*
G36*
X424966Y71149D02*
X424958D01*
X424951Y71142D01*
X424929Y71134D01*
X424900Y71127D01*
X424864Y71113D01*
X424820Y71098D01*
X424769Y71083D01*
X424711Y71069D01*
X424645Y71047D01*
X424565Y71032D01*
X424484Y71011D01*
X424390Y70989D01*
X424288Y70967D01*
X424186Y70945D01*
X424069Y70930D01*
X423945Y70908D01*
X423931D01*
X423887Y70901D01*
X423814Y70886D01*
X423734Y70872D01*
X423646Y70857D01*
X423559Y70836D01*
X423479Y70814D01*
X423406Y70784D01*
X423398D01*
X423376Y70770D01*
X423347Y70755D01*
X423318Y70733D01*
X423231Y70675D01*
X423158Y70588D01*
Y70580D01*
X423143Y70566D01*
X423136Y70537D01*
X423121Y70500D01*
X423107Y70456D01*
X423092Y70413D01*
X423085Y70354D01*
X423077Y70296D01*
Y70289D01*
Y70252D01*
X423085Y70209D01*
X423099Y70150D01*
X423121Y70085D01*
X423158Y70019D01*
X423202Y69946D01*
X423260Y69880D01*
X423267Y69873D01*
X423296Y69859D01*
X423340Y69829D01*
X423398Y69800D01*
X423479Y69771D01*
X423573Y69742D01*
X423683Y69727D01*
X423814Y69720D01*
X423872D01*
X423945Y69727D01*
X424025Y69742D01*
X424127Y69757D01*
X424229Y69786D01*
X424339Y69822D01*
X424448Y69873D01*
X424463Y69880D01*
X424492Y69902D01*
X424543Y69939D01*
X424601Y69990D01*
X424667Y70048D01*
X424740Y70121D01*
X424798Y70209D01*
X424856Y70303D01*
X424864Y70311D01*
X424871Y70340D01*
X424885Y70391D01*
X424907Y70456D01*
X424929Y70544D01*
X424944Y70646D01*
X424951Y70770D01*
X424958Y70916D01*
X424966Y71149D01*
D02*
G37*
G36*
X416291Y72541D02*
X416247D01*
X416218Y72534D01*
X416137Y72527D01*
X416043Y72505D01*
X415926Y72469D01*
X415802Y72417D01*
X415686Y72344D01*
X415569Y72250D01*
X415554Y72235D01*
X415525Y72199D01*
X415474Y72133D01*
X415423Y72046D01*
X415365Y71944D01*
X415314Y71812D01*
X415270Y71659D01*
X415248Y71492D01*
X417297D01*
Y71499D01*
Y71513D01*
X417289Y71535D01*
Y71565D01*
X417275Y71652D01*
X417253Y71747D01*
X417216Y71863D01*
X417180Y71973D01*
X417122Y72082D01*
X417056Y72177D01*
Y72184D01*
X417041Y72191D01*
X417005Y72235D01*
X416939Y72294D01*
X416852Y72359D01*
X416743Y72425D01*
X416611Y72483D01*
X416458Y72527D01*
X416378Y72534D01*
X416291Y72541D01*
D02*
G37*
G36*
X306365Y49140D02*
X306274D01*
X306119Y49131D01*
X305973Y49121D01*
X305691Y49076D01*
X305454Y49003D01*
X305345Y48967D01*
X305244Y48921D01*
X305153Y48885D01*
X305080Y48839D01*
X305008Y48803D01*
X304953Y48775D01*
X304907Y48739D01*
X304880Y48721D01*
X304862Y48711D01*
X304853Y48702D01*
X304752Y48611D01*
X304661Y48520D01*
X304579Y48411D01*
X304506Y48292D01*
X304397Y48056D01*
X304306Y47828D01*
X304279Y47709D01*
X304251Y47609D01*
X304224Y47518D01*
X304215Y47436D01*
X304197Y47363D01*
Y47318D01*
X304188Y47281D01*
Y47272D01*
X305390Y47154D01*
X305408Y47336D01*
X305445Y47491D01*
X305481Y47627D01*
X305527Y47728D01*
X305563Y47810D01*
X305600Y47864D01*
X305627Y47901D01*
X305636Y47910D01*
X305727Y47983D01*
X305827Y48037D01*
X305928Y48083D01*
X306028Y48110D01*
X306110Y48129D01*
X306183Y48138D01*
X306246D01*
X306383Y48129D01*
X306502Y48101D01*
X306602Y48065D01*
X306693Y48028D01*
X306757Y47992D01*
X306811Y47955D01*
X306839Y47928D01*
X306848Y47919D01*
X306921Y47828D01*
X306975Y47728D01*
X307012Y47627D01*
X307039Y47527D01*
X307057Y47436D01*
X307066Y47354D01*
Y47309D01*
Y47300D01*
Y47290D01*
X307057Y47154D01*
X307030Y47026D01*
X306984Y46899D01*
X306939Y46789D01*
X306893Y46689D01*
X306848Y46616D01*
X306820Y46571D01*
X306811Y46553D01*
X306775Y46498D01*
X306720Y46434D01*
X306647Y46352D01*
X306574Y46279D01*
X306410Y46106D01*
X306246Y45933D01*
X306083Y45769D01*
X306010Y45696D01*
X305937Y45641D01*
X305882Y45587D01*
X305846Y45550D01*
X305818Y45523D01*
X305809Y45514D01*
X305627Y45341D01*
X305463Y45177D01*
X305308Y45022D01*
X305171Y44885D01*
X305044Y44749D01*
X304935Y44621D01*
X304834Y44512D01*
X304752Y44403D01*
X304679Y44311D01*
X304616Y44229D01*
X304561Y44166D01*
X304525Y44102D01*
X304488Y44065D01*
X304470Y44029D01*
X304452Y44011D01*
Y44002D01*
X304333Y43792D01*
X304242Y43573D01*
X304169Y43373D01*
X304115Y43191D01*
X304078Y43027D01*
X304069Y42963D01*
X304060Y42908D01*
X304051Y42863D01*
X304042Y42827D01*
Y42799D01*
X308278D01*
Y43920D01*
X305873D01*
X305946Y44038D01*
X306028Y44138D01*
X306064Y44184D01*
X306092Y44220D01*
X306110Y44238D01*
X306119Y44248D01*
X306155Y44284D01*
X306192Y44330D01*
X306301Y44430D01*
X306419Y44548D01*
X306538Y44667D01*
X306656Y44776D01*
X306757Y44867D01*
X306793Y44904D01*
X306820Y44931D01*
X306839Y44940D01*
X306848Y44949D01*
X307048Y45140D01*
X307212Y45295D01*
X307349Y45441D01*
X307458Y45550D01*
X307540Y45641D01*
X307595Y45705D01*
X307631Y45751D01*
X307640Y45760D01*
X307759Y45915D01*
X307859Y46060D01*
X307941Y46197D01*
X308005Y46316D01*
X308059Y46416D01*
X308096Y46498D01*
X308114Y46543D01*
X308123Y46562D01*
X308178Y46707D01*
X308214Y46853D01*
X308242Y46990D01*
X308260Y47117D01*
X308269Y47218D01*
X308278Y47300D01*
Y47372D01*
X308269Y47509D01*
X308251Y47646D01*
X308232Y47773D01*
X308196Y47892D01*
X308105Y48101D01*
X308014Y48283D01*
X307959Y48365D01*
X307914Y48429D01*
X307868Y48493D01*
X307822Y48539D01*
X307786Y48575D01*
X307768Y48611D01*
X307750Y48620D01*
X307740Y48630D01*
X307640Y48721D01*
X307522Y48803D01*
X307413Y48866D01*
X307285Y48921D01*
X307048Y49012D01*
X306811Y49076D01*
X306702Y49094D01*
X306602Y49112D01*
X306511Y49121D01*
X306429Y49131D01*
X306365Y49140D01*
D02*
G37*
G36*
X301464D02*
X301373D01*
X301218Y49131D01*
X301072Y49121D01*
X300790Y49076D01*
X300553Y49003D01*
X300443Y48967D01*
X300343Y48921D01*
X300252Y48885D01*
X300179Y48839D01*
X300106Y48803D01*
X300052Y48775D01*
X300006Y48739D01*
X299979Y48721D01*
X299960Y48711D01*
X299951Y48702D01*
X299851Y48611D01*
X299760Y48520D01*
X299678Y48411D01*
X299605Y48292D01*
X299496Y48056D01*
X299405Y47828D01*
X299377Y47709D01*
X299350Y47609D01*
X299323Y47518D01*
X299314Y47436D01*
X299295Y47363D01*
Y47318D01*
X299286Y47281D01*
Y47272D01*
X300489Y47154D01*
X300507Y47336D01*
X300544Y47491D01*
X300580Y47627D01*
X300626Y47728D01*
X300662Y47810D01*
X300698Y47864D01*
X300726Y47901D01*
X300735Y47910D01*
X300826Y47983D01*
X300926Y48037D01*
X301026Y48083D01*
X301127Y48110D01*
X301209Y48129D01*
X301281Y48138D01*
X301345D01*
X301482Y48129D01*
X301600Y48101D01*
X301701Y48065D01*
X301792Y48028D01*
X301855Y47992D01*
X301910Y47955D01*
X301937Y47928D01*
X301946Y47919D01*
X302019Y47828D01*
X302074Y47728D01*
X302111Y47627D01*
X302138Y47527D01*
X302156Y47436D01*
X302165Y47354D01*
Y47309D01*
Y47300D01*
Y47290D01*
X302156Y47154D01*
X302129Y47026D01*
X302083Y46899D01*
X302038Y46789D01*
X301992Y46689D01*
X301946Y46616D01*
X301919Y46571D01*
X301910Y46553D01*
X301874Y46498D01*
X301819Y46434D01*
X301746Y46352D01*
X301673Y46279D01*
X301509Y46106D01*
X301345Y45933D01*
X301181Y45769D01*
X301108Y45696D01*
X301035Y45641D01*
X300981Y45587D01*
X300944Y45550D01*
X300917Y45523D01*
X300908Y45514D01*
X300726Y45341D01*
X300562Y45177D01*
X300407Y45022D01*
X300270Y44885D01*
X300143Y44749D01*
X300033Y44621D01*
X299933Y44512D01*
X299851Y44403D01*
X299778Y44311D01*
X299715Y44229D01*
X299660Y44166D01*
X299623Y44102D01*
X299587Y44065D01*
X299569Y44029D01*
X299551Y44011D01*
Y44002D01*
X299432Y43792D01*
X299341Y43573D01*
X299268Y43373D01*
X299214Y43191D01*
X299177Y43027D01*
X299168Y42963D01*
X299159Y42908D01*
X299150Y42863D01*
X299141Y42827D01*
Y42799D01*
X303377D01*
Y43920D01*
X300972D01*
X301045Y44038D01*
X301127Y44138D01*
X301163Y44184D01*
X301190Y44220D01*
X301209Y44238D01*
X301218Y44248D01*
X301254Y44284D01*
X301291Y44330D01*
X301400Y44430D01*
X301518Y44548D01*
X301637Y44667D01*
X301755Y44776D01*
X301855Y44867D01*
X301892Y44904D01*
X301919Y44931D01*
X301937Y44940D01*
X301946Y44949D01*
X302147Y45140D01*
X302311Y45295D01*
X302448Y45441D01*
X302557Y45550D01*
X302639Y45641D01*
X302694Y45705D01*
X302730Y45751D01*
X302739Y45760D01*
X302857Y45915D01*
X302958Y46060D01*
X303040Y46197D01*
X303103Y46316D01*
X303158Y46416D01*
X303195Y46498D01*
X303213Y46543D01*
X303222Y46562D01*
X303277Y46707D01*
X303313Y46853D01*
X303340Y46990D01*
X303359Y47117D01*
X303368Y47218D01*
X303377Y47300D01*
Y47372D01*
X303368Y47509D01*
X303349Y47646D01*
X303331Y47773D01*
X303295Y47892D01*
X303204Y48101D01*
X303113Y48283D01*
X303058Y48365D01*
X303012Y48429D01*
X302967Y48493D01*
X302921Y48539D01*
X302885Y48575D01*
X302867Y48611D01*
X302848Y48620D01*
X302839Y48630D01*
X302739Y48721D01*
X302621Y48803D01*
X302511Y48866D01*
X302384Y48921D01*
X302147Y49012D01*
X301910Y49076D01*
X301801Y49094D01*
X301701Y49112D01*
X301609Y49121D01*
X301528Y49131D01*
X301464Y49140D01*
D02*
G37*
G36*
X291661D02*
X291570D01*
X291415Y49131D01*
X291270Y49121D01*
X290987Y49076D01*
X290750Y49003D01*
X290641Y48967D01*
X290541Y48921D01*
X290450Y48885D01*
X290377Y48839D01*
X290304Y48803D01*
X290249Y48775D01*
X290204Y48739D01*
X290176Y48721D01*
X290158Y48711D01*
X290149Y48702D01*
X290049Y48611D01*
X289958Y48520D01*
X289876Y48411D01*
X289803Y48292D01*
X289694Y48056D01*
X289602Y47828D01*
X289575Y47709D01*
X289548Y47609D01*
X289521Y47518D01*
X289511Y47436D01*
X289493Y47363D01*
Y47318D01*
X289484Y47281D01*
Y47272D01*
X290687Y47154D01*
X290705Y47336D01*
X290741Y47491D01*
X290778Y47627D01*
X290823Y47728D01*
X290860Y47810D01*
X290896Y47864D01*
X290923Y47901D01*
X290932Y47910D01*
X291024Y47983D01*
X291124Y48037D01*
X291224Y48083D01*
X291324Y48110D01*
X291406Y48129D01*
X291479Y48138D01*
X291543D01*
X291680Y48129D01*
X291798Y48101D01*
X291898Y48065D01*
X291989Y48028D01*
X292053Y47992D01*
X292108Y47955D01*
X292135Y47928D01*
X292144Y47919D01*
X292217Y47828D01*
X292272Y47728D01*
X292308Y47627D01*
X292336Y47527D01*
X292354Y47436D01*
X292363Y47354D01*
Y47309D01*
Y47300D01*
Y47290D01*
X292354Y47154D01*
X292326Y47026D01*
X292281Y46899D01*
X292235Y46789D01*
X292190Y46689D01*
X292144Y46616D01*
X292117Y46571D01*
X292108Y46553D01*
X292071Y46498D01*
X292017Y46434D01*
X291944Y46352D01*
X291871Y46279D01*
X291707Y46106D01*
X291543Y45933D01*
X291379Y45769D01*
X291306Y45696D01*
X291233Y45641D01*
X291178Y45587D01*
X291142Y45550D01*
X291115Y45523D01*
X291106Y45514D01*
X290923Y45341D01*
X290759Y45177D01*
X290605Y45022D01*
X290468Y44885D01*
X290340Y44749D01*
X290231Y44621D01*
X290131Y44512D01*
X290049Y44403D01*
X289976Y44311D01*
X289912Y44229D01*
X289858Y44166D01*
X289821Y44102D01*
X289785Y44065D01*
X289766Y44029D01*
X289748Y44011D01*
Y44002D01*
X289630Y43792D01*
X289539Y43573D01*
X289466Y43373D01*
X289411Y43191D01*
X289375Y43027D01*
X289366Y42963D01*
X289356Y42908D01*
X289347Y42863D01*
X289338Y42827D01*
Y42799D01*
X293574D01*
Y43920D01*
X291169D01*
X291242Y44038D01*
X291324Y44138D01*
X291361Y44184D01*
X291388Y44220D01*
X291406Y44238D01*
X291415Y44248D01*
X291452Y44284D01*
X291488Y44330D01*
X291598Y44430D01*
X291716Y44548D01*
X291834Y44667D01*
X291953Y44776D01*
X292053Y44867D01*
X292090Y44904D01*
X292117Y44931D01*
X292135Y44940D01*
X292144Y44949D01*
X292345Y45140D01*
X292509Y45295D01*
X292645Y45441D01*
X292755Y45550D01*
X292836Y45641D01*
X292891Y45705D01*
X292928Y45751D01*
X292937Y45760D01*
X293055Y45915D01*
X293155Y46060D01*
X293237Y46197D01*
X293301Y46316D01*
X293356Y46416D01*
X293392Y46498D01*
X293410Y46543D01*
X293420Y46562D01*
X293474Y46707D01*
X293511Y46853D01*
X293538Y46990D01*
X293556Y47117D01*
X293565Y47218D01*
X293574Y47300D01*
Y47372D01*
X293565Y47509D01*
X293547Y47646D01*
X293529Y47773D01*
X293492Y47892D01*
X293401Y48101D01*
X293310Y48283D01*
X293256Y48365D01*
X293210Y48429D01*
X293164Y48493D01*
X293119Y48539D01*
X293082Y48575D01*
X293064Y48611D01*
X293046Y48620D01*
X293037Y48630D01*
X292937Y48721D01*
X292818Y48803D01*
X292709Y48866D01*
X292581Y48921D01*
X292345Y49012D01*
X292108Y49076D01*
X291998Y49094D01*
X291898Y49112D01*
X291807Y49121D01*
X291725Y49131D01*
X291661Y49140D01*
D02*
G37*
G36*
X284310D02*
X284219D01*
X284064Y49131D01*
X283918Y49121D01*
X283635Y49076D01*
X283399Y49003D01*
X283289Y48967D01*
X283189Y48921D01*
X283098Y48885D01*
X283025Y48839D01*
X282952Y48803D01*
X282897Y48775D01*
X282852Y48739D01*
X282825Y48721D01*
X282806Y48711D01*
X282797Y48702D01*
X282697Y48611D01*
X282606Y48520D01*
X282524Y48411D01*
X282451Y48292D01*
X282342Y48056D01*
X282251Y47828D01*
X282223Y47709D01*
X282196Y47609D01*
X282169Y47518D01*
X282160Y47436D01*
X282141Y47363D01*
Y47318D01*
X282132Y47281D01*
Y47272D01*
X283335Y47154D01*
X283353Y47336D01*
X283389Y47491D01*
X283426Y47627D01*
X283471Y47728D01*
X283508Y47810D01*
X283544Y47864D01*
X283572Y47901D01*
X283581Y47910D01*
X283672Y47983D01*
X283772Y48037D01*
X283872Y48083D01*
X283973Y48110D01*
X284054Y48129D01*
X284127Y48138D01*
X284191D01*
X284328Y48129D01*
X284446Y48101D01*
X284546Y48065D01*
X284637Y48028D01*
X284701Y47992D01*
X284756Y47955D01*
X284783Y47928D01*
X284792Y47919D01*
X284865Y47828D01*
X284920Y47728D01*
X284956Y47627D01*
X284984Y47527D01*
X285002Y47436D01*
X285011Y47354D01*
Y47309D01*
Y47300D01*
Y47290D01*
X285002Y47154D01*
X284975Y47026D01*
X284929Y46899D01*
X284883Y46789D01*
X284838Y46689D01*
X284792Y46616D01*
X284765Y46571D01*
X284756Y46553D01*
X284719Y46498D01*
X284665Y46434D01*
X284592Y46352D01*
X284519Y46279D01*
X284355Y46106D01*
X284191Y45933D01*
X284027Y45769D01*
X283954Y45696D01*
X283881Y45641D01*
X283827Y45587D01*
X283790Y45550D01*
X283763Y45523D01*
X283754Y45514D01*
X283572Y45341D01*
X283408Y45177D01*
X283253Y45022D01*
X283116Y44885D01*
X282989Y44749D01*
X282879Y44621D01*
X282779Y44512D01*
X282697Y44403D01*
X282624Y44311D01*
X282560Y44229D01*
X282506Y44166D01*
X282469Y44102D01*
X282433Y44065D01*
X282415Y44029D01*
X282397Y44011D01*
Y44002D01*
X282278Y43792D01*
X282187Y43573D01*
X282114Y43373D01*
X282059Y43191D01*
X282023Y43027D01*
X282014Y42963D01*
X282005Y42908D01*
X281996Y42863D01*
X281986Y42827D01*
Y42799D01*
X286223D01*
Y43920D01*
X283818D01*
X283891Y44038D01*
X283973Y44138D01*
X284009Y44184D01*
X284036Y44220D01*
X284054Y44238D01*
X284064Y44248D01*
X284100Y44284D01*
X284137Y44330D01*
X284246Y44430D01*
X284364Y44548D01*
X284483Y44667D01*
X284601Y44776D01*
X284701Y44867D01*
X284738Y44904D01*
X284765Y44931D01*
X284783Y44940D01*
X284792Y44949D01*
X284993Y45140D01*
X285157Y45295D01*
X285293Y45441D01*
X285403Y45550D01*
X285485Y45641D01*
X285539Y45705D01*
X285576Y45751D01*
X285585Y45760D01*
X285703Y45915D01*
X285804Y46060D01*
X285886Y46197D01*
X285949Y46316D01*
X286004Y46416D01*
X286040Y46498D01*
X286059Y46543D01*
X286068Y46562D01*
X286122Y46707D01*
X286159Y46853D01*
X286186Y46990D01*
X286204Y47117D01*
X286213Y47218D01*
X286223Y47300D01*
Y47372D01*
X286213Y47509D01*
X286195Y47646D01*
X286177Y47773D01*
X286141Y47892D01*
X286050Y48101D01*
X285959Y48283D01*
X285904Y48365D01*
X285858Y48429D01*
X285813Y48493D01*
X285767Y48539D01*
X285731Y48575D01*
X285713Y48611D01*
X285694Y48620D01*
X285685Y48630D01*
X285585Y48721D01*
X285467Y48803D01*
X285357Y48866D01*
X285230Y48921D01*
X284993Y49012D01*
X284756Y49076D01*
X284647Y49094D01*
X284546Y49112D01*
X284455Y49121D01*
X284373Y49131D01*
X284310Y49140D01*
D02*
G37*
G36*
X280328D02*
X279345D01*
X279254Y48930D01*
X279135Y48739D01*
X279008Y48557D01*
X278880Y48411D01*
X278771Y48292D01*
X278671Y48201D01*
X278634Y48165D01*
X278607Y48138D01*
X278589Y48129D01*
X278579Y48119D01*
X278379Y47974D01*
X278188Y47846D01*
X278015Y47746D01*
X277860Y47673D01*
X277732Y47618D01*
X277641Y47573D01*
X277605Y47564D01*
X277577Y47555D01*
X277568Y47545D01*
X277559D01*
Y46452D01*
X277887Y46580D01*
X278179Y46716D01*
X278315Y46789D01*
X278443Y46871D01*
X278561Y46944D01*
X278671Y47017D01*
X278771Y47090D01*
X278862Y47154D01*
X278935Y47208D01*
X278998Y47263D01*
X279053Y47309D01*
X279089Y47336D01*
X279108Y47354D01*
X279117Y47363D01*
Y42799D01*
X280328D01*
Y49140D01*
D02*
G37*
G36*
X289129Y49213D02*
X288218D01*
X286660Y42690D01*
X287553D01*
X289129Y49213D01*
D02*
G37*
G36*
X296526Y49140D02*
X296435D01*
X296271Y49131D01*
X296116Y49112D01*
X295961Y49076D01*
X295825Y49040D01*
X295697Y48985D01*
X295579Y48930D01*
X295478Y48875D01*
X295378Y48812D01*
X295296Y48748D01*
X295214Y48693D01*
X295150Y48639D01*
X295105Y48584D01*
X295059Y48548D01*
X295032Y48511D01*
X295014Y48493D01*
X295005Y48484D01*
X294895Y48329D01*
X294804Y48147D01*
X294722Y47955D01*
X294649Y47755D01*
X294595Y47545D01*
X294540Y47327D01*
X294504Y47117D01*
X294467Y46908D01*
X294449Y46707D01*
X294431Y46525D01*
X294413Y46352D01*
X294403Y46206D01*
X294394Y46088D01*
Y45915D01*
X294403Y45587D01*
X294422Y45286D01*
X294449Y45004D01*
X294485Y44749D01*
X294522Y44521D01*
X294567Y44311D01*
X294622Y44129D01*
X294677Y43965D01*
X294722Y43829D01*
X294777Y43701D01*
X294823Y43601D01*
X294868Y43519D01*
X294895Y43464D01*
X294923Y43419D01*
X294941Y43391D01*
X294950Y43382D01*
X295059Y43255D01*
X295178Y43154D01*
X295296Y43054D01*
X295424Y42981D01*
X295542Y42908D01*
X295670Y42854D01*
X295788Y42808D01*
X295907Y42772D01*
X296016Y42735D01*
X296116Y42717D01*
X296207Y42699D01*
X296280Y42690D01*
X296344D01*
X296398Y42681D01*
X296435D01*
X296599Y42690D01*
X296754Y42708D01*
X296909Y42744D01*
X297045Y42781D01*
X297173Y42827D01*
X297291Y42881D01*
X297392Y42945D01*
X297492Y43009D01*
X297574Y43063D01*
X297656Y43127D01*
X297720Y43182D01*
X297774Y43227D01*
X297811Y43264D01*
X297838Y43300D01*
X297856Y43318D01*
X297865Y43328D01*
X297975Y43482D01*
X298066Y43665D01*
X298157Y43856D01*
X298220Y44065D01*
X298284Y44275D01*
X298330Y44484D01*
X298375Y44703D01*
X298412Y44913D01*
X298430Y45113D01*
X298448Y45295D01*
X298466Y45468D01*
X298476Y45614D01*
X298485Y45733D01*
Y45906D01*
X298476Y46234D01*
X298457Y46534D01*
X298430Y46808D01*
X298384Y47063D01*
X298339Y47300D01*
X298293Y47509D01*
X298230Y47700D01*
X298175Y47864D01*
X298120Y48019D01*
X298066Y48138D01*
X298011Y48247D01*
X297966Y48338D01*
X297920Y48402D01*
X297893Y48447D01*
X297874Y48475D01*
X297865Y48484D01*
X297765Y48602D01*
X297656Y48702D01*
X297537Y48784D01*
X297419Y48866D01*
X297300Y48930D01*
X297182Y48976D01*
X297073Y49021D01*
X296954Y49058D01*
X296845Y49085D01*
X296754Y49103D01*
X296663Y49121D01*
X296590Y49131D01*
X296526Y49140D01*
D02*
G37*
%LPD*%
G36*
X296517Y48129D02*
X296590Y48119D01*
X296654Y48092D01*
X296708Y48065D01*
X296754Y48037D01*
X296790Y48019D01*
X296809Y48001D01*
X296818Y47992D01*
X296872Y47928D01*
X296927Y47846D01*
X296972Y47755D01*
X297018Y47664D01*
X297045Y47573D01*
X297073Y47500D01*
X297082Y47454D01*
X297091Y47445D01*
Y47436D01*
X297109Y47354D01*
X297127Y47254D01*
X297146Y47135D01*
X297164Y47017D01*
X297182Y46771D01*
X297191Y46516D01*
X297200Y46398D01*
Y46279D01*
X297209Y46179D01*
Y46088D01*
Y46015D01*
Y45951D01*
Y45915D01*
Y45906D01*
Y45705D01*
X297200Y45514D01*
Y45341D01*
X297191Y45186D01*
X297182Y45040D01*
X297173Y44913D01*
X297155Y44794D01*
X297146Y44694D01*
X297136Y44603D01*
X297118Y44530D01*
X297109Y44466D01*
X297100Y44412D01*
X297091Y44375D01*
Y44339D01*
X297082Y44330D01*
Y44320D01*
X297045Y44193D01*
X297000Y44093D01*
X296954Y44002D01*
X296918Y43938D01*
X296881Y43883D01*
X296845Y43847D01*
X296827Y43829D01*
X296818Y43819D01*
X296754Y43774D01*
X296690Y43738D01*
X296626Y43719D01*
X296563Y43701D01*
X296517Y43692D01*
X296471Y43683D01*
X296435D01*
X296353Y43692D01*
X296280Y43701D01*
X296216Y43728D01*
X296162Y43756D01*
X296116Y43774D01*
X296080Y43801D01*
X296061Y43810D01*
X296052Y43819D01*
X295998Y43883D01*
X295943Y43965D01*
X295898Y44056D01*
X295852Y44147D01*
X295825Y44229D01*
X295797Y44302D01*
X295788Y44348D01*
X295779Y44366D01*
X295761Y44457D01*
X295743Y44557D01*
X295724Y44667D01*
X295715Y44785D01*
X295697Y45040D01*
X295688Y45295D01*
X295679Y45414D01*
Y45532D01*
X295670Y45632D01*
Y45724D01*
Y45796D01*
Y45860D01*
Y45897D01*
Y45906D01*
Y46106D01*
X295679Y46297D01*
Y46461D01*
X295688Y46625D01*
X295697Y46762D01*
X295706Y46899D01*
X295715Y47008D01*
X295733Y47117D01*
X295743Y47208D01*
X295752Y47281D01*
X295761Y47345D01*
X295770Y47400D01*
X295779Y47436D01*
Y47473D01*
X295788Y47482D01*
Y47491D01*
X295825Y47618D01*
X295870Y47728D01*
X295907Y47810D01*
X295952Y47883D01*
X295989Y47928D01*
X296016Y47965D01*
X296034Y47983D01*
X296043Y47992D01*
X296107Y48037D01*
X296180Y48074D01*
X296244Y48101D01*
X296307Y48119D01*
X296353Y48129D01*
X296398Y48138D01*
X296435D01*
X296517Y48129D01*
D02*
G37*
D10*
X487716Y67764D02*
G03*
X490453Y65028I2736J0D01*
G01*
Y328768D02*
G03*
X487716Y326031I0J-2736D01*
G01*
X409449Y41732D02*
Y67716D01*
Y41732D02*
X435433D01*
Y67716D01*
X409449D02*
X435433D01*
X524016Y87843D02*
Y305953D01*
X558976Y91071D02*
X582283D01*
X487716Y67764D02*
Y326031D01*
X582283Y91071D02*
Y302724D01*
X490473Y65008D02*
X558976D01*
Y328787D01*
X490473D02*
X558976D01*
Y302724D02*
X582283D01*
X524016Y87843D02*
X539764D01*
Y305953D01*
X524016D02*
X539764D01*
X555433Y65008D02*
Y328787D01*
D11*
X275221Y110332D02*
G03*
X275252Y109469I49275J1331D01*
G01*
X314726Y167048D02*
G03*
X314468Y166425I623J-623D01*
G01*
X315785Y99688D02*
G03*
X317963Y99310I1967J4876D01*
G01*
X316662Y102017D02*
G03*
X317560Y101501I1225J1092D01*
G01*
X316116Y103154D02*
G03*
X316662Y102017I2502J501D01*
G01*
X316484Y132798D02*
G03*
X317107Y132543I619J622D01*
G01*
X316226Y133420D02*
G03*
X316484Y132798I877J-0D01*
G01*
X316226Y166425D02*
G03*
X315349Y167306I-881J0D01*
G01*
X318583Y99321D02*
G03*
X318848Y99336I-348J8685D01*
G01*
X319686Y101402D02*
G03*
X319738Y101408I-242J2010D01*
G01*
X319586Y101392D02*
G03*
X319686Y101402I-168J2246D01*
G01*
X319538Y101389D02*
G03*
X319586Y101392I-145J2584D01*
G01*
X329737Y119556D02*
G03*
X328058Y118545I3830J-8256D01*
G01*
X333526Y118029D02*
G03*
X332900Y118079I-603J-3579D01*
G01*
X332695Y120148D02*
G03*
X331314Y120034I75J-9382D01*
G01*
X337295Y115617D02*
G03*
X337105Y114538I7930J-1955D01*
G01*
X337614Y116580D02*
G03*
X337439Y116113I5665J-2399D01*
G01*
X337439Y116113D02*
G03*
X337295Y115617I6479J-2143D01*
G01*
X338284Y100615D02*
G03*
X340264Y99478I3872J4451D01*
G01*
X340744Y110754D02*
G03*
X339442Y110065I3461J-8116D01*
G01*
X340843Y117202D02*
G03*
X339165Y114538I1865J-3035D01*
G01*
X340191Y119265D02*
G03*
X339345Y118767I2411J-5058D01*
G01*
Y118767D02*
G03*
X338062Y117426I2906J-4064D01*
G01*
X340671Y119473D02*
G03*
X340191Y119265I2438J-6290D01*
G01*
X342472Y101238D02*
G03*
X342910Y101188I1210J8703D01*
G01*
X343368Y101158D02*
G03*
X343848Y101148I474J11306D01*
G01*
X342910Y101188D02*
G03*
X343368Y101158I876J9930D01*
G01*
X341658Y101397D02*
G03*
X342055Y101307I1713J6661D01*
G01*
X340929Y101636D02*
G03*
X341658Y101397I2165J5385D01*
G01*
X342962Y109444D02*
G03*
X342355Y109276I2538J-10361D01*
G01*
X343616Y109586D02*
G03*
X342962Y109444I2383J-12531D01*
G01*
X341793Y109082D02*
G03*
X341279Y108863I2675J-6984D01*
G01*
X342355Y109276D02*
G03*
X341793Y109082I2630J-8523D01*
G01*
X343141Y111500D02*
G03*
X342282Y111289I3196J-14890D01*
G01*
X344058Y111672D02*
G03*
X343141Y111500I2852J-17725D01*
G01*
X342282Y111289D02*
G03*
X341483Y111040I3443J-12467D01*
G01*
X342965Y120025D02*
G03*
X342335Y119929I1537J-12158D01*
G01*
X343059Y117939D02*
G03*
X342619Y117860I1365J-8875D01*
G01*
X343633Y120094D02*
G03*
X342965Y120025I1128J-14269D01*
G01*
X343528Y118000D02*
G03*
X343059Y117939I1142J-10527D01*
G01*
X344024Y118044D02*
G03*
X343528Y118000I847J-12422D01*
G01*
X342335Y119929D02*
G03*
X341742Y119805I1855J-10329D01*
G01*
X341742Y119805D02*
G03*
X341188Y119653I2100J-8756D01*
G01*
X341824Y117649D02*
G03*
X341469Y117518I1718J-5185D01*
G01*
X342208Y117763D02*
G03*
X341824Y117649I1641J-6222D01*
G01*
X342619Y117860D02*
G03*
X342208Y117763I1527J-7446D01*
G01*
X342463Y130759D02*
G03*
X344053Y131598I-90J2096D01*
G01*
X342463Y132543D02*
G03*
X342648Y132639I-116J447D01*
G01*
X342081Y141367D02*
G03*
X342703Y141625I0J877D01*
G01*
D02*
G03*
X342958Y142248I-622J619D01*
G01*
X341200Y142248D02*
G03*
X341458Y141625I881J0D01*
G01*
D02*
G03*
X342081Y141367I623J623D01*
G01*
X343216Y165479D02*
G03*
X342958Y164856I623J-623D01*
G01*
X343512Y167478D02*
G03*
X341877Y166801I0J-2312D01*
G01*
X344695Y99210D02*
G03*
X346638Y99688I-1223J9150D01*
G01*
X345062Y109793D02*
G03*
X344316Y109703I1804J-18001D01*
G01*
X345854Y109858D02*
G03*
X345062Y109793I1344J-21368D01*
G01*
X346071Y111901D02*
G03*
X345035Y111806I1767J-24788D01*
G01*
X347166Y111959D02*
G03*
X346071Y111901I976J-29094D01*
G01*
X345081Y120148D02*
G03*
X344338Y120135I-31J-19427D01*
G01*
X347813Y102311D02*
G03*
X349441Y103460I-5625J9693D01*
G01*
X352084Y131640D02*
G03*
X352343Y131017I881J0D01*
G01*
X352965Y132521D02*
G03*
X352343Y132264I0J-881D01*
G01*
Y132263D02*
G03*
X352084Y131640I623J-623D01*
G01*
X352343Y131017D02*
G03*
X352965Y130759I623J623D01*
G01*
X366800Y165368D02*
G03*
X366821Y165611I-185J138D01*
G01*
X369343Y166862D02*
G03*
X368268Y167478I-1004J-507D01*
G01*
X375651Y132777D02*
G03*
X375909Y133398I-619J622D01*
G01*
X375028Y132521D02*
G03*
X375651Y132777I4J877D01*
G01*
X376999Y131448D02*
G03*
X377667Y133096I-1648J1627D01*
G01*
X378544Y165724D02*
G03*
X377667Y164843I4J-881D01*
G01*
X378221Y167478D02*
G03*
X376586Y166801I0J-2312D01*
G01*
X405377Y133075D02*
G03*
X407689Y130759I2316J0D01*
G01*
X407394Y132794D02*
G03*
X408017Y132538I619J622D01*
G01*
X407135Y133415D02*
G03*
X407394Y132794I877J-0D01*
G01*
X410845Y119527D02*
G03*
X408990Y118469I3269J-7888D01*
G01*
X414113Y120148D02*
G03*
X412565Y120018I36J-9714D01*
G01*
X417999Y115096D02*
G03*
X417193Y116774I-3951J-864D01*
G01*
X417291Y119492D02*
G03*
X416357Y119856I-2482J-4984D01*
G01*
X417732Y131025D02*
G03*
X417982Y131657I-630J616D01*
G01*
X417982Y131657D02*
G03*
X417105Y132538I-881J0D01*
G01*
X417105Y130759D02*
G03*
X417732Y131025I-4J881D01*
G01*
X420095Y115483D02*
G03*
X419784Y116576I-7919J-1666D01*
G01*
X420282Y114244D02*
G03*
X420095Y115483I-10787J-994D01*
G01*
X433474Y120034D02*
G03*
X431909Y119556I1101J-6401D01*
G01*
X436209Y117769D02*
G03*
X434321Y118079I-1740J-4685D01*
G01*
X443687Y119401D02*
G03*
X441912Y118276I3668J-7753D01*
G01*
X447171Y118058D02*
G03*
X446737Y118071I-428J-7286D01*
G01*
X450076Y116543D02*
G03*
X449905Y116812I-2723J-1541D01*
G01*
X450228Y116242D02*
G03*
X450076Y116543I-3394J-1533D01*
G01*
X450363Y115909D02*
G03*
X450228Y116242I-4231J-1518D01*
G01*
X449289Y119856D02*
G03*
X447270Y120148I-1930J-6227D01*
G01*
X449238Y117454D02*
G03*
X448960Y117617I-1623J-2439D01*
G01*
X450131Y119492D02*
G03*
X449289Y119856I-2289J-4131D01*
G01*
X447965Y117957D02*
G03*
X447581Y118020I-1036J-5116D01*
G01*
X448323Y117869D02*
G03*
X447965Y117957I-1237J-4256D01*
G01*
X448655Y117756D02*
G03*
X448323Y117869I-1391J-3532D01*
G01*
X448960Y117617D02*
G03*
X448655Y117756I-1514J-2931D01*
G01*
X450803Y112679D02*
G03*
X450767Y113762I-15451J30D01*
G01*
X452820Y114244D02*
G03*
X452653Y115483I-11911J-980D01*
G01*
X450659Y114718D02*
G03*
X450578Y115147I-7988J-1281D01*
G01*
X452653Y115483D02*
G03*
X452373Y116576I-8639J-1629D01*
G01*
X450578Y115147D02*
G03*
X450480Y115544I-6503J-1406D01*
G01*
X450722Y114256D02*
G03*
X450659Y114718I-9740J-1091D01*
G01*
X275207Y111182D02*
G03*
X275221Y110332I43094J314D01*
G01*
X276825Y103162D02*
G03*
X278726Y101043I6131J3588D01*
G01*
X277304Y111542D02*
G03*
X277891Y106280I19442J-493D01*
G01*
X294335Y106292D02*
G03*
X294906Y111542I-19144J4737D01*
G01*
X296509Y106238D02*
G03*
X297004Y111458I-24318J4940D01*
G01*
X313834Y105311D02*
G03*
X313964Y102684I22855J-185D01*
G01*
X313964D02*
G03*
X314526Y100813I4827J430D01*
G01*
X315932Y105134D02*
G03*
X316116Y103154I8532J-203D01*
G01*
X327420Y115456D02*
G03*
X326300Y113946I7574J-6788D01*
G01*
X330416Y117718D02*
G03*
X328826Y116774I2982J-6834D01*
G01*
X336484Y104715D02*
G03*
X336966Y102403I5429J-73D01*
G01*
X338582Y104920D02*
G03*
X339992Y102143I3208J-119D01*
G01*
X342055Y101307D02*
G03*
X342472Y101238I1486J7617D01*
G01*
X341469Y117518D02*
G03*
X341142Y117369I1770J-4314D01*
G01*
X341877Y166801D02*
G03*
X341200Y165166I1635J-1635D01*
G01*
X343839Y165737D02*
G03*
X343216Y165479I0J-881D01*
G01*
X349831Y116333D02*
G03*
X348153Y117613I-3006J-2202D01*
G01*
X352408Y115792D02*
G03*
X351065Y118146I-5516J-1587D01*
G01*
X352827Y112679D02*
G03*
X352407Y115792I-10816J127D01*
G01*
X350716Y111978D02*
G03*
X350561Y114408I-17354J111D01*
G01*
X369200Y165632D02*
G03*
X369343Y166862I-860J724D01*
G01*
X384473Y105944D02*
G03*
X385879Y103280I7128J2057D01*
G01*
Y115973D02*
G03*
X384473Y113338I5493J-4623D01*
G01*
X395865Y103280D02*
G03*
X397283Y105944I-5824J4809D01*
G01*
X397283Y113338D02*
G03*
X395865Y115973I-7021J-2079D01*
G01*
X407135Y165166D02*
G03*
X406458Y166801I-2312J0D01*
G01*
X417193Y116774D02*
G03*
X415733Y117756I-2555J-2223D01*
G01*
X420344Y112859D02*
G03*
X420282Y114244I-14662J34D01*
G01*
X430163Y118507D02*
G03*
X428195Y116657I8167J-10657D01*
G01*
X437468Y116812D02*
G03*
X436209Y117769I-2225J-1621D01*
G01*
X438328Y112679D02*
G03*
X438135Y115133I-13447J178D01*
G01*
X449905Y116812D02*
G03*
X449238Y117454I-2075J-1489D01*
G01*
X452373Y116576D02*
G03*
X451981Y117524I-6276J-2042D01*
G01*
X452876Y112859D02*
G03*
X452820Y114244I-16273J44D01*
G01*
X450767Y113762D02*
G03*
X450722Y114256I-11785J-823D01*
G01*
X275298Y108592D02*
G03*
X275756Y105747I14659J897D01*
G01*
X277891Y106280D02*
G03*
X279612Y103112I7017J1759D01*
G01*
X292657Y103125D02*
G03*
X294335Y106292I-5491J4938D01*
G01*
X340810Y108617D02*
G03*
X338582Y104920I1833J-3625D01*
G01*
X440259Y116476D02*
G03*
X438249Y119246I-4899J-1441D01*
G01*
X382581Y114097D02*
G03*
X382581Y105168I15149J-4465D01*
G01*
X384473Y113338D02*
G03*
X384473Y105944I13553J-3697D01*
G01*
X397283D02*
G03*
X397283Y113338I-13091J3697D01*
G01*
X399276Y105181D02*
G03*
X399276Y114059I-15183J4439D01*
G01*
X278726Y101043D02*
G03*
X281739Y99608I5427J7514D01*
G01*
X281739Y99608D02*
G03*
X286103Y99080I4053J15182D01*
G01*
X279612Y103112D02*
G03*
X282377Y101559I4152J4156D01*
G01*
X289892Y101559D02*
G03*
X292657Y103125I-1291J5507D01*
G01*
X314526Y100813D02*
G03*
X315785Y99688I2292J1299D01*
G01*
X317560Y101501D02*
G03*
X318773Y101383I1144J5488D01*
G01*
X314468Y133075D02*
G03*
X316779Y130759I2316J0D01*
G01*
X315349Y167306D02*
G03*
X314726Y167048I0J-881D01*
G01*
X328826Y116774D02*
G03*
X327420Y115456I6031J-7843D01*
G01*
X331314Y120034D02*
G03*
X329737Y119556I1089J-6433D01*
G01*
X332141Y118079D02*
G03*
X330416Y117718I-7J-4267D01*
G01*
X340264Y99478D02*
G03*
X342740Y99080I2417J7124D01*
G01*
X346638Y99688D02*
G03*
X348631Y100645I-3751J10369D01*
G01*
X342740Y99080D02*
G03*
X344695Y99210I27J14350D01*
G01*
X345920Y101471D02*
G03*
X347813Y102311I-2914J9125D01*
G01*
X339992Y102143D02*
G03*
X340929Y101636I2642J3762D01*
G01*
X347578Y109909D02*
G03*
X345854Y109858I-44J-27294D01*
G01*
X344316Y109703D02*
G03*
X343616Y109586I2144J-15067D01*
G01*
X341279Y108863D02*
G03*
X340810Y108617I2693J-5711D01*
G01*
X345035Y111806D02*
G03*
X344058Y111672I2384J-21011D01*
G01*
X348321Y111978D02*
G03*
X347166Y111959I-14J-33969D01*
G01*
X350561Y114408D02*
G03*
X349831Y116333I-4306J-531D01*
G01*
X341142Y117369D02*
G03*
X340843Y117202I1808J-3591D01*
G01*
X351065Y118146D02*
G03*
X348665Y119632I-4262J-4205D01*
G01*
D02*
G03*
X345081Y120148I-3325J-10390D01*
G01*
X348153Y117613D02*
G03*
X345102Y118079I-2730J-7655D01*
G01*
X344338Y120135D02*
G03*
X343633Y120094I612J-16684D01*
G01*
X345102Y118079D02*
G03*
X344024Y118044I-27J-15758D01*
G01*
X341188Y119653D02*
G03*
X340670Y119473I2288J-7418D01*
G01*
X375359Y130759D02*
G03*
X376999Y131448I-8J2316D01*
G01*
X385879Y103280D02*
G03*
X388056Y101677I4375J3664D01*
G01*
X393687Y101677D02*
G03*
X395865Y103280I-2197J5266D01*
G01*
X394619Y119430D02*
G03*
X390884Y120148I-3613J-8727D01*
G01*
X410232Y117072D02*
G03*
X407039Y114227I8458J-12708D01*
G01*
X415733Y117756D02*
G03*
X413530Y118079I-2029J-6166D01*
G01*
X416357Y119856D02*
G03*
X414113Y120148I-2141J-7695D01*
G01*
X412565Y120018D02*
G03*
X410845Y119527I1211J-7502D01*
G01*
X405377Y164843D02*
G03*
X404500Y165724I-881J0D01*
G01*
X406458Y166801D02*
G03*
X404823Y167478I-1635J-1635D01*
G01*
X438135Y115133D02*
G03*
X437468Y116812I-4098J-657D01*
G01*
X438249Y119246D02*
G03*
X434892Y120148I-3161J-5065D01*
G01*
X434892Y120148D02*
G03*
X433474Y120034I40J-9428D01*
G01*
X431909Y119556D02*
G03*
X430163Y118507I3879J-8432D01*
G01*
X450480Y115544D02*
G03*
X450363Y115909I-5259J-1480D01*
G01*
X447270Y120148D02*
G03*
X445499Y119980I21J-9651D01*
G01*
X451981Y117524D02*
G03*
X450131Y119492I-4100J-2001D01*
G01*
X447581Y118020D02*
G03*
X447171Y118058I-771J-6123D01*
G01*
X445499Y119980D02*
G03*
X443687Y119401I1462J-7705D01*
G01*
X282377Y101559D02*
G03*
X286115Y101140I3576J15000D01*
G01*
X275756Y105747D02*
G03*
X276825Y103162I10215J2715D01*
G01*
X291440Y99919D02*
G03*
X294788Y102344I-2651J7184D01*
G01*
X336966Y102403D02*
G03*
X338284Y100615I4830J2181D01*
G01*
X338062Y117426D02*
G03*
X337614Y116580I4569J-2962D01*
G01*
X348631Y100645D02*
G03*
X350729Y102181I-7260J12120D01*
G01*
X343848Y101148D02*
G03*
X345920Y101471I28J6629D01*
G01*
X349441Y103460D02*
G03*
X350729Y104690I-9517J11262D01*
G01*
X341483Y111040D02*
G03*
X340744Y110754I3616J-10417D01*
G01*
X376586Y166801D02*
G03*
X375909Y165166I1635J-1635D01*
G01*
X366821Y165611D02*
G03*
X366611Y165737I-206J-105D01*
G01*
X384406Y101845D02*
G03*
X387234Y99789I5735J4915D01*
G01*
X382581Y105168D02*
G03*
X384406Y101845I9173J2875D01*
G01*
X388056Y117550D02*
G03*
X385879Y115973I2233J-5374D01*
G01*
X384393Y117395D02*
G03*
X382581Y114097I7107J-6053D01*
G01*
X390884Y101148D02*
G03*
X393687Y101677I93J7204D01*
G01*
X394623Y99789D02*
G03*
X397468Y101857I-3022J7146D01*
G01*
D02*
G03*
X399276Y105181I-7288J6120D01*
G01*
Y114059D02*
G03*
X397460Y117361I-8953J-2775D01*
G01*
X395865Y115973D02*
G03*
X393687Y117550I-4411J-3797D01*
G01*
X408990Y118469D02*
G03*
X407052Y116657I7641J-10114D01*
G01*
X413530Y118079D02*
G03*
X410232Y117072I37J-6025D01*
G01*
X418246Y112679D02*
G03*
X417999Y115096I-10489J147D01*
G01*
X434321Y118079D02*
G03*
X431191Y117059I46J-5455D01*
G01*
X441912Y118276D02*
G03*
X440258Y116476I5997J-7166D01*
G01*
X446737Y118071D02*
G03*
X443489Y117051I73J-5916D01*
G01*
X294788Y102344D02*
G03*
X296509Y106238I-7640J5702D01*
G01*
X387234Y119451D02*
G03*
X384393Y117395I2991J-7122D01*
G01*
X397460Y117361D02*
G03*
X394619Y119430I-5831J-5022D01*
G01*
X419784Y116576D02*
G03*
X417291Y119492I-4788J-1570D01*
G01*
X286103Y99080D02*
G03*
X291440Y99919I436J14616D01*
G01*
X387234Y99789D02*
G03*
X394623Y99789I3695J9368D01*
G01*
X393687Y117550D02*
G03*
X388056Y117550I-2816J-7234D01*
G01*
X390884Y120148D02*
G03*
X387234Y119451I-110J-9340D01*
G01*
X286115Y101140D02*
G03*
X289892Y101559I149J15864D01*
G01*
X328058Y118545D02*
G03*
X326300Y116866I6529J-8599D01*
G01*
X388056Y101677D02*
G03*
X390884Y101148I2724J6742D01*
G01*
X443489Y117051D02*
G03*
X440426Y114168I7365J-10894D01*
G01*
X431191Y117059D02*
G03*
X428195Y114177I8550J-11884D01*
G01*
X339442Y110065D02*
G03*
X336484Y104715I3074J-5192D01*
G01*
X275252Y109469D02*
X275298Y108592D01*
X275206Y111462D02*
X275207Y111182D01*
X311253Y117563D02*
Y119632D01*
X317963Y99310D02*
X318051Y99311D01*
X318139Y99311D01*
X318228Y99312D01*
X318317Y99313D02*
X318405Y99315D01*
X318494Y99318D01*
X318583Y99321D01*
X318848Y99336D02*
X318936Y99342D01*
X319113Y99356D01*
X319291Y99371D01*
X319468Y99387D01*
X319733Y99415D01*
X319490Y101386D02*
X319538Y101389D01*
X319443Y101385D02*
X319490Y101386D01*
X319398Y101384D02*
X319443Y101385D01*
X319353Y101383D02*
X319398Y101384D01*
X319268Y101383D02*
X319353Y101383D01*
X318773Y101383D02*
X319268D01*
X319243Y117567D02*
Y119636D01*
X332695Y120148D02*
X333085D01*
X333505Y120110D02*
X333526Y118029D01*
X333085Y120148D02*
X333505Y120110D01*
X332141Y118079D02*
X332900D01*
X350729Y99596D02*
X352827D01*
X418246D02*
X420344D01*
X438328Y99587D02*
X440426D01*
X450803Y99596D02*
X452901D01*
X313834Y119632D02*
Y124885D01*
X315932Y119636D02*
Y124885D01*
X319733Y99415D02*
X319738Y101408D01*
X350729Y99596D02*
Y102181D01*
X356721Y99596D02*
Y102336D01*
X358416Y125833D02*
Y127906D01*
X378674Y99596D02*
Y101664D01*
X378137Y125137D02*
Y127906D01*
X326300Y116866D02*
Y119632D01*
X350729Y104690D02*
Y109909D01*
X407039Y127906D02*
X407052Y116657D01*
X428195D02*
Y119632D01*
X275206Y111462D02*
Y127906D01*
X277304Y111542D02*
Y127906D01*
X294906Y111542D02*
Y127906D01*
X297004Y111458D02*
Y127906D01*
X304288Y99596D02*
Y127906D01*
X306386Y99596D02*
Y127906D01*
X314468Y133075D02*
Y166425D01*
X313834Y105311D02*
Y117563D01*
X316226Y133420D02*
Y166425D01*
X315932Y105134D02*
Y117567D01*
X324202Y99596D02*
Y119632D01*
X326300Y99596D02*
Y113946D01*
X342958Y142248D02*
Y164856D01*
X341200Y142248D02*
Y165166D01*
X352827Y99596D02*
Y112679D01*
X375909Y133398D02*
Y165166D01*
X377667Y133096D02*
Y164843D01*
X404941Y99596D02*
Y127906D01*
X407135Y133415D02*
Y165166D01*
X405377Y133075D02*
Y164843D01*
X407039Y99596D02*
Y114227D01*
X420344Y99596D02*
Y112859D01*
X418246Y99596D02*
Y112679D01*
X426097Y99596D02*
Y119632D01*
X428195Y99596D02*
Y114177D01*
X440426Y99587D02*
Y114168D01*
X438328Y99587D02*
Y112679D01*
X452876Y112859D02*
X452901Y99596D01*
X450803D02*
Y112679D01*
X275206Y127906D02*
X277304D01*
X294906D02*
X297004D01*
X304288Y99596D02*
X306386D01*
X304288Y127906D02*
X306386D01*
X324202Y99596D02*
X326300D01*
X318228Y99312D02*
X318317Y99313D01*
X315932Y119636D02*
X319243D01*
X315932Y117567D02*
X319243D01*
X324202Y119632D02*
X326300D01*
X313834Y124885D02*
X315932D01*
X337105Y114538D02*
X339165D01*
X347578Y109909D02*
X350729D01*
X348321Y111978D02*
X350716D01*
X404941Y99596D02*
X407039D01*
X404941Y127906D02*
X407039D01*
X426097Y99596D02*
X428195D01*
X426097Y119632D02*
X428195D01*
X311253D02*
X313834D01*
X311253Y117563D02*
X313834D01*
X317107Y132543D02*
X342463D01*
X316779Y130759D02*
X342463D01*
X358836Y101664D02*
X378674D01*
X378544Y165724D02*
X404500D01*
X378221Y167478D02*
X404823D01*
X358836Y101664D02*
X378137Y125137D01*
X356721Y99596D02*
X378674D01*
X358416Y125833D02*
X375989D01*
X358416Y127906D02*
X378137D01*
X352965Y132521D02*
X375028D01*
X352965Y130759D02*
X375359D01*
X408017Y132538D02*
X417105D01*
X407689Y130759D02*
X417105D01*
X343512Y167478D02*
X368268D01*
X343839Y165737D02*
X366611D01*
X344053Y131598D02*
X369200Y165632D01*
X342648Y132639D02*
X366800Y165368D01*
X356721Y102336D02*
X375989Y125833D01*
D12*
X490866Y338644D02*
X493532Y334646D01*
Y338644D02*
X490866Y334646D01*
X497531D02*
X494865D01*
X497531Y337312D01*
Y337978D01*
X496864Y338644D01*
X495531D01*
X494865Y337978D01*
X-27559Y267778D02*
X-24893Y263779D01*
Y267778D02*
X-27559Y263779D01*
X-23560D02*
X-22227D01*
X-22894D01*
Y267778D01*
X-23560Y267112D01*
M02*
