M48
;Layer_Color=9474304
;FILE_FORMAT=2:5
INCH,TZ
;TYPE=PLATED
T1F00S00C0.01181
T2F00S00C0.04291
T3F00S00C0.12835
%
T01
X464567Y113996
Y117933
X468000Y147000
Y156000
X51181Y122047
Y118110
X-7874Y132283
X-23000Y126649
X-35000Y135433
Y144882
Y154331
X-37000Y163779
X-33000Y167000
X-35000Y173228
Y182677
X-25000Y170000
X-16000Y174000
X-7874Y179528
X20889Y183821
Y187758
X19685Y207480
Y211417
Y224410
Y228346
X19685Y244094
Y248031
X-3631Y245669
X-6566Y251969
X-9859Y258268
X-35000Y255000
Y248819
Y242520
Y233071
Y223622
Y214173
Y204724
Y264567
X39370
Y268504
T02
X496063Y109890
Y120760
Y131630
Y142500
Y153370
Y164240
Y175110
Y185980
X507244Y180545
Y169675
Y158805
Y147935
Y137065
Y126195
Y115325
X518425Y120760
Y131630
Y142500
Y153370
Y164240
Y175110
Y185980
Y109890
Y196850
Y207720
Y218590
Y229461
Y240331
Y251201
Y262071
Y272941
Y283811
X507244Y278376
Y267506
Y256636
Y245766
Y234896
Y224026
Y213156
Y202285
Y191415
X496063Y196850
Y207720
Y218590
Y229461
Y240331
Y251201
Y262071
Y272941
Y283811
T03
X507244Y76555
Y317146
M30
